<?xml version="1.0" encoding="utf-8"?>
<!-- Generator: Adobe Illustrator 16.0.3, SVG Export Plug-In . SVG Version: 6.00 Build 0)  -->
<!DOCTYPE svg PUBLIC "-//W3C//DTD SVG 1.1 Tiny//EN" "http://www.w3.org/Graphics/SVG/1.1/DTD/svg11-tiny.dtd">
<svg version="1.1" baseProfile="tiny" id="Capa_1" xmlns="http://www.w3.org/2000/svg" xmlns:xlink="http://www.w3.org/1999/xlink"
	 x="0px" y="0px" width="1023.995px" height="1023.997px" viewBox="0 0 1023.995 1023.997" xml:space="preserve">
<image width="570" height="570" xlink:href="../../../../wanduhr-sabrina-fossi-freakishclock-blackred.jpg"  transform="matrix(1.1474 0 0 1.1474 -678.002 137.9971)">
</image>
<g display="none">
	<circle display="inline" fill="#FFFFFF" cx="511.998" cy="511.998" r="511.998"/>
	<text transform="matrix(1 0 0 1 438.2407 167.999)" display="inline" font-family="'Consolas-Bold'" font-size="64">1</text>
	<text transform="matrix(1 0 0 1 473.6841 167.999)" display="inline" font-family="'Consolas-Bold'" font-size="64">1</text>
	<text transform="matrix(1 0 0 1 509.1279 167.999)" display="inline" font-family="'Consolas-Bold'" font-size="64">0</text>
	<text transform="matrix(1 0 0 1 544.5713 167.999)" display="inline" font-family="'Consolas-Bold'" font-size="64">0</text>
	<text transform="matrix(0.866 -0.5 0.5 0.866 276.1226 250.9644)" display="inline" font-family="'Consolas-Bold'" font-size="64">1</text>
	<text transform="matrix(0.866 -0.5 0.5 0.866 306.8174 233.2427)" display="inline" font-family="'Consolas-Bold'" font-size="64">0</text>
	<text transform="matrix(0.866 -0.5 0.5 0.866 337.5127 215.521)" display="inline" font-family="'Consolas-Bold'" font-size="64">1</text>
	<text transform="matrix(0.866 -0.5 0.5 0.866 368.2075 197.7993)" display="inline" font-family="'Consolas-Bold'" font-size="64">1</text>
	<text transform="matrix(0.5 -0.866 0.866 0.5 177.207 403.8735)" display="inline" font-family="'Consolas-Bold'" font-size="64">1</text>
	<text transform="matrix(0.5 -0.866 0.866 0.5 194.9287 373.1787)" display="inline" font-family="'Consolas-Bold'" font-size="64">0</text>
	<text transform="matrix(0.5 -0.866 0.866 0.5 212.6504 342.4834)" display="inline" font-family="'Consolas-Bold'" font-size="64">1</text>
	<text transform="matrix(0.5 -0.866 0.866 0.5 230.3721 311.7886)" display="inline" font-family="'Consolas-Bold'" font-size="64">0</text>
	
		<text transform="matrix(-2.580957e-008 -1 1 -2.580957e-008 167.998 585.7549)" display="inline" font-family="'Consolas-Bold'" font-size="64">1</text>
	
		<text transform="matrix(-2.580957e-008 -1 1 -2.580957e-008 167.998 550.3115)" display="inline" font-family="'Consolas-Bold'" font-size="64">0</text>
	
		<text transform="matrix(-2.580957e-008 -1 1 -2.580957e-008 167.998 514.8682)" display="inline" font-family="'Consolas-Bold'" font-size="64">0</text>
	
		<text transform="matrix(-2.580957e-008 -1 1 -2.580957e-008 167.998 479.4248)" display="inline" font-family="'Consolas-Bold'" font-size="64">1</text>
	<text transform="matrix(0.5 0.866 -0.866 0.5 151.105 641.8193)" display="inline" font-family="'Consolas-Bold'" font-size="64">1</text>
	<text transform="matrix(0.5 0.866 -0.866 0.5 168.8267 672.5146)" display="inline" font-family="'Consolas-Bold'" font-size="64">0</text>
	<text transform="matrix(0.5 0.866 -0.866 0.5 186.5488 703.21)" display="inline" font-family="'Consolas-Bold'" font-size="64">0</text>
	<text transform="matrix(0.5 0.866 -0.866 0.5 204.2705 733.9043)" display="inline" font-family="'Consolas-Bold'" font-size="64">0</text>
	<text transform="matrix(0.866 0.5 -0.5 0.866 264.3682 804.874)" display="inline" font-family="'Consolas-Bold'" font-size="64">0</text>
	<text transform="matrix(0.866 0.5 -0.5 0.866 295.063 822.5957)" display="inline" font-family="'Consolas-Bold'" font-size="64">1</text>
	<text transform="matrix(0.866 0.5 -0.5 0.866 325.7583 840.3184)" display="inline" font-family="'Consolas-Bold'" font-size="64">1</text>
	<text transform="matrix(0.866 0.5 -0.5 0.866 356.4531 858.04)" display="inline" font-family="'Consolas-Bold'" font-size="64">1</text>
	<text transform="matrix(1 0 0 1 443.98 889.4502)" display="inline" font-family="'Consolas-Bold'" font-size="64">0</text>
	<text transform="matrix(1 0 0 1 479.4233 889.4502)" display="inline" font-family="'Consolas-Bold'" font-size="64">1</text>
	<text transform="matrix(1 0 0 1 514.8672 889.4502)" display="inline" font-family="'Consolas-Bold'" font-size="64">1</text>
	<text transform="matrix(1 0 0 1 550.3105 889.4502)" display="inline" font-family="'Consolas-Bold'" font-size="64">0</text>
	<text transform="matrix(0.866 -0.5 0.5 0.866 641.8213 872.8896)" display="inline" font-family="'Consolas-Bold'" font-size="64">0</text>
	<text transform="matrix(0.866 -0.5 0.5 0.866 672.5166 855.168)" display="inline" font-family="'Consolas-Bold'" font-size="64">1</text>
	<text transform="matrix(0.866 -0.5 0.5 0.866 703.2119 837.4463)" display="inline" font-family="'Consolas-Bold'" font-size="64">0</text>
	<text transform="matrix(0.866 -0.5 0.5 0.866 733.9063 819.7246)" display="inline" font-family="'Consolas-Bold'" font-size="64">1</text>
	<text transform="matrix(0.5 -0.866 0.866 0.5 804.875 759.6299)" display="inline" font-family="'Consolas-Bold'" font-size="64">0</text>
	<text transform="matrix(0.5 -0.866 0.866 0.5 822.5967 728.9346)" display="inline" font-family="'Consolas-Bold'" font-size="64">1</text>
	<text transform="matrix(0.5 -0.866 0.866 0.5 840.3184 698.2393)" display="inline" font-family="'Consolas-Bold'" font-size="64">0</text>
	<text transform="matrix(0.5 -0.866 0.866 0.5 858.04 667.5449)" display="inline" font-family="'Consolas-Bold'" font-size="64">0</text>
	
		<text transform="matrix(2.580957e-008 1 -1 2.580957e-008 855.999 438.2422)" display="inline" font-family="'Consolas-Bold'" font-size="64">0</text>
	
		<text transform="matrix(2.580957e-008 1 -1 2.580957e-008 855.999 473.6855)" display="inline" font-family="'Consolas-Bold'" font-size="64">0</text>
	
		<text transform="matrix(2.580957e-008 1 -1 2.580957e-008 855.999 509.1289)" display="inline" font-family="'Consolas-Bold'" font-size="64">1</text>
	
		<text transform="matrix(2.580957e-008 1 -1 2.580957e-008 855.999 544.5723)" display="inline" font-family="'Consolas-Bold'" font-size="64">1</text>
	<text transform="matrix(0.5 0.866 -0.866 0.5 773.0322 276.1235)" display="inline" font-family="'Consolas-Bold'" font-size="64">0</text>
	<text transform="matrix(0.5 0.866 -0.866 0.5 790.7539 306.8184)" display="inline" font-family="'Consolas-Bold'" font-size="64">0</text>
	<text transform="matrix(0.5 0.866 -0.866 0.5 808.4756 337.5137)" display="inline" font-family="'Consolas-Bold'" font-size="64">1</text>
	<text transform="matrix(0.5 0.866 -0.866 0.5 826.1973 368.2085)" display="inline" font-family="'Consolas-Bold'" font-size="64">0</text>
	<text transform="matrix(0.866 0.5 -0.5 0.866 620.1221 177.2075)" display="inline" font-family="'Consolas-Bold'" font-size="64">0</text>
	<text transform="matrix(0.866 0.5 -0.5 0.866 650.8174 194.9292)" display="inline" font-family="'Consolas-Bold'" font-size="64">0</text>
	<text transform="matrix(0.866 0.5 -0.5 0.866 681.5127 212.6509)" display="inline" font-family="'Consolas-Bold'" font-size="64">0</text>
	<text transform="matrix(0.866 0.5 -0.5 0.866 712.207 230.3726)" display="inline" font-family="'Consolas-Bold'" font-size="64">1</text>
	<circle display="inline" cx="511.998" cy="511.999" r="316"/>
	
		<text transform="matrix(1 0 0 1 473.6841 275.9971)" display="inline" fill="#FFFFFF" font-family="'Consolas-Bold'" font-size="64">0</text>
	
		<text transform="matrix(1 0 0 1 509.1274 275.9971)" display="inline" fill="#FFFFFF" font-family="'Consolas-Bold'" font-size="64">0</text>
	
		<text transform="matrix(0.866 0.5 -0.5 0.866 596.8184 288.458)" display="inline" fill="#FFFFFF" font-family="'Consolas-Bold'" font-size="64">0</text>
	
		<text transform="matrix(0.866 0.5 -0.5 0.866 627.5127 306.1797)" display="inline" fill="#FFFFFF" font-family="'Consolas-Bold'" font-size="64">5</text>
	
		<text transform="matrix(0.5 0.866 -0.866 0.5 697.2246 360.8169)" display="inline" fill="#FFFFFF" font-family="'Consolas-Bold'" font-size="64">0</text>
	
		<text transform="matrix(0.5 0.866 -0.866 0.5 714.9463 391.5117)" display="inline" fill="#FFFFFF" font-family="'Consolas-Bold'" font-size="64">A</text>
	
		<text transform="matrix(-2.580957e-008 1 -1 -2.580957e-008 748 473.6846)" display="inline" fill="#FFFFFF" font-family="'Consolas-Bold'" font-size="64">0</text>
	
		<text transform="matrix(-2.580957e-008 1 -1 -2.580957e-008 748 509.1279)" display="inline" fill="#FFFFFF" font-family="'Consolas-Bold'" font-size="64">F</text>
	
		<text transform="matrix(0.5 -0.866 0.866 0.5 729.0664 674.9346)" display="inline" fill="#FFFFFF" font-family="'Consolas-Bold'" font-size="64">1</text>
	
		<text transform="matrix(0.5 -0.866 0.866 0.5 746.7881 644.2393)" display="inline" fill="#FFFFFF" font-family="'Consolas-Bold'" font-size="64">4</text>
	
		<text transform="matrix(0.866 -0.5 0.5 0.866 618.5156 761.6387)" display="inline" fill="#FFFFFF" font-family="'Consolas-Bold'" font-size="64">1</text>
	
		<text transform="matrix(0.866 -0.5 0.5 0.866 649.21 743.917)" display="inline" fill="#FFFFFF" font-family="'Consolas-Bold'" font-size="64">9</text>
	
		<text transform="matrix(1 0 0 1 479.4224 781.4531)" display="inline" fill="#FFFFFF" font-family="'Consolas-Bold'" font-size="64">1</text>
	
		<text transform="matrix(1 0 0 1 514.8652 781.4531)" display="inline" fill="#FFFFFF" font-family="'Consolas-Bold'" font-size="64">E</text>
	
		<text transform="matrix(0.866 0.5 -0.5 0.866 349.061 729.0635)" display="inline" fill="#FFFFFF" font-family="'Consolas-Bold'" font-size="64">2</text>
	
		<text transform="matrix(0.866 0.5 -0.5 0.866 379.7559 746.7852)" display="inline" fill="#FFFFFF" font-family="'Consolas-Bold'" font-size="64">3</text>
	
		<text transform="matrix(0.5 0.866 -0.866 0.5 262.3579 618.5127)" display="inline" fill="#FFFFFF" font-family="'Consolas-Bold'" font-size="64">2</text>
	
		<text transform="matrix(0.5 0.866 -0.866 0.5 280.0796 649.208)" display="inline" fill="#FFFFFF" font-family="'Consolas-Bold'" font-size="64">8</text>
	
		<text transform="matrix(2.580957e-008 -1 1 2.580957e-008 275.9976 550.3105)" display="inline" fill="#FFFFFF" font-family="'Consolas-Bold'" font-size="64">2</text>
	
		<text transform="matrix(2.580957e-008 -1 1 2.580957e-008 275.9976 514.8672)" display="inline" fill="#FFFFFF" font-family="'Consolas-Bold'" font-size="64">D</text>
	
		<text transform="matrix(0.5 -0.866 0.866 0.5 288.46 427.1777)" display="inline" fill="#FFFFFF" font-family="'Consolas-Bold'" font-size="64">3</text>
	
		<text transform="matrix(0.5 -0.866 0.866 0.5 306.1816 396.4829)" display="inline" fill="#FFFFFF" font-family="'Consolas-Bold'" font-size="64">2</text>
	
		<text transform="matrix(0.866 -0.5 0.5 0.866 360.8184 326.7725)" display="inline" fill="#FFFFFF" font-family="'Consolas-Bold'" font-size="64">3</text>
	
		<text transform="matrix(0.866 -0.5 0.5 0.866 391.5132 309.0508)" display="inline" fill="#FFFFFF" font-family="'Consolas-Bold'" font-size="64">7</text>
</g>
<rect x="419.378" y="-330.473" display="none" fill="#FF0000" width="20" height="96"/>
<path display="none" d="M511.998-0.002c-282.771,0-512,229.229-512,512c0,282.771,229.229,512.001,512,512.001
	c282.77,0,512-229.23,512-512.001C1023.998,229.227,794.768-0.002,511.998-0.002z M511.998,95.998
	c33.489,0,66.049,3.959,97.25,11.43l-23.381,97.26c138.891,33.25,242.131,158.23,242.131,307.311
	c0,174.521-141.471,316.001-316,316.001c-174.521,0-316-141.48-316-316.001c0-149.08,103.239-274.051,242.13-307.311l-23.38-97.26
	C445.948,99.957,478.507,95.998,511.998,95.998z"/>
<g>
	<path fill="#FF0000" d="M585.867,204.344l-23.369,97.25c94.93,22.739,165.5,108.159,165.5,210.06c0,119.29-96.711,216-216.001,216
		s-216-96.71-216-216c0-101.9,70.57-187.32,165.5-210.06l-23.37-97.25c-138.89,33.26-242.13,158.229-242.13,307.31
		c0,174.52,141.48,316,316,316c174.521,0,316.001-141.48,316.001-316C827.998,362.573,724.758,237.604,585.867,204.344z"/>
	<path d="M727.998,511.653c0,119.29-96.711,216-216.001,216s-216-96.71-216-216c0-101.9,70.57-187.32,165.5-210.06
		c16.2-3.881,33.11-5.94,50.5-5.94s34.3,2.06,50.501,5.94C657.428,324.333,727.998,409.753,727.998,511.653z"/>
</g>
</svg>
