<?xml version="1.0" encoding="utf-8"?>
<!-- Generator: Adobe Illustrator 16.0.3, SVG Export Plug-In . SVG Version: 6.00 Build 0)  -->
<!DOCTYPE svg PUBLIC "-//W3C//DTD SVG 1.1 Tiny//EN" "http://www.w3.org/Graphics/SVG/1.1/DTD/svg11-tiny.dtd">
<svg version="1.1" baseProfile="tiny" id="Capa_1" xmlns="http://www.w3.org/2000/svg" xmlns:xlink="http://www.w3.org/1999/xlink"
	 x="0px" y="0px" width="1023.995px" height="1023.997px" viewBox="0 0 1023.995 1023.997" xml:space="preserve">
<image width="570" height="570" xlink:href="../../../../wanduhr-sabrina-fossi-freakishclock-blackred.jpg"  transform="matrix(1.1474 0 0 1.1474 -678.002 137.9971)">
</image>
<g>
	<circle fill="#FFFFFF" cx="1679.998" cy="411.998" r="511.998"/>
	<text transform="matrix(1 0 0 1 1606.2412 67.999)" font-family="'Consolas-Bold'" font-size="64">1</text>
	<text transform="matrix(1 0 0 1 1641.6846 67.999)" font-family="'Consolas-Bold'" font-size="64">1</text>
	<text transform="matrix(1 0 0 1 1677.1279 67.999)" font-family="'Consolas-Bold'" font-size="64">0</text>
	<text transform="matrix(1 0 0 1 1712.5713 67.999)" font-family="'Consolas-Bold'" font-size="64">0</text>
	<text transform="matrix(0.866 -0.5 0.5 0.866 1444.123 150.9644)" font-family="'Consolas-Bold'" font-size="64">1</text>
	<text transform="matrix(0.866 -0.5 0.5 0.866 1474.8174 133.2427)" font-family="'Consolas-Bold'" font-size="64">0</text>
	<text transform="matrix(0.866 -0.5 0.5 0.866 1505.5127 115.521)" font-family="'Consolas-Bold'" font-size="64">1</text>
	<text transform="matrix(0.866 -0.5 0.5 0.866 1536.208 97.7993)" font-family="'Consolas-Bold'" font-size="64">1</text>
	<text transform="matrix(0.5 -0.866 0.866 0.5 1345.207 303.8735)" font-family="'Consolas-Bold'" font-size="64">1</text>
	<text transform="matrix(0.5 -0.866 0.866 0.5 1362.9287 273.1787)" font-family="'Consolas-Bold'" font-size="64">0</text>
	<text transform="matrix(0.5 -0.866 0.866 0.5 1380.6504 242.4834)" font-family="'Consolas-Bold'" font-size="64">1</text>
	<text transform="matrix(0.5 -0.866 0.866 0.5 1398.3721 211.7886)" font-family="'Consolas-Bold'" font-size="64">0</text>
	<text transform="matrix(-2.580957e-008 -1 1 -2.580957e-008 1335.998 485.7549)" font-family="'Consolas-Bold'" font-size="64">1</text>
	<text transform="matrix(-2.580957e-008 -1 1 -2.580957e-008 1335.998 450.3115)" font-family="'Consolas-Bold'" font-size="64">0</text>
	<text transform="matrix(-2.580957e-008 -1 1 -2.580957e-008 1335.998 414.8682)" font-family="'Consolas-Bold'" font-size="64">0</text>
	<text transform="matrix(-2.580957e-008 -1 1 -2.580957e-008 1335.998 379.4248)" font-family="'Consolas-Bold'" font-size="64">1</text>
	<text transform="matrix(0.5 0.866 -0.866 0.5 1319.1055 541.8193)" font-family="'Consolas-Bold'" font-size="64">1</text>
	<text transform="matrix(0.5 0.866 -0.866 0.5 1336.8271 572.5146)" font-family="'Consolas-Bold'" font-size="64">0</text>
	<text transform="matrix(0.5 0.866 -0.866 0.5 1354.5488 603.21)" font-family="'Consolas-Bold'" font-size="64">0</text>
	<text transform="matrix(0.5 0.866 -0.866 0.5 1372.2705 633.9043)" font-family="'Consolas-Bold'" font-size="64">0</text>
	<text transform="matrix(0.866 0.5 -0.5 0.866 1432.3682 704.874)" font-family="'Consolas-Bold'" font-size="64">0</text>
	<text transform="matrix(0.866 0.5 -0.5 0.866 1463.0635 722.5957)" font-family="'Consolas-Bold'" font-size="64">1</text>
	<text transform="matrix(0.866 0.5 -0.5 0.866 1493.7578 740.3184)" font-family="'Consolas-Bold'" font-size="64">1</text>
	<text transform="matrix(0.866 0.5 -0.5 0.866 1524.4531 758.04)" font-family="'Consolas-Bold'" font-size="64">1</text>
	<text transform="matrix(1 0 0 1 1611.9805 789.4502)" font-family="'Consolas-Bold'" font-size="64">0</text>
	<text transform="matrix(1 0 0 1 1647.4238 789.4502)" font-family="'Consolas-Bold'" font-size="64">1</text>
	<text transform="matrix(1 0 0 1 1682.8672 789.4502)" font-family="'Consolas-Bold'" font-size="64">1</text>
	<text transform="matrix(1 0 0 1 1718.3105 789.4502)" font-family="'Consolas-Bold'" font-size="64">0</text>
	<text transform="matrix(0.866 -0.5 0.5 0.866 1809.8213 772.8896)" font-family="'Consolas-Bold'" font-size="64">0</text>
	<text transform="matrix(0.866 -0.5 0.5 0.866 1840.5166 755.168)" font-family="'Consolas-Bold'" font-size="64">1</text>
	<text transform="matrix(0.866 -0.5 0.5 0.866 1871.2119 737.4463)" font-family="'Consolas-Bold'" font-size="64">0</text>
	<text transform="matrix(0.866 -0.5 0.5 0.866 1901.9063 719.7246)" font-family="'Consolas-Bold'" font-size="64">1</text>
	<text transform="matrix(0.5 -0.866 0.866 0.5 1972.875 659.6299)" font-family="'Consolas-Bold'" font-size="64">0</text>
	<text transform="matrix(0.5 -0.866 0.866 0.5 1990.5967 628.9346)" font-family="'Consolas-Bold'" font-size="64">1</text>
	<text transform="matrix(0.5 -0.866 0.866 0.5 2008.3184 598.2393)" font-family="'Consolas-Bold'" font-size="64">0</text>
	<text transform="matrix(0.5 -0.866 0.866 0.5 2026.04 567.5449)" font-family="'Consolas-Bold'" font-size="64">0</text>
	<text transform="matrix(2.580957e-008 1 -1 2.580957e-008 2023.999 338.2422)" font-family="'Consolas-Bold'" font-size="64">0</text>
	<text transform="matrix(2.580957e-008 1 -1 2.580957e-008 2023.999 373.6855)" font-family="'Consolas-Bold'" font-size="64">0</text>
	<text transform="matrix(2.580957e-008 1 -1 2.580957e-008 2023.999 409.1289)" font-family="'Consolas-Bold'" font-size="64">1</text>
	<text transform="matrix(2.580957e-008 1 -1 2.580957e-008 2023.999 444.5723)" font-family="'Consolas-Bold'" font-size="64">1</text>
	<text transform="matrix(0.5 0.866 -0.866 0.5 1941.0322 176.1235)" font-family="'Consolas-Bold'" font-size="64">0</text>
	<text transform="matrix(0.5 0.866 -0.866 0.5 1958.7539 206.8184)" font-family="'Consolas-Bold'" font-size="64">0</text>
	<text transform="matrix(0.5 0.866 -0.866 0.5 1976.4756 237.5137)" font-family="'Consolas-Bold'" font-size="64">1</text>
	<text transform="matrix(0.5 0.866 -0.866 0.5 1994.1973 268.2085)" font-family="'Consolas-Bold'" font-size="64">0</text>
	<text transform="matrix(0.866 0.5 -0.5 0.866 1788.1221 77.2075)" font-family="'Consolas-Bold'" font-size="64">0</text>
	<text transform="matrix(0.866 0.5 -0.5 0.866 1818.8174 94.9292)" font-family="'Consolas-Bold'" font-size="64">0</text>
	<text transform="matrix(0.866 0.5 -0.5 0.866 1849.5127 112.6509)" font-family="'Consolas-Bold'" font-size="64">0</text>
	<text transform="matrix(0.866 0.5 -0.5 0.866 1880.207 130.3726)" font-family="'Consolas-Bold'" font-size="64">1</text>
	<circle cx="1679.998" cy="411.999" r="316"/>
	<text transform="matrix(1 0 0 1 1641.6846 175.9971)" fill="#FFFFFF" font-family="'Consolas-Bold'" font-size="64">0</text>
	<text transform="matrix(1 0 0 1 1677.1279 175.9971)" fill="#FFFFFF" font-family="'Consolas-Bold'" font-size="64">0</text>
	<text transform="matrix(0.866 0.5 -0.5 0.866 1764.8184 188.458)" fill="#FFFFFF" font-family="'Consolas-Bold'" font-size="64">0</text>
	<text transform="matrix(0.866 0.5 -0.5 0.866 1795.5127 206.1797)" fill="#FFFFFF" font-family="'Consolas-Bold'" font-size="64">5</text>
	<text transform="matrix(0.5 0.866 -0.866 0.5 1865.2246 260.8169)" fill="#FFFFFF" font-family="'Consolas-Bold'" font-size="64">0</text>
	<text transform="matrix(0.5 0.866 -0.866 0.5 1882.9463 291.5117)" fill="#FFFFFF" font-family="'Consolas-Bold'" font-size="64">A</text>
	
		<text transform="matrix(-2.580957e-008 1 -1 -2.580957e-008 1916 373.6846)" fill="#FFFFFF" font-family="'Consolas-Bold'" font-size="64">0</text>
	
		<text transform="matrix(-2.580957e-008 1 -1 -2.580957e-008 1916 409.1279)" fill="#FFFFFF" font-family="'Consolas-Bold'" font-size="64">F</text>
	<text transform="matrix(0.5 -0.866 0.866 0.5 1897.0664 574.9346)" fill="#FFFFFF" font-family="'Consolas-Bold'" font-size="64">1</text>
	<text transform="matrix(0.5 -0.866 0.866 0.5 1914.7881 544.2393)" fill="#FFFFFF" font-family="'Consolas-Bold'" font-size="64">4</text>
	<text transform="matrix(0.866 -0.5 0.5 0.866 1786.5156 661.6387)" fill="#FFFFFF" font-family="'Consolas-Bold'" font-size="64">1</text>
	<text transform="matrix(0.866 -0.5 0.5 0.866 1817.21 643.917)" fill="#FFFFFF" font-family="'Consolas-Bold'" font-size="64">9</text>
	<text transform="matrix(1 0 0 1 1647.4219 681.4531)" fill="#FFFFFF" font-family="'Consolas-Bold'" font-size="64">1</text>
	<text transform="matrix(1 0 0 1 1682.8652 681.4531)" fill="#FFFFFF" font-family="'Consolas-Bold'" font-size="64">E</text>
	<text transform="matrix(0.866 0.5 -0.5 0.866 1517.0605 629.0635)" fill="#FFFFFF" font-family="'Consolas-Bold'" font-size="64">2</text>
	<text transform="matrix(0.866 0.5 -0.5 0.866 1547.7559 646.7852)" fill="#FFFFFF" font-family="'Consolas-Bold'" font-size="64">3</text>
	<text transform="matrix(0.5 0.866 -0.866 0.5 1430.3574 518.5127)" fill="#FFFFFF" font-family="'Consolas-Bold'" font-size="64">2</text>
	<text transform="matrix(0.5 0.866 -0.866 0.5 1448.0791 549.208)" fill="#FFFFFF" font-family="'Consolas-Bold'" font-size="64">8</text>
	
		<text transform="matrix(2.580957e-008 -1 1 2.580957e-008 1443.998 450.3101)" fill="#FFFFFF" font-family="'Consolas-Bold'" font-size="64">2</text>
	
		<text transform="matrix(2.580957e-008 -1 1 2.580957e-008 1443.998 414.8667)" fill="#FFFFFF" font-family="'Consolas-Bold'" font-size="64">D</text>
	<text transform="matrix(0.5 -0.866 0.866 0.5 1456.46 327.1777)" fill="#FFFFFF" font-family="'Consolas-Bold'" font-size="64">3</text>
	<text transform="matrix(0.5 -0.866 0.866 0.5 1474.1816 296.4829)" fill="#FFFFFF" font-family="'Consolas-Bold'" font-size="64">2</text>
	<text transform="matrix(0.866 -0.5 0.5 0.866 1528.8184 226.7725)" fill="#FFFFFF" font-family="'Consolas-Bold'" font-size="64">3</text>
	<text transform="matrix(0.866 -0.5 0.5 0.866 1559.5137 209.0508)" fill="#FFFFFF" font-family="'Consolas-Bold'" font-size="64">7</text>
</g>
<rect x="-834.315" y="779.511" fill="#FF0000" width="20" height="96"/>
<path d="M511.997-0.001c-282.77,0-512,229.229-512,512c0,282.77,229.23,512,512,512c282.771,0,512-229.23,512-512
	C1023.997,229.228,794.768-0.001,511.997-0.001z M511.997,95.999c33.489,0,66.05,3.96,97.25,11.43l-23.38,97.261
	c138.89,33.25,242.13,158.229,242.13,307.31c0,174.52-141.47,316-316,316c-174.52,0-316-141.48-316-316
	c0-149.08,103.24-274.05,242.13-307.31l-23.38-97.261C445.947,99.958,478.507,95.999,511.997,95.999z"/>
<g>
	<path d="M998.248,1227.427l-23.38,97.261l-23.37,97.25c94.93,22.739,165.5,108.159,165.5,210.06c0,119.29-96.71,216-216,216
		s-216-96.71-216-216c0-101.9,70.57-187.32,165.5-210.06l-23.37-97.25l-23.38-97.261c-182.84,43.79-318.75,208.311-318.75,404.57
		c0,229.75,186.25,416,416,416s416-186.25,416-416C1316.998,1435.737,1181.088,1271.217,998.248,1227.427z"/>
	<path d="M998.248,1227.427l-23.38,97.261l-23.37,97.25c94.93,22.739,165.5,108.159,165.5,210.06c0,119.29-96.71,216-216,216
		s-216-96.71-216-216c0-101.9,70.57-187.32,165.5-210.06l-23.37-97.25l-23.38-97.261c-182.84,43.79-318.75,208.311-318.75,404.57
		c0,229.75,186.25,416,416,416s416-186.25,416-416C1316.998,1435.737,1181.088,1271.217,998.248,1227.427z"/>
	<path fill="#FF0000" d="M974.868,1324.688l-23.37,97.25c94.93,22.739,165.5,108.159,165.5,210.06c0,119.29-96.71,216-216,216
		s-216-96.71-216-216c0-101.9,70.57-187.32,165.5-210.06l-23.37-97.25c-138.89,33.26-242.13,158.229-242.13,307.31
		c0,174.52,141.48,316,316,316s316-141.48,316-316C1216.998,1482.917,1113.758,1357.947,974.868,1324.688z"/>
	<path d="M1116.998,1631.997c0,119.29-96.71,216-216,216s-216-96.71-216-216c0-101.9,70.57-187.32,165.5-210.06
		c16.2-3.881,33.11-5.94,50.5-5.94s34.3,2.06,50.5,5.94C1046.428,1444.677,1116.998,1530.097,1116.998,1631.997z"/>
</g>
</svg>
