<?xml version="1.0" encoding="utf-8"?>
<!-- Generator: Adobe Illustrator 16.0.3, SVG Export Plug-In . SVG Version: 6.00 Build 0)  -->
<!DOCTYPE svg PUBLIC "-//W3C//DTD SVG 1.1 Tiny//EN" "http://www.w3.org/Graphics/SVG/1.1/DTD/svg11-tiny.dtd">
<svg version="1.1" baseProfile="tiny" id="Capa_1" xmlns="http://www.w3.org/2000/svg" xmlns:xlink="http://www.w3.org/1999/xlink"
	 x="0px" y="0px" width="1023.995px" height="1023.997px" viewBox="0 0 1023.995 1023.997" xml:space="preserve">
<image width="570" height="570" xlink:href="../../../../wanduhr-sabrina-fossi-freakishclock-blackred.jpg"  transform="matrix(1.1474 0 0 1.1474 -678.002 137.9971)">
</image>
<g>
	<circle fill="#FFFFFF" cx="511.998" cy="511.998" r="511.998"/>
	<g>
		<path d="M442.991,167.999v-6.781h10.406v-26.25l-9.063,5l-2.5-6.219l12.969-6.844h6.406v34.313h8.969v6.781H442.991z"/>
		<path d="M478.434,167.999v-6.781h10.406v-26.25l-9.063,5l-2.5-6.219l12.969-6.844h6.406v34.313h8.969v6.781H478.434z"/>
		<path d="M542.659,147.405c0,3.354-0.364,6.354-1.094,9c-0.729,2.646-1.797,4.88-3.203,6.703c-1.406,1.823-3.12,3.214-5.141,4.172
			s-4.333,1.438-6.938,1.438c-2.25,0-4.323-0.396-6.219-1.188s-3.531-2.036-4.906-3.734c-1.375-1.698-2.448-3.87-3.219-6.516
			c-0.771-2.646-1.156-5.813-1.156-9.5c0-3.354,0.37-6.354,1.109-9c0.739-2.646,1.808-4.88,3.203-6.703
			c1.396-1.823,3.114-3.213,5.156-4.172c2.042-0.958,4.354-1.438,6.938-1.438c2.25,0,4.323,0.396,6.219,1.188
			c1.896,0.792,3.526,2.031,4.891,3.719s2.433,3.854,3.203,6.5C542.273,140.52,542.659,143.697,542.659,147.405z M518.472,147.53
			c0,0.417,0,0.808,0,1.172c0,0.365,0.021,0.734,0.063,1.109l15.313-11.063c-0.729-2.063-1.692-3.588-2.891-4.578
			c-1.198-0.989-2.609-1.484-4.234-1.484c-1.167,0-2.25,0.297-3.25,0.891s-1.87,1.505-2.609,2.734
			c-0.739,1.229-1.323,2.771-1.75,4.625C518.686,142.791,518.472,144.989,518.472,147.53z M534.972,147.655
			c0-0.354-0.011-0.713-0.031-1.078c-0.021-0.364-0.031-0.713-0.031-1.047l-15.219,11c0.667,2.021,1.604,3.521,2.813,4.5
			c1.208,0.979,2.614,1.469,4.219,1.469c1.167,0,2.255-0.302,3.266-0.906c1.011-0.604,1.886-1.516,2.625-2.734
			s1.317-2.76,1.734-4.625C534.764,152.369,534.972,150.176,534.972,147.655z"/>
		<path d="M578.103,147.405c0,3.354-0.364,6.354-1.094,9c-0.729,2.646-1.797,4.88-3.203,6.703c-1.406,1.823-3.12,3.214-5.141,4.172
			s-4.333,1.438-6.938,1.438c-2.25,0-4.323-0.396-6.219-1.188s-3.531-2.036-4.906-3.734c-1.375-1.698-2.448-3.87-3.219-6.516
			c-0.771-2.646-1.156-5.813-1.156-9.5c0-3.354,0.37-6.354,1.109-9c0.739-2.646,1.808-4.88,3.203-6.703
			c1.396-1.823,3.114-3.213,5.156-4.172c2.042-0.958,4.354-1.438,6.938-1.438c2.25,0,4.323,0.396,6.219,1.188
			c1.896,0.792,3.526,2.031,4.891,3.719s2.433,3.854,3.203,6.5C577.717,140.52,578.103,143.697,578.103,147.405z M553.915,147.53
			c0,0.417,0,0.808,0,1.172c0,0.365,0.021,0.734,0.063,1.109l15.313-11.063c-0.729-2.063-1.692-3.588-2.891-4.578
			c-1.198-0.989-2.609-1.484-4.234-1.484c-1.167,0-2.25,0.297-3.25,0.891s-1.87,1.505-2.609,2.734
			c-0.739,1.229-1.323,2.771-1.75,4.625C554.129,142.791,553.915,144.989,553.915,147.53z M570.415,147.655
			c0-0.354-0.011-0.713-0.031-1.078c-0.021-0.364-0.031-0.713-0.031-1.047l-15.219,11c0.667,2.021,1.604,3.521,2.813,4.5
			c1.208,0.979,2.614,1.469,4.219,1.469c1.167,0,2.255-0.302,3.266-0.906c1.011-0.604,1.886-1.516,2.625-2.734
			s1.317-2.76,1.734-4.625C570.207,152.369,570.415,150.176,570.415,147.655z"/>
	</g>
	<g>
		<path d="M280.236,248.589l-3.391-5.873l9.013-5.203l-13.125-22.733l-5.349,8.861l-5.274-4.135l7.81-12.411l5.548-3.203
			l17.156,29.715l7.767-4.484l3.391,5.873L280.236,248.589z"/>
		<path d="M325.56,198.643c1.677,2.905,2.861,5.686,3.553,8.341c0.69,2.656,0.884,5.125,0.577,7.407
			c-0.306,2.282-1.095,4.343-2.366,6.183c-1.271,1.841-3.034,3.412-5.289,4.714c-1.949,1.125-3.942,1.819-5.979,2.081
			c-2.038,0.263-4.076,0.002-6.116-0.781c-2.039-0.783-4.055-2.127-6.045-4.034c-1.99-1.905-3.908-4.456-5.752-7.649
			c-1.677-2.905-2.856-5.688-3.539-8.349c-0.682-2.661-0.875-5.13-0.577-7.406c0.297-2.276,1.09-4.34,2.38-6.191
			c1.289-1.851,3.051-3.422,5.289-4.713c1.948-1.125,3.941-1.819,5.979-2.081c2.038-0.262,4.07-0.004,6.096,0.775
			s4.033,2.122,6.023,4.028C321.783,192.873,323.706,195.431,325.56,198.643z M304.675,210.844c0.209,0.361,0.404,0.7,0.586,1.015
			c0.183,0.316,0.385,0.625,0.608,0.93l7.729-17.237c-1.662-1.421-3.26-2.261-4.792-2.52c-1.532-0.258-3.002,0.019-4.409,0.832
			c-1.011,0.583-1.801,1.382-2.369,2.396c-0.569,1.014-0.867,2.239-0.893,3.673c-0.025,1.435,0.239,3.061,0.797,4.88
			C302.49,206.634,303.405,208.644,304.675,210.844z M319.027,202.703c-0.177-0.307-0.366-0.612-0.566-0.918
			c-0.199-0.305-0.384-0.602-0.551-0.891l-7.68,17.136c1.588,1.417,3.15,2.247,4.686,2.491c1.537,0.245,2.999-0.035,4.389-0.837
			c1.01-0.583,1.802-1.389,2.375-2.417c0.573-1.028,0.875-2.255,0.906-3.681c0.031-1.425-0.239-3.049-0.811-4.873
			C321.203,206.89,320.288,204.886,319.027,202.703z"/>
		<path d="M341.626,213.146l-3.391-5.872l9.012-5.203l-13.125-22.733l-5.348,8.861l-5.275-4.136l7.811-12.411l5.547-3.203
			l17.156,29.716l7.768-4.484l3.391,5.872L341.626,213.146z"/>
		<path d="M372.322,195.424l-3.391-5.872l9.012-5.203l-13.125-22.733l-5.349,8.861l-5.274-4.136l7.81-12.411l5.548-3.203
			l17.156,29.716l7.768-4.484l3.391,5.872L372.322,195.424z"/>
	</g>
	<g>
		<path d="M179.582,399.76l-5.872-3.391l5.203-9.012l-22.733-13.125l-0.201,10.349l-6.636-0.944l0.558-14.653l3.203-5.548
			l29.716,17.156l4.484-7.768l5.872,3.391L179.582,399.76z"/>
		<path d="M193.86,333.843c2.904,1.678,5.32,3.493,7.247,5.447c1.927,1.955,3.328,3.997,4.203,6.126
			c0.876,2.129,1.224,4.309,1.043,6.538c-0.181,2.229-0.922,4.472-2.224,6.727c-1.125,1.948-2.505,3.546-4.138,4.792
			c-1.634,1.246-3.529,2.04-5.688,2.382c-2.158,0.341-4.575,0.185-7.252-0.471c-2.677-0.655-5.612-1.905-8.806-3.749
			c-2.904-1.677-5.317-3.497-7.239-5.46c-1.922-1.964-3.322-4.006-4.203-6.126s-1.227-4.304-1.035-6.552
			c0.191-2.247,0.932-4.489,2.224-6.727c1.125-1.948,2.505-3.545,4.138-4.792c1.634-1.245,3.521-2.038,5.666-2.376
			c2.144-0.338,4.555-0.179,7.23,0.477C187.704,330.734,190.648,331.989,193.86,333.843z M181.874,354.853
			c0.361,0.208,0.7,0.403,1.016,0.586c0.315,0.182,0.646,0.35,0.992,0.501l-1.925-18.793c-2.15-0.399-3.954-0.328-5.41,0.215
			c-1.456,0.543-2.59,1.518-3.402,2.925c-0.584,1.011-0.868,2.097-0.854,3.26c0.014,1.163,0.368,2.372,1.063,3.627
			c0.694,1.255,1.737,2.531,3.13,3.828S179.673,353.582,181.874,354.853z M190.232,340.626c-0.307-0.177-0.623-0.348-0.949-0.513
			c-0.326-0.164-0.633-0.329-0.922-0.496l1.917,18.68c2.083,0.434,3.851,0.372,5.303-0.186c1.453-0.557,2.579-1.529,3.382-2.919
			c0.583-1.011,0.866-2.104,0.848-3.281c-0.018-1.177-0.369-2.391-1.056-3.641c-0.686-1.25-1.731-2.521-3.138-3.814
			C194.21,343.163,192.416,341.886,190.232,340.626z"/>
		<path d="M215.025,338.37l-5.872-3.391l5.203-9.013l-22.733-13.125l-0.201,10.349l-6.635-0.944l0.557-14.653l3.203-5.548
			l29.716,17.156l4.484-7.767l5.872,3.391L215.025,338.37z"/>
		<path d="M229.303,272.453c2.905,1.677,5.32,3.493,7.247,5.447c1.927,1.955,3.328,3.996,4.203,6.125
			c0.877,2.13,1.224,4.31,1.043,6.538c-0.181,2.229-0.922,4.472-2.224,6.727c-1.125,1.949-2.505,3.546-4.138,4.792
			c-1.634,1.247-3.529,2.04-5.688,2.382s-4.575,0.186-7.252-0.471c-2.677-0.654-5.611-1.904-8.805-3.748
			c-2.905-1.677-5.318-3.497-7.24-5.461c-1.922-1.963-3.322-4.005-4.203-6.126c-0.881-2.12-1.227-4.303-1.035-6.551
			c0.191-2.247,0.933-4.489,2.225-6.727c1.125-1.949,2.504-3.546,4.137-4.792c1.634-1.246,3.522-2.038,5.666-2.376
			s4.555-0.18,7.23,0.476C223.148,269.344,226.091,270.599,229.303,272.453z M217.318,293.463c0.361,0.208,0.699,0.403,1.015,0.586
			c0.315,0.182,0.646,0.349,0.992,0.5l-1.925-18.792c-2.15-0.399-3.954-0.328-5.41,0.214c-1.455,0.543-2.59,1.518-3.402,2.925
			c-0.584,1.011-0.867,2.098-0.854,3.26c0.014,1.163,0.369,2.373,1.063,3.627c0.694,1.256,1.737,2.532,3.13,3.828
			C213.32,290.908,215.117,292.192,217.318,293.463z M225.675,279.235c-0.307-0.177-0.623-0.347-0.949-0.512
			c-0.325-0.164-0.633-0.33-0.922-0.496l1.917,18.68c2.084,0.433,3.852,0.371,5.304-0.186s2.578-1.53,3.381-2.92
			c0.583-1.01,0.866-2.104,0.848-3.281c-0.018-1.177-0.369-2.391-1.055-3.641c-0.686-1.249-1.732-2.521-3.139-3.814
			C229.654,281.773,227.859,280.496,225.675,279.235z"/>
	</g>
	<g>
		<path d="M167.998,581.005h-6.781v-10.406h-26.25l5,9.063l-6.219,2.5l-6.844-12.969v-6.406h34.313v-8.969h6.781V581.005z"/>
		<path d="M147.404,516.78c3.354,0,6.354,0.365,9,1.094c2.646,0.73,4.88,1.797,6.703,3.203c1.823,1.406,3.214,3.121,4.172,5.141
			c0.958,2.021,1.438,4.334,1.438,6.938c0,2.25-0.396,4.324-1.188,6.219c-0.792,1.896-2.036,3.531-3.734,4.906
			c-1.698,1.375-3.87,2.449-6.516,3.219c-2.646,0.771-5.813,1.156-9.5,1.156c-3.354,0-6.354-0.369-9-1.109
			c-2.646-0.738-4.88-1.807-6.703-3.203c-1.823-1.395-3.213-3.113-4.172-5.156c-0.958-2.041-1.438-4.354-1.438-6.938
			c0-2.25,0.396-4.322,1.188-6.219c0.792-1.895,2.031-3.525,3.719-4.891c1.688-1.363,3.854-2.432,6.5-3.203
			C140.519,517.167,143.696,516.78,147.404,516.78z M147.529,540.968c0.417,0,0.808,0,1.172,0c0.365,0,0.734-0.02,1.109-0.063
			l-11.063-15.313c-2.063,0.73-3.588,1.693-4.578,2.891c-0.989,1.199-1.484,2.609-1.484,4.234c0,1.168,0.297,2.25,0.891,3.25
			s1.505,1.871,2.734,2.609c1.229,0.74,2.771,1.324,4.625,1.75C142.79,540.755,144.988,540.968,147.529,540.968z M147.654,524.468
			c-0.354,0-0.713,0.012-1.078,0.031c-0.364,0.021-0.713,0.031-1.047,0.031l11,15.219c2.021-0.666,3.521-1.604,4.5-2.813
			c0.979-1.207,1.469-2.613,1.469-4.219c0-1.166-0.302-2.254-0.906-3.266c-0.604-1.01-1.516-1.885-2.734-2.625
			c-1.219-0.738-2.76-1.316-4.625-1.734C152.368,524.677,150.175,524.468,147.654,524.468z"/>
		<path d="M147.404,481.337c3.354,0,6.354,0.365,9,1.094c2.646,0.729,4.88,1.797,6.703,3.203c1.823,1.406,3.214,3.12,4.172,5.141
			c0.958,2.021,1.438,4.333,1.438,6.938c0,2.25-0.396,4.323-1.188,6.219c-0.792,1.896-2.036,3.531-3.734,4.906
			c-1.698,1.375-3.87,2.448-6.516,3.219c-2.646,0.771-5.813,1.156-9.5,1.156c-3.354,0-6.354-0.37-9-1.109
			c-2.646-0.739-4.88-1.807-6.703-3.203c-1.823-1.396-3.213-3.114-4.172-5.156c-0.958-2.042-1.438-4.354-1.438-6.938
			c0-2.25,0.396-4.323,1.188-6.219c0.792-1.896,2.031-3.526,3.719-4.891c1.688-1.364,3.854-2.432,6.5-3.203
			C140.519,481.723,143.696,481.337,147.404,481.337z M147.529,505.524c0.417,0,0.808,0,1.172,0c0.365,0,0.734-0.021,1.109-0.063
			l-11.063-15.313c-2.063,0.729-3.588,1.693-4.578,2.891c-0.989,1.198-1.484,2.609-1.484,4.234c0,1.167,0.297,2.25,0.891,3.25
			s1.505,1.87,2.734,2.609c1.229,0.74,2.771,1.323,4.625,1.75C142.79,505.311,144.988,505.524,147.529,505.524z M147.654,489.024
			c-0.354,0-0.713,0.011-1.078,0.031c-0.364,0.021-0.713,0.031-1.047,0.031l11,15.219c2.021-0.667,3.521-1.604,4.5-2.813
			c0.979-1.208,1.469-2.614,1.469-4.219c0-1.167-0.302-2.255-0.906-3.266c-0.604-1.01-1.516-1.885-2.734-2.625
			c-1.219-0.739-2.76-1.317-4.625-1.734C152.368,489.233,150.175,489.024,147.654,489.024z"/>
		<path d="M167.998,474.675h-6.781v-10.406h-26.25l5,9.063l-6.219,2.5l-6.844-12.969v-6.406h34.313v-8.969h6.781V474.675z"/>
	</g>
	<g>
		<path d="M153.48,645.933l5.873-3.391l5.203,9.012l22.733-13.125l-8.861-5.348l4.136-5.275l12.411,7.811l3.203,5.547
			l-29.715,17.156l4.484,7.768l-5.873,3.391L153.48,645.933z"/>
		<path d="M203.427,691.257c-2.905,1.676-5.685,2.861-8.341,3.553s-5.125,0.883-7.406,0.576c-2.282-0.305-4.343-1.094-6.184-2.365
			c-1.84-1.271-3.411-3.033-4.713-5.289c-1.125-1.949-1.819-3.941-2.081-5.98c-0.262-2.037-0.002-4.076,0.781-6.115
			c0.783-2.039,2.127-4.055,4.034-6.045c1.906-1.99,4.456-3.908,7.649-5.752c2.905-1.676,5.688-2.855,8.349-3.539
			c2.661-0.682,5.129-0.875,7.406-0.578c2.276,0.299,4.34,1.092,6.191,2.381c1.85,1.289,3.421,3.051,4.713,5.289
			c1.125,1.947,1.818,3.941,2.081,5.979c0.262,2.037,0.004,4.07-0.775,6.096s-2.122,4.033-4.027,6.023
			C209.197,687.479,206.639,689.401,203.427,691.257z M199.367,684.724c0.307-0.178,0.612-0.365,0.918-0.566
			c0.305-0.199,0.602-0.383,0.891-0.551l-17.136-7.68c-1.417,1.588-2.248,3.15-2.491,4.686c-0.244,1.537,0.035,2.998,0.837,4.389
			c0.583,1.01,1.389,1.801,2.418,2.375c1.028,0.572,2.255,0.875,3.681,0.906c1.425,0.031,3.049-0.24,4.873-0.811
			C195.181,686.899,197.184,685.983,199.367,684.724z M191.225,670.372c-0.361,0.209-0.699,0.404-1.015,0.586
			c-0.316,0.182-0.626,0.385-0.93,0.609l17.237,7.729c1.421-1.662,2.261-3.26,2.52-4.793c0.257-1.531-0.019-3.002-0.832-4.408
			c-0.583-1.012-1.382-1.801-2.396-2.369c-1.014-0.57-2.239-0.867-3.673-0.893s-3.062,0.24-4.88,0.797
			C195.437,668.187,193.426,669.101,191.225,670.372z"/>
		<path d="M221.149,721.952c-2.905,1.676-5.686,2.861-8.342,3.553s-5.124,0.883-7.406,0.576c-2.282-0.305-4.343-1.094-6.184-2.365
			c-1.84-1.271-3.411-3.033-4.713-5.289c-1.125-1.949-1.819-3.941-2.081-5.98c-0.263-2.037-0.003-4.076,0.78-6.115
			s2.128-4.055,4.034-6.045c1.905-1.99,4.455-3.908,7.648-5.752c2.905-1.676,5.688-2.857,8.35-3.539
			c2.66-0.682,5.129-0.875,7.406-0.578c2.276,0.299,4.34,1.092,6.191,2.381c1.85,1.289,3.421,3.051,4.713,5.289
			c1.125,1.947,1.819,3.941,2.081,5.979c0.262,2.037,0.004,4.07-0.775,6.096s-2.122,4.033-4.027,6.023
			C226.919,718.175,224.36,720.097,221.149,721.952z M217.089,715.419c0.307-0.178,0.612-0.365,0.918-0.566
			c0.305-0.199,0.603-0.383,0.892-0.551l-17.136-7.68c-1.417,1.588-2.248,3.15-2.491,4.686c-0.244,1.537,0.035,2.998,0.837,4.389
			c0.583,1.01,1.39,1.801,2.418,2.375c1.028,0.572,2.255,0.875,3.681,0.906c1.425,0.031,3.049-0.24,4.873-0.811
			C212.902,717.595,214.905,716.679,217.089,715.419z M208.947,701.067c-0.361,0.209-0.699,0.404-1.015,0.586
			c-0.316,0.182-0.626,0.385-0.93,0.607l17.236,7.73c1.422-1.662,2.261-3.26,2.52-4.793c0.258-1.531-0.019-3.002-0.831-4.408
			c-0.584-1.012-1.383-1.801-2.396-2.369c-1.015-0.57-2.239-0.867-3.673-0.893c-1.435-0.025-3.062,0.24-4.881,0.797
			S211.148,699.796,208.947,701.067z"/>
		<path d="M238.871,752.646c-2.905,1.678-5.686,2.861-8.342,3.553s-5.124,0.885-7.406,0.578s-4.343-1.096-6.184-2.365
			c-1.84-1.271-3.411-3.035-4.713-5.289c-1.125-1.949-1.819-3.943-2.081-5.98c-0.263-2.037-0.003-4.076,0.78-6.115
			s2.128-4.055,4.034-6.045c1.905-1.992,4.455-3.908,7.648-5.752c2.905-1.678,5.688-2.857,8.35-3.539
			c2.66-0.684,5.129-0.875,7.406-0.578c2.276,0.297,4.34,1.09,6.191,2.379c1.85,1.289,3.421,3.053,4.713,5.289
			c1.125,1.949,1.819,3.943,2.081,5.98c0.262,2.037,0.004,4.068-0.775,6.094s-2.122,4.035-4.027,6.025
			C244.641,748.87,242.082,750.792,238.871,752.646z M234.811,746.114c0.307-0.178,0.612-0.367,0.918-0.566
			c0.305-0.201,0.603-0.383,0.892-0.551l-17.136-7.68c-1.417,1.588-2.248,3.15-2.491,4.686c-0.244,1.535,0.035,2.998,0.837,4.389
			c0.583,1.01,1.39,1.801,2.418,2.375c1.028,0.572,2.255,0.875,3.681,0.906c1.425,0.029,3.049-0.24,4.873-0.811
			C230.624,748.29,232.627,747.374,234.811,746.114z M226.669,731.763c-0.361,0.207-0.699,0.402-1.015,0.586
			c-0.316,0.182-0.626,0.385-0.93,0.607l17.236,7.73c1.422-1.664,2.261-3.26,2.52-4.793c0.258-1.531-0.019-3.002-0.831-4.408
			c-0.584-1.012-1.383-1.801-2.396-2.369c-1.015-0.57-2.239-0.867-3.673-0.893c-1.435-0.027-3.062,0.238-4.881,0.797
			C230.88,729.577,228.87,730.491,226.669,731.763z"/>
	</g>
	<g>
		<path d="M303.704,803.806c-1.677,2.904-3.493,5.32-5.447,7.247c-1.955,1.927-3.996,3.328-6.125,4.203
			c-2.129,0.876-4.309,1.224-6.538,1.043s-4.472-0.922-6.727-2.224c-1.949-1.125-3.546-2.505-4.792-4.138
			c-1.247-1.634-2.04-3.529-2.382-5.688c-0.341-2.158-0.185-4.575,0.471-7.252c0.655-2.677,1.905-5.612,3.749-8.806
			c1.677-2.904,3.497-5.317,5.46-7.239s4.005-3.322,6.125-4.203s4.304-1.227,6.552-1.035c2.247,0.191,4.489,0.932,6.727,2.224
			c1.949,1.125,3.546,2.505,4.792,4.138c1.246,1.634,2.038,3.521,2.376,5.666c0.338,2.144,0.179,4.555-0.476,7.23
			C306.813,797.649,305.558,800.594,303.704,803.806z M296.921,800.178c0.177-0.307,0.347-0.623,0.512-0.949
			c0.164-0.326,0.329-0.633,0.496-0.922l-18.68,1.917c-0.434,2.083-0.371,3.851,0.186,5.303c0.557,1.453,1.53,2.579,2.919,3.382
			c1.01,0.583,2.104,0.866,3.281,0.848c1.177-0.018,2.391-0.369,3.641-1.056c1.25-0.686,2.521-1.731,3.814-3.138
			C294.384,804.156,295.661,802.361,296.921,800.178z M282.694,791.819c-0.208,0.361-0.404,0.7-0.586,1.016
			c-0.183,0.315-0.349,0.646-0.5,0.992l18.792-1.925c0.399-2.15,0.328-3.954-0.214-5.41c-0.543-1.456-1.518-2.59-2.925-3.402
			c-1.011-0.584-2.097-0.868-3.26-0.854c-1.163,0.014-2.373,0.368-3.627,1.063c-1.256,0.694-2.532,1.737-3.828,3.13
			C285.249,787.822,283.965,789.619,282.694,791.819z"/>
		<path d="M299.177,824.971l3.391-5.872l9.012,5.203l13.125-22.733l-10.349-0.201l0.944-6.636l14.653,0.558l5.548,3.203
			l-17.156,29.716l7.767,4.484l-3.391,5.872L299.177,824.971z"/>
		<path d="M329.872,842.693l3.391-5.873l9.012,5.203L355.4,819.29l-10.349-0.201l0.944-6.636l14.653,0.559l5.548,3.203
			l-17.156,29.715l7.767,4.484l-3.391,5.873L329.872,842.693z"/>
		<path d="M360.567,860.414l3.391-5.872l9.012,5.203l13.125-22.733l-10.349-0.201l0.944-6.635l14.653,0.557l5.548,3.203
			l-17.156,29.716l7.767,4.484l-3.391,5.872L360.567,860.414z"/>
	</g>
	<g>
		<path d="M477.511,868.856c0,3.354-0.365,6.354-1.094,9c-0.729,2.646-1.797,4.881-3.203,6.703c-1.406,1.823-3.12,3.214-5.141,4.172
			c-2.021,0.958-4.333,1.438-6.938,1.438c-2.25,0-4.323-0.396-6.219-1.188c-1.896-0.791-3.531-2.036-4.906-3.734
			c-1.375-1.697-2.448-3.869-3.219-6.516c-0.771-2.646-1.156-5.813-1.156-9.5c0-3.354,0.37-6.354,1.109-9
			c0.739-2.646,1.807-4.88,3.203-6.703c1.396-1.822,3.114-3.213,5.156-4.172c2.042-0.958,4.354-1.438,6.938-1.438
			c2.25,0,4.323,0.396,6.219,1.188c1.896,0.792,3.526,2.031,4.891,3.719c1.364,1.688,2.432,3.854,3.203,6.5
			C477.125,861.972,477.511,865.148,477.511,868.856z M453.324,868.981c0,0.417,0,0.808,0,1.172c0,0.365,0.021,0.734,0.063,1.109
			l15.313-11.063c-0.729-2.063-1.693-3.588-2.891-4.578c-1.198-0.989-2.609-1.484-4.234-1.484c-1.167,0-2.25,0.297-3.25,0.891
			s-1.87,1.506-2.609,2.734c-0.74,1.229-1.323,2.771-1.75,4.625C453.537,864.242,453.324,866.44,453.324,868.981z M469.824,869.106
			c0-0.354-0.011-0.713-0.031-1.078c-0.021-0.364-0.031-0.713-0.031-1.047l-15.219,11c0.667,2.021,1.604,3.521,2.813,4.5
			c1.208,0.979,2.614,1.469,4.219,1.469c1.167,0,2.255-0.302,3.266-0.906c1.01-0.604,1.885-1.516,2.625-2.734
			c0.739-1.219,1.317-2.76,1.734-4.625C469.615,873.82,469.824,871.628,469.824,869.106z"/>
		<path d="M484.173,889.45v-6.781h10.406v-26.25l-9.063,5l-2.5-6.219l12.969-6.844h6.406v34.313h8.969v6.781H484.173z"/>
		<path d="M519.617,889.45v-6.781h10.406v-26.25l-9.063,5l-2.5-6.219l12.969-6.844h6.406v34.313h8.969v6.781H519.617z"/>
		<path d="M583.842,868.856c0,3.354-0.365,6.354-1.094,9c-0.729,2.646-1.797,4.881-3.203,6.703c-1.406,1.823-3.12,3.214-5.141,4.172
			c-2.021,0.958-4.334,1.438-6.938,1.438c-2.25,0-4.323-0.396-6.219-1.188c-1.896-0.791-3.531-2.036-4.906-3.734
			c-1.375-1.697-2.448-3.869-3.219-6.516c-0.771-2.646-1.156-5.813-1.156-9.5c0-3.354,0.369-6.354,1.109-9
			c0.739-2.646,1.807-4.88,3.203-6.703c1.396-1.822,3.114-3.213,5.156-4.172c2.041-0.958,4.354-1.438,6.938-1.438
			c2.25,0,4.322,0.396,6.219,1.188c1.896,0.792,3.525,2.031,4.891,3.719c1.364,1.688,2.432,3.854,3.203,6.5
			C583.456,861.972,583.842,865.148,583.842,868.856z M559.654,868.981c0,0.417,0,0.808,0,1.172c0,0.365,0.021,0.734,0.063,1.109
			l15.313-11.063c-0.729-2.063-1.693-3.588-2.891-4.578c-1.198-0.989-2.609-1.484-4.234-1.484c-1.167,0-2.25,0.297-3.25,0.891
			s-1.87,1.506-2.609,2.734c-0.74,1.229-1.323,2.771-1.75,4.625C559.867,864.242,559.654,866.44,559.654,868.981z M576.154,869.106
			c0-0.354-0.011-0.713-0.031-1.078c-0.021-0.364-0.031-0.713-0.031-1.047l-15.219,11c0.666,2.021,1.604,3.521,2.813,4.5
			c1.208,0.979,2.614,1.469,4.219,1.469c1.166,0,2.255-0.302,3.266-0.906c1.01-0.604,1.885-1.516,2.625-2.734
			c0.739-1.219,1.317-2.76,1.734-4.625C575.945,873.82,576.154,871.628,576.154,869.106z"/>
	</g>
	<g>
		<path d="M660.563,838.29c1.678,2.904,2.861,5.685,3.553,8.34c0.691,2.656,0.884,5.125,0.578,7.407
			c-0.307,2.282-1.096,4.343-2.367,6.184c-1.271,1.84-3.033,3.411-5.289,4.714c-1.948,1.125-3.941,1.818-5.979,2.08
			c-2.038,0.263-4.076,0.003-6.117-0.78c-2.039-0.783-4.055-2.128-6.045-4.034c-1.99-1.905-3.907-4.455-5.751-7.648
			c-1.677-2.904-2.857-5.688-3.54-8.35c-0.682-2.66-0.874-5.129-0.576-7.406c0.297-2.275,1.09-4.34,2.379-6.191
			c1.289-1.85,3.052-3.421,5.289-4.713c1.949-1.125,3.941-1.818,5.979-2.081c2.038-0.262,4.069-0.004,6.095,0.775
			s4.033,2.122,6.023,4.027C656.787,832.52,658.71,835.078,660.563,838.29z M639.679,850.491c0.209,0.361,0.404,0.699,0.586,1.016
			c0.183,0.315,0.385,0.625,0.609,0.93l7.729-17.237c-1.663-1.421-3.261-2.261-4.792-2.52c-1.533-0.257-3.002,0.019-4.41,0.831
			c-1.01,0.584-1.8,1.383-2.369,2.396c-0.568,1.015-0.866,2.239-0.893,3.674c-0.025,1.434,0.24,3.061,0.797,4.88
			C637.494,846.28,638.408,848.29,639.679,850.491z M654.03,842.35c-0.177-0.307-0.365-0.612-0.565-0.918
			c-0.2-0.305-0.384-0.603-0.551-0.892l-7.68,17.137c1.588,1.417,3.149,2.247,4.686,2.49c1.536,0.244,2.999-0.035,4.388-0.838
			c1.011-0.583,1.803-1.389,2.375-2.417c0.573-1.028,0.875-2.255,0.906-3.681c0.031-1.425-0.239-3.049-0.811-4.873
			C656.208,846.536,655.291,844.533,654.03,842.35z"/>
		<path d="M676.63,852.793l-3.391-5.872l9.012-5.203l-13.125-22.734l-5.348,8.862l-5.275-4.136l7.811-12.411l5.547-3.203
			l17.156,29.716l7.768-4.484l3.391,5.872L676.63,852.793z"/>
		<path d="M721.954,802.846c1.677,2.905,2.861,5.686,3.553,8.341c0.69,2.656,0.884,5.125,0.577,7.407
			c-0.306,2.282-1.095,4.343-2.366,6.184c-1.271,1.84-3.034,3.411-5.289,4.713c-1.949,1.125-3.942,1.819-5.979,2.081
			c-2.038,0.263-4.076,0.003-6.116-0.78c-2.039-0.783-4.055-2.128-6.045-4.034c-1.99-1.905-3.908-4.455-5.752-7.648
			c-1.677-2.905-2.856-5.688-3.539-8.35c-0.682-2.66-0.875-5.129-0.577-7.406c0.297-2.276,1.09-4.34,2.38-6.191
			c1.289-1.85,3.051-3.422,5.289-4.713c1.948-1.125,3.941-1.818,5.979-2.081c2.038-0.262,4.07-0.004,6.096,0.775
			s4.033,2.122,6.023,4.027C718.177,797.076,720.1,799.635,721.954,802.846z M701.069,815.048c0.209,0.361,0.404,0.699,0.586,1.015
			c0.183,0.316,0.385,0.626,0.608,0.93l7.729-17.236c-1.662-1.422-3.26-2.261-4.792-2.52c-1.532-0.258-3.002,0.019-4.409,0.831
			c-1.011,0.584-1.801,1.383-2.369,2.396c-0.569,1.015-0.867,2.239-0.893,3.673c-0.025,1.435,0.239,3.062,0.797,4.881
			C698.884,810.837,699.799,812.847,701.069,815.048z M715.421,806.906c-0.177-0.307-0.366-0.612-0.566-0.918
			c-0.199-0.306-0.384-0.603-0.551-0.892l-7.68,17.136c1.588,1.417,3.15,2.247,4.686,2.491c1.537,0.244,2.999-0.035,4.389-0.838
			c1.01-0.583,1.802-1.389,2.375-2.417s0.875-2.255,0.906-3.681c0.031-1.425-0.239-3.049-0.811-4.873
			C717.597,811.093,716.682,809.09,715.421,806.906z"/>
		<path d="M738.021,817.35l-3.391-5.873l9.012-5.203l-13.125-22.733l-5.349,8.862l-5.274-4.136l7.81-12.411l5.548-3.203
			l17.156,29.715l7.768-4.484l3.391,5.873L738.021,817.35z"/>
	</g>
	<g>
		<path d="M803.807,720.294c2.904,1.677,5.32,3.492,7.246,5.447c1.928,1.954,3.328,3.996,4.203,6.125
			c0.877,2.129,1.225,4.309,1.043,6.538c-0.18,2.229-0.922,4.472-2.223,6.727c-1.125,1.948-2.506,3.546-4.139,4.792
			s-3.529,2.04-5.688,2.382s-4.574,0.186-7.252-0.47c-2.676-0.656-5.611-1.906-8.805-3.75c-2.904-1.677-5.318-3.496-7.24-5.46
			c-1.922-1.963-3.322-4.005-4.203-6.126c-0.881-2.119-1.227-4.304-1.035-6.551s0.932-4.49,2.225-6.727
			c1.125-1.949,2.504-3.546,4.137-4.793c1.635-1.245,3.521-2.037,5.666-2.375s4.555-0.18,7.23,0.476
			C797.65,717.185,800.594,718.439,803.807,720.294z M791.82,741.304c0.361,0.208,0.699,0.403,1.016,0.586
			c0.314,0.182,0.645,0.349,0.99,0.5l-1.924-18.793c-2.15-0.398-3.953-0.327-5.41,0.215c-1.455,0.543-2.59,1.518-3.402,2.925
			c-0.584,1.011-0.867,2.097-0.854,3.261c0.014,1.162,0.369,2.371,1.064,3.627c0.693,1.255,1.736,2.531,3.129,3.827
			C787.822,738.749,789.619,740.032,791.82,741.304z M800.178,727.076c-0.307-0.177-0.623-0.348-0.949-0.513
			c-0.326-0.163-0.633-0.329-0.922-0.496l1.918,18.68c2.082,0.434,3.85,0.372,5.303-0.186c1.453-0.557,2.578-1.529,3.381-2.919
			c0.584-1.011,0.867-2.104,0.848-3.281c-0.018-1.177-0.369-2.39-1.055-3.64s-1.732-2.521-3.139-3.815
			C804.156,729.614,802.361,728.337,800.178,727.076z"/>
		<path d="M824.971,724.821l-5.871-3.391l5.203-9.013l-22.734-13.125l-0.201,10.349l-6.635-0.944l0.557-14.653l3.203-5.548
			l29.717,17.156l4.484-7.767l5.871,3.391L824.971,724.821z"/>
		<path d="M839.25,658.903c2.904,1.678,5.32,3.493,7.246,5.447c1.928,1.955,3.328,3.996,4.203,6.125
			c0.877,2.13,1.225,4.31,1.043,6.539c-0.18,2.229-0.922,4.471-2.223,6.727c-1.125,1.948-2.506,3.546-4.139,4.791
			c-1.633,1.247-3.529,2.041-5.688,2.383s-4.574,0.185-7.252-0.471c-2.676-0.655-5.611-1.905-8.805-3.749
			c-2.904-1.677-5.318-3.497-7.24-5.46s-3.322-4.006-4.203-6.126s-1.227-4.304-1.035-6.552c0.191-2.246,0.934-4.489,2.225-6.727
			c1.125-1.949,2.504-3.546,4.137-4.792c1.635-1.245,3.523-2.038,5.666-2.376c2.145-0.338,4.555-0.18,7.23,0.477
			C833.094,655.795,836.037,657.05,839.25,658.903z M827.264,679.913c0.361,0.209,0.699,0.404,1.016,0.586
			c0.314,0.183,0.645,0.35,0.99,0.5l-1.924-18.792c-2.15-0.399-3.953-0.328-5.41,0.214c-1.455,0.543-2.59,1.518-3.402,2.926
			c-0.584,1.01-0.867,2.097-0.854,3.26c0.014,1.162,0.369,2.372,1.064,3.627c0.693,1.256,1.736,2.531,3.129,3.828
			S825.063,678.643,827.264,679.913z M835.621,665.687c-0.307-0.178-0.623-0.348-0.949-0.513c-0.324-0.163-0.633-0.329-0.922-0.496
			l1.918,18.68c2.082,0.434,3.852,0.371,5.303-0.186c1.453-0.557,2.578-1.53,3.381-2.919c0.584-1.011,0.867-2.104,0.848-3.281
			c-0.018-1.177-0.369-2.391-1.055-3.641s-1.732-2.521-3.139-3.814S837.805,666.946,835.621,665.687z"/>
		<path d="M856.971,628.208c2.904,1.678,5.32,3.494,7.248,5.447c1.926,1.955,3.328,3.997,4.203,6.126
			c0.875,2.13,1.223,4.31,1.043,6.538c-0.182,2.229-0.922,4.472-2.225,6.727c-1.125,1.949-2.504,3.546-4.137,4.792
			c-1.635,1.246-3.529,2.04-5.688,2.382s-4.576,0.186-7.252-0.471c-2.678-0.654-5.613-1.904-8.807-3.748
			c-2.904-1.678-5.316-3.497-7.238-5.461c-1.922-1.963-3.322-4.005-4.205-6.125c-0.879-2.121-1.225-4.305-1.033-6.553
			c0.191-2.246,0.932-4.488,2.223-6.727c1.125-1.948,2.506-3.545,4.139-4.791s3.521-2.038,5.666-2.377
			c2.143-0.338,4.555-0.179,7.23,0.477S853.76,626.354,856.971,628.208z M844.984,649.218c0.361,0.209,0.701,0.404,1.016,0.586
			c0.316,0.183,0.646,0.35,0.992,0.501l-1.924-18.792c-2.15-0.4-3.955-0.328-5.41,0.214c-1.457,0.543-2.59,1.518-3.402,2.925
			c-0.584,1.011-0.869,2.098-0.854,3.26c0.014,1.163,0.367,2.372,1.063,3.627c0.695,1.256,1.738,2.531,3.131,3.828
			S842.785,647.947,844.984,649.218z M853.344,634.991c-0.307-0.177-0.623-0.348-0.949-0.512s-0.633-0.33-0.922-0.496l1.916,18.68
			c2.084,0.433,3.852,0.371,5.303-0.186c1.453-0.557,2.58-1.53,3.383-2.92c0.582-1.01,0.865-2.104,0.848-3.281
			c-0.018-1.177-0.369-2.391-1.057-3.641c-0.686-1.25-1.73-2.521-3.137-3.814C857.322,637.528,855.527,636.252,853.344,634.991z"/>
	</g>
	<g>
		<path d="M876.592,471.773c-3.354,0-6.354-0.365-9-1.094c-2.646-0.729-4.88-1.797-6.703-3.203c-1.822-1.406-3.213-3.12-4.172-5.141
			c-0.957-2.021-1.438-4.333-1.438-6.938c0-2.25,0.396-4.323,1.188-6.219c0.792-1.896,2.037-3.531,3.734-4.906
			c1.698-1.375,3.87-2.448,6.516-3.219c2.646-0.771,5.813-1.156,9.5-1.156c3.354,0,6.354,0.37,9,1.109
			c2.646,0.739,4.881,1.807,6.703,3.203c1.823,1.396,3.214,3.114,4.172,5.156c0.959,2.042,1.438,4.354,1.438,6.938
			c0,2.25-0.396,4.323-1.188,6.219c-0.791,1.896-2.031,3.526-3.719,4.891c-1.688,1.364-3.854,2.432-6.5,3.203
			C883.478,471.387,880.301,471.773,876.592,471.773z M876.342,464.085c0.354,0,0.714-0.011,1.078-0.031
			c0.365-0.021,0.714-0.031,1.047-0.031l-11-15.219c-2.021,0.667-3.521,1.604-4.5,2.813c-0.979,1.208-1.469,2.614-1.469,4.219
			c0,1.167,0.303,2.255,0.906,3.266c0.604,1.01,1.516,1.885,2.734,2.625c1.219,0.739,2.761,1.317,4.625,1.734
			C871.629,463.877,873.821,464.085,876.342,464.085z M876.467,447.585c-0.416,0-0.807,0-1.172,0c-0.364,0-0.734,0.021-1.109,0.063
			l11.063,15.313c2.063-0.729,3.589-1.693,4.578-2.891c0.99-1.198,1.484-2.609,1.484-4.234c0-1.167-0.297-2.25-0.891-3.25
			s-1.505-1.87-2.734-2.609c-1.229-0.74-2.771-1.323-4.625-1.75C881.207,447.799,879.009,447.585,876.467,447.585z"/>
		<path d="M876.592,507.216c-3.354,0-6.354-0.365-9-1.094c-2.646-0.729-4.88-1.797-6.703-3.203c-1.822-1.406-3.213-3.12-4.172-5.141
			c-0.957-2.021-1.438-4.333-1.438-6.938c0-2.25,0.396-4.323,1.188-6.219c0.792-1.896,2.037-3.531,3.734-4.906
			c1.698-1.375,3.87-2.448,6.516-3.219c2.646-0.771,5.813-1.156,9.5-1.156c3.354,0,6.354,0.37,9,1.109
			c2.646,0.739,4.881,1.807,6.703,3.203c1.823,1.396,3.214,3.114,4.172,5.156c0.959,2.042,1.438,4.354,1.438,6.938
			c0,2.25-0.396,4.323-1.188,6.219c-0.791,1.896-2.031,3.526-3.719,4.891c-1.688,1.364-3.854,2.432-6.5,3.203
			C883.478,506.831,880.301,507.216,876.592,507.216z M876.342,499.529c0.354,0,0.714-0.011,1.078-0.031
			c0.365-0.021,0.714-0.031,1.047-0.031l-11-15.219c-2.021,0.667-3.521,1.604-4.5,2.813c-0.979,1.208-1.469,2.614-1.469,4.219
			c0,1.167,0.303,2.255,0.906,3.266c0.604,1.01,1.516,1.885,2.734,2.625c1.219,0.739,2.761,1.317,4.625,1.734
			C871.629,499.32,873.821,499.529,876.342,499.529z M876.467,483.029c-0.416,0-0.807,0-1.172,0c-0.364,0-0.734,0.021-1.109,0.063
			l11.063,15.313c2.063-0.729,3.589-1.693,4.578-2.891c0.99-1.198,1.484-2.609,1.484-4.234c0-1.167-0.297-2.25-0.891-3.25
			s-1.505-1.87-2.734-2.609c-1.229-0.74-2.771-1.323-4.625-1.75C881.207,483.242,879.009,483.029,876.467,483.029z"/>
		<path d="M855.998,513.879h6.781v10.406h26.25l-5-9.063l6.219-2.5l6.844,12.969v6.406h-34.313v8.969h-6.781V513.879z"/>
		<path d="M855.998,549.322h6.781v10.406h26.25l-5-9.063l6.219-2.5l6.844,12.969v6.406h-34.313v8.969h-6.781V549.322z"/>
	</g>
	<g>
		<path d="M807.633,294.866c-2.905,1.677-5.686,2.861-8.342,3.553c-2.656,0.69-5.125,0.884-7.406,0.577
			c-2.282-0.306-4.344-1.095-6.184-2.366s-3.411-3.034-4.713-5.289c-1.125-1.949-1.819-3.942-2.082-5.979
			c-0.262-2.038-0.002-4.076,0.781-6.116c0.783-2.039,2.127-4.055,4.033-6.045s4.456-3.908,7.649-5.752
			c2.905-1.677,5.688-2.856,8.349-3.539c2.661-0.682,5.13-0.875,7.406-0.577c2.277,0.297,4.341,1.09,6.191,2.38
			c1.851,1.289,3.422,3.051,4.714,5.289c1.125,1.948,1.818,3.941,2.081,5.979c0.262,2.038,0.004,4.07-0.775,6.096
			s-2.122,4.033-4.027,6.023C813.402,291.089,810.844,293.012,807.633,294.866z M803.572,288.333
			c0.307-0.177,0.612-0.366,0.918-0.566c0.305-0.199,0.602-0.384,0.891-0.551l-17.135-7.68c-1.418,1.588-2.248,3.15-2.491,4.686
			c-0.245,1.537,0.035,2.999,0.837,4.389c0.584,1.01,1.389,1.802,2.418,2.375c1.028,0.573,2.255,0.875,3.681,0.906
			c1.425,0.031,3.049-0.239,4.872-0.811S801.389,289.594,803.572,288.333z M795.43,273.981c-0.36,0.209-0.699,0.404-1.014,0.586
			c-0.316,0.183-0.627,0.385-0.93,0.608l17.236,7.729c1.422-1.662,2.261-3.26,2.52-4.792c0.258-1.532-0.02-3.002-0.832-4.409
			c-0.583-1.011-1.382-1.801-2.396-2.369c-1.014-0.569-2.238-0.867-3.672-0.893c-1.435-0.025-3.062,0.239-4.881,0.797
			C799.642,271.796,797.631,272.711,795.43,273.981z"/>
		<path d="M825.354,325.561c-2.904,1.677-5.685,2.861-8.34,3.553c-2.656,0.691-5.125,0.884-7.407,0.577
			c-2.282-0.306-4.343-1.095-6.184-2.365c-1.84-1.271-3.411-3.034-4.714-5.289c-1.125-1.949-1.818-3.942-2.08-5.98
			c-0.263-2.037-0.003-4.076,0.78-6.115c0.783-2.04,2.128-4.056,4.034-6.045c1.905-1.991,4.455-3.908,7.648-5.752
			c2.904-1.677,5.688-2.857,8.35-3.539c2.66-0.683,5.129-0.875,7.406-0.578c2.275,0.298,4.34,1.091,6.191,2.38
			c1.85,1.289,3.421,3.052,4.713,5.289c1.125,1.948,1.818,3.941,2.081,5.979c0.262,2.037,0.004,4.069-0.775,6.095
			s-2.122,4.034-4.027,6.024C831.124,321.784,828.565,323.706,825.354,325.561z M821.294,319.028
			c0.307-0.178,0.612-0.366,0.918-0.566c0.305-0.2,0.603-0.384,0.892-0.551l-17.137-7.68c-1.417,1.588-2.247,3.149-2.49,4.686
			c-0.244,1.536,0.035,2.998,0.838,4.389c0.583,1.01,1.389,1.801,2.417,2.375c1.028,0.572,2.255,0.875,3.681,0.906
			c1.425,0.03,3.049-0.24,4.873-0.811C817.107,321.204,819.11,320.288,821.294,319.028z M813.152,304.677
			c-0.361,0.208-0.699,0.403-1.016,0.586c-0.315,0.182-0.625,0.385-0.93,0.607l17.237,7.73c1.421-1.663,2.261-3.26,2.52-4.793
			c0.257-1.531-0.019-3.002-0.831-4.408c-0.584-1.012-1.383-1.801-2.396-2.369c-1.015-0.57-2.239-0.867-3.674-0.893
			c-1.434-0.026-3.061,0.239-4.88,0.797C817.363,302.491,815.354,303.405,813.152,304.677z"/>
		<path d="M810.851,341.628l5.873-3.391l5.203,9.012l22.733-13.125l-8.862-5.349l4.136-5.274l12.411,7.81l3.203,5.548
			l-29.715,17.156l4.484,7.768l-5.873,3.391L810.851,341.628z"/>
		<path d="M860.798,386.95c-2.905,1.678-5.686,2.861-8.341,3.553c-2.656,0.691-5.125,0.885-7.407,0.578s-4.343-1.096-6.184-2.366
			c-1.84-1.271-3.411-3.034-4.713-5.289c-1.125-1.948-1.819-3.942-2.081-5.979c-0.263-2.037-0.003-4.076,0.78-6.116
			c0.783-2.039,2.128-4.055,4.034-6.045c1.905-1.991,4.455-3.907,7.648-5.751c2.905-1.678,5.688-2.857,8.35-3.54
			c2.66-0.683,5.129-0.874,7.406-0.577c2.276,0.297,4.34,1.09,6.191,2.379c1.85,1.289,3.422,3.053,4.713,5.289
			c1.125,1.949,1.818,3.942,2.081,5.98c0.262,2.037,0.004,4.068-0.775,6.094s-2.122,4.034-4.027,6.024
			C866.567,383.174,864.009,385.097,860.798,386.95z M856.737,380.418c0.307-0.177,0.612-0.366,0.918-0.565
			c0.306-0.201,0.603-0.385,0.892-0.551l-17.136-7.68c-1.417,1.587-2.247,3.149-2.491,4.686c-0.244,1.535,0.035,2.998,0.838,4.388
			c0.583,1.011,1.389,1.802,2.417,2.375s2.255,0.875,3.681,0.906c1.425,0.03,3.049-0.239,4.873-0.811
			C852.551,382.595,854.554,381.679,856.737,380.418z M848.596,366.066c-0.361,0.208-0.699,0.403-1.015,0.586
			c-0.316,0.183-0.626,0.385-0.93,0.608l17.236,7.73c1.422-1.664,2.261-3.261,2.52-4.793c0.258-1.532-0.019-3.002-0.831-4.409
			c-0.584-1.011-1.383-1.8-2.396-2.369c-1.015-0.569-2.239-0.867-3.673-0.893c-1.435-0.026-3.062,0.239-4.881,0.797
			S850.797,364.796,848.596,366.066z"/>
	</g>
	<g>
		<path d="M659.458,176.139c-1.677,2.904-3.493,5.32-5.447,7.247s-3.996,3.328-6.125,4.203c-2.13,0.876-4.31,1.224-6.538,1.043
			c-2.229-0.181-4.472-0.922-6.727-2.224c-1.949-1.125-3.547-2.505-4.792-4.138c-1.247-1.634-2.04-3.529-2.382-5.688
			s-0.186-4.575,0.471-7.252c0.654-2.677,1.904-5.612,3.748-8.806c1.678-2.904,3.497-5.317,5.461-7.239
			c1.963-1.922,4.005-3.322,6.126-4.203c2.12-0.881,4.304-1.227,6.551-1.035s4.489,0.932,6.727,2.224
			c1.949,1.125,3.546,2.505,4.792,4.138c1.246,1.634,2.038,3.522,2.376,5.666s0.18,4.555-0.476,7.23
			C662.566,169.982,661.313,172.927,659.458,176.139z M652.676,172.511c0.177-0.307,0.348-0.623,0.512-0.949s0.33-0.633,0.496-0.922
			l-18.68,1.917c-0.434,2.083-0.371,3.851,0.186,5.303c0.557,1.453,1.53,2.579,2.92,3.382c1.01,0.583,2.104,0.866,3.281,0.848
			c1.177-0.018,2.391-0.369,3.641-1.056c1.249-0.686,2.521-1.731,3.814-3.138C650.139,176.489,651.415,174.694,652.676,172.511z
			 M638.449,164.153c-0.209,0.36-0.404,0.699-0.586,1.015c-0.183,0.315-0.35,0.646-0.501,0.992l18.792-1.925
			c0.399-2.15,0.328-3.953-0.214-5.41c-0.543-1.455-1.518-2.59-2.925-3.402c-1.011-0.584-2.098-0.868-3.26-0.854
			c-1.163,0.014-2.373,0.368-3.627,1.063c-1.256,0.694-2.531,1.737-3.828,3.13C641.003,160.155,639.72,161.952,638.449,164.153z"/>
		<path d="M690.153,193.86c-1.678,2.904-3.493,5.32-5.447,7.247c-1.955,1.927-3.997,3.328-6.126,4.203
			c-2.129,0.876-4.309,1.224-6.537,1.043c-2.229-0.181-4.472-0.922-6.728-2.224c-1.948-1.125-3.546-2.505-4.792-4.138
			c-1.246-1.634-2.04-3.529-2.382-5.688c-0.341-2.158-0.185-4.575,0.471-7.252s1.905-5.612,3.749-8.806
			c1.677-2.904,3.496-5.318,5.461-7.239c1.963-1.922,4.005-3.323,6.125-4.203c2.12-0.881,4.304-1.227,6.552-1.035
			c2.247,0.19,4.489,0.933,6.727,2.224c1.948,1.125,3.546,2.504,4.792,4.138c1.245,1.634,2.038,3.522,2.376,5.666
			s0.179,4.554-0.477,7.23S692.007,190.648,690.153,193.86z M683.37,190.232c0.177-0.307,0.348-0.623,0.513-0.949
			c0.164-0.325,0.329-0.633,0.496-0.922l-18.68,1.917c-0.434,2.084-0.371,3.852,0.186,5.303c0.557,1.453,1.529,2.579,2.919,3.382
			c1.011,0.583,2.104,0.866,3.281,0.848c1.177-0.018,2.391-0.37,3.641-1.056s2.521-1.731,3.814-3.138
			C680.833,194.211,682.109,192.416,683.37,190.232z M669.144,181.875c-0.208,0.36-0.403,0.699-0.586,1.015s-0.35,0.646-0.501,0.992
			l18.793-1.925c0.399-2.15,0.328-3.954-0.215-5.41c-0.543-1.455-1.518-2.59-2.925-3.402c-1.011-0.584-2.097-0.868-3.26-0.854
			c-1.163,0.014-2.372,0.368-3.627,1.063c-1.255,0.694-2.531,1.737-3.828,3.13S670.414,179.674,669.144,181.875z"/>
		<path d="M720.849,211.582c-1.678,2.905-3.493,5.32-5.447,7.247c-1.955,1.927-3.997,3.328-6.126,4.203
			c-2.129,0.877-4.309,1.224-6.538,1.043c-2.229-0.181-4.472-0.922-6.727-2.224c-1.948-1.125-3.546-2.505-4.792-4.138
			c-1.246-1.634-2.04-3.529-2.382-5.688c-0.341-2.158-0.185-4.575,0.471-7.252s1.905-5.611,3.749-8.805
			c1.677-2.905,3.496-5.318,5.46-7.24s4.006-3.322,6.126-4.203s4.304-1.227,6.552-1.035c2.247,0.191,4.489,0.933,6.727,2.225
			c1.948,1.125,3.546,2.504,4.792,4.137c1.245,1.635,2.038,3.522,2.376,5.666c0.338,2.145,0.179,4.555-0.477,7.23
			C723.957,205.427,722.702,208.37,720.849,211.582z M714.065,207.954c0.177-0.307,0.348-0.623,0.513-0.949
			c0.164-0.325,0.329-0.633,0.496-0.922L696.395,208c-0.434,2.084-0.371,3.852,0.186,5.304s1.529,2.578,2.919,3.381
			c1.011,0.583,2.104,0.866,3.281,0.848c1.177-0.018,2.391-0.369,3.641-1.055s2.521-1.732,3.814-3.139
			C711.528,211.933,712.805,210.138,714.065,207.954z M699.839,199.597c-0.208,0.361-0.403,0.699-0.586,1.015
			s-0.35,0.646-0.501,0.992l18.793-1.925c0.399-2.15,0.328-3.953-0.215-5.41c-0.543-1.455-1.518-2.59-2.925-3.402
			c-1.011-0.584-2.097-0.867-3.26-0.854s-2.372,0.369-3.627,1.063s-2.531,1.737-3.828,3.13S701.109,197.396,699.839,199.597z"/>
		<path d="M716.321,232.747l3.391-5.872l9.012,5.203l13.125-22.733l-10.349-0.201l0.944-6.635l14.653,0.557l5.548,3.203
			l-17.156,29.716l7.768,4.484l-3.391,5.872L716.321,232.747z"/>
	</g>
	<circle cx="511.998" cy="511.999" r="317"/>
	<g>
		<path fill="#FFFFFF" d="M506.867,236.721c0,3.599-0.392,6.817-1.173,9.655c-0.783,2.839-1.928,5.236-3.437,7.191
			c-1.509,1.956-3.347,3.448-5.515,4.476c-2.168,1.028-4.649,1.542-7.443,1.542c-2.414,0-4.638-0.425-6.671-1.274
			c-2.034-0.849-3.789-2.184-5.264-4.006c-1.475-1.821-2.626-4.151-3.453-6.99c-0.827-2.838-1.24-6.236-1.24-10.192
			c0-3.598,0.396-6.816,1.19-9.655c0.793-2.838,1.939-5.235,3.437-7.191c1.497-1.956,3.341-3.447,5.532-4.476
			c2.19-1.028,4.671-1.542,7.442-1.542c2.414,0,4.638,0.425,6.672,1.274c2.033,0.85,3.782,2.179,5.247,3.99
			c1.463,1.811,2.609,4.135,3.436,6.973C506.453,229.335,506.867,232.743,506.867,236.721z M480.918,236.855
			c0,0.447,0,0.866,0,1.257s0.022,0.788,0.067,1.19l16.427-11.868c-0.783-2.213-1.816-3.85-3.101-4.912
			c-1.286-1.062-2.799-1.592-4.543-1.592c-1.252,0-2.414,0.318-3.486,0.955c-1.073,0.637-2.006,1.615-2.799,2.934
			c-0.794,1.319-1.42,2.973-1.877,4.962C481.147,231.771,480.918,234.129,480.918,236.855z M498.62,236.99
			c0-0.38-0.011-0.766-0.033-1.157c-0.022-0.391-0.034-0.766-0.034-1.123l-16.327,11.801c0.715,2.168,1.721,3.777,3.017,4.828
			c1.296,1.051,2.805,1.576,4.526,1.576c1.251,0,2.419-0.324,3.503-0.972c1.084-0.648,2.022-1.626,2.816-2.934
			c0.793-1.308,1.413-2.961,1.86-4.962C498.396,242.046,498.62,239.694,498.62,236.99z"/>
		<path fill="#FFFFFF" d="M544.891,236.721c0,3.599-0.391,6.817-1.173,9.655c-0.783,2.839-1.928,5.236-3.437,7.191
			c-1.509,1.956-3.348,3.448-5.515,4.476c-2.168,1.028-4.649,1.542-7.442,1.542c-2.414,0-4.639-0.425-6.672-1.274
			c-2.034-0.849-3.788-2.184-5.264-4.006c-1.475-1.821-2.626-4.151-3.453-6.99c-0.827-2.838-1.24-6.236-1.24-10.192
			c0-3.598,0.396-6.816,1.19-9.655c0.793-2.838,1.939-5.235,3.436-7.191c1.498-1.956,3.342-3.447,5.532-4.476
			c2.19-1.028,4.671-1.542,7.442-1.542c2.414,0,4.638,0.425,6.672,1.274c2.033,0.85,3.782,2.179,5.246,3.99s2.609,4.135,3.437,6.973
			C544.478,229.335,544.891,232.743,544.891,236.721z M518.942,236.855c0,0.447,0,0.866,0,1.257s0.022,0.788,0.067,1.19
			l16.427-11.868c-0.782-2.213-1.815-3.85-3.101-4.912c-1.285-1.062-2.8-1.592-4.543-1.592c-1.252,0-2.414,0.318-3.486,0.955
			c-1.073,0.637-2.007,1.615-2.8,2.934c-0.793,1.319-1.419,2.973-1.877,4.962S518.942,234.129,518.942,236.855z M536.644,236.99
			c0-0.38-0.012-0.766-0.033-1.157c-0.022-0.391-0.033-0.766-0.033-1.123l-16.327,11.801c0.715,2.168,1.721,3.777,3.018,4.828
			c1.296,1.051,2.805,1.576,4.525,1.576c1.252,0,2.419-0.324,3.504-0.972c1.083-0.648,2.022-1.626,2.815-2.934
			s1.414-2.961,1.861-4.962C536.42,242.046,536.644,239.694,536.644,236.99z"/>
	</g>
	<g>
		<path fill="#FFFFFF" d="M645.193,271.036c-1.8,3.117-3.748,5.708-5.845,7.775c-2.096,2.067-4.286,3.57-6.569,4.51
			c-2.285,0.939-4.624,1.312-7.016,1.118c-2.391-0.194-4.797-0.989-7.217-2.386c-2.09-1.207-3.804-2.687-5.14-4.439
			c-1.337-1.752-2.189-3.786-2.555-6.101c-0.368-2.315-0.2-4.909,0.504-7.78c0.703-2.872,2.044-6.021,4.021-9.447
			c1.799-3.116,3.752-5.704,5.857-7.766c2.106-2.062,4.297-3.565,6.572-4.509c2.274-0.945,4.616-1.315,7.028-1.111
			c2.41,0.206,4.816,1,7.217,2.386c2.09,1.207,3.804,2.687,5.141,4.438c1.337,1.753,2.187,3.779,2.549,6.079
			c0.363,2.3,0.192,4.886-0.511,7.757C648.528,264.432,647.183,267.591,645.193,271.036z M637.918,267.145
			c0.189-0.328,0.371-0.668,0.548-1.019c0.176-0.35,0.354-0.679,0.533-0.989l-20.04,2.057c-0.464,2.235-0.397,4.132,0.199,5.689
			s1.641,2.767,3.132,3.628c1.083,0.625,2.257,0.929,3.52,0.909c1.264-0.019,2.565-0.396,3.906-1.132
			c1.34-0.736,2.704-1.858,4.092-3.367C635.194,271.413,636.565,269.487,637.918,267.145z M622.654,258.178
			c-0.224,0.387-0.433,0.75-0.628,1.088c-0.196,0.339-0.376,0.693-0.538,1.064l20.161-2.064c0.429-2.308,0.352-4.242-0.23-5.804
			c-0.582-1.562-1.627-2.779-3.137-3.65c-1.084-0.626-2.251-0.931-3.499-0.916c-1.247,0.016-2.545,0.396-3.891,1.141
			c-1.347,0.746-2.716,1.865-4.106,3.358C625.395,253.89,624.018,255.817,622.654,258.178z"/>
		<path fill="#FFFFFF" d="M672.139,295.923c-1.173,2.032-2.643,3.591-4.404,4.677c-1.763,1.086-3.711,1.735-5.847,1.947
			s-4.392,0.007-6.767-0.617c-2.376-0.623-4.765-1.627-7.165-3.013c-0.6-0.346-1.226-0.734-1.882-1.164
			c-0.656-0.431-1.314-0.875-1.978-1.335c-0.664-0.46-1.3-0.924-1.907-1.392c-0.607-0.467-1.164-0.91-1.67-1.332l3.57-6.184
			c0.947,0.908,2.09,1.858,3.428,2.85c1.336,0.991,2.75,1.917,4.24,2.777c2.903,1.676,5.437,2.397,7.599,2.161
			s3.813-1.341,4.953-3.315c1.185-2.051,1.357-3.984,0.521-5.796c-0.838-1.813-2.834-3.63-5.989-5.451l-7.433-4.292l11.65-20.178
			l21.892,12.639l-3.855,6.678l-15.271-8.817l-4.459,7.723l2.729,1.576c1.935,1.117,3.683,2.359,5.243,3.724
			c1.56,1.365,2.764,2.867,3.611,4.505c0.849,1.638,1.249,3.425,1.204,5.359C674.105,291.587,673.436,293.677,672.139,295.923z"/>
	</g>
	<g>
		<path fill="#FFFFFF" d="M747.83,369.916c-3.117,1.799-6.1,3.069-8.949,3.811c-2.85,0.742-5.498,0.948-7.945,0.62
			c-2.448-0.329-4.66-1.174-6.634-2.539c-1.974-1.364-3.659-3.254-5.057-5.674c-1.207-2.091-1.951-4.229-2.232-6.415
			c-0.281-2.186-0.003-4.373,0.838-6.561c0.84-2.188,2.282-4.351,4.327-6.485c2.044-2.135,4.779-4.193,8.205-6.171
			c3.117-1.799,6.103-3.063,8.957-3.796c2.854-0.732,5.504-0.938,7.946-0.619c2.442,0.318,4.656,1.168,6.642,2.552
			c1.985,1.382,3.672,3.274,5.057,5.675c1.207,2.09,1.951,4.228,2.232,6.414c0.281,2.187,0.005,4.366-0.831,6.54
			c-0.836,2.173-2.276,4.327-4.321,6.462S751.275,367.927,747.83,369.916z M743.475,362.907c0.328-0.19,0.656-0.393,0.984-0.607
			c0.327-0.215,0.646-0.411,0.955-0.59l-18.383-8.239c-1.52,1.703-2.41,3.379-2.672,5.027c-0.263,1.647,0.037,3.217,0.898,4.708
			c0.625,1.083,1.49,1.933,2.594,2.547c1.103,0.615,2.419,0.939,3.948,0.973c1.528,0.033,3.271-0.257,5.228-0.871
			C738.982,365.242,741.132,364.26,743.475,362.907z M734.739,347.511c-0.387,0.224-0.75,0.433-1.089,0.628
			c-0.338,0.196-0.671,0.413-0.997,0.653l18.492,8.292c1.524-1.785,2.425-3.498,2.702-5.142c0.276-1.643-0.021-3.22-0.892-4.729
			c-0.626-1.085-1.483-1.932-2.571-2.543c-1.088-0.61-2.401-0.93-3.939-0.957c-1.54-0.028-3.285,0.257-5.236,0.855
			C739.257,345.166,737.101,346.148,734.739,347.511z"/>
		<path fill="#FFFFFF" d="M743.971,407.417l6.284-6.415l-7.645-13.239l-8.73,2.176l-4.091-7.085l44.435-10.672l5.767,9.987
			l-31.46,33.145L743.971,407.417z M769.971,380.909l-20.535,5.198l5.732,9.929L769.971,380.909z"/>
	</g>
	<g>
		<path fill="#FFFFFF" d="M787.275,506.867c-3.599,0-6.816-0.392-9.655-1.173c-2.838-0.783-5.235-1.928-7.19-3.437
			c-1.956-1.509-3.448-3.347-4.476-5.515c-1.028-2.168-1.543-4.649-1.543-7.443c0-2.414,0.425-4.638,1.274-6.671
			c0.849-2.034,2.185-3.789,4.006-5.264s4.151-2.626,6.99-3.453c2.838-0.827,6.235-1.24,10.191-1.24c3.599,0,6.817,0.396,9.655,1.19
			c2.839,0.793,5.235,1.939,7.191,3.437c1.955,1.497,3.447,3.341,4.476,5.532c1.028,2.19,1.542,4.671,1.542,7.442
			c0,2.414-0.425,4.638-1.273,6.672c-0.85,2.033-2.18,3.782-3.989,5.247c-1.811,1.463-4.136,2.609-6.974,3.436
			C794.662,506.453,791.254,506.867,787.275,506.867z M787.008,498.62c0.38,0,0.765-0.011,1.156-0.033
			c0.391-0.022,0.766-0.034,1.123-0.034l-11.801-16.327c-2.168,0.715-3.777,1.721-4.827,3.017c-1.051,1.296-1.576,2.805-1.576,4.526
			c0,1.251,0.324,2.419,0.973,3.503c0.647,1.084,1.626,2.022,2.933,2.816c1.308,0.793,2.962,1.413,4.962,1.86
			C781.95,498.396,784.303,498.62,787.008,498.62z M787.142,480.918c-0.447,0-0.866,0-1.257,0c-0.392,0-0.788,0.022-1.19,0.067
			l11.868,16.427c2.212-0.783,3.85-1.816,4.911-3.101c1.062-1.286,1.593-2.799,1.593-4.543c0-1.252-0.318-2.414-0.956-3.486
			c-0.637-1.073-1.614-2.006-2.934-2.799c-1.318-0.794-2.973-1.42-4.961-1.877C792.226,481.147,789.868,480.918,787.142,480.918z"/>
		<path fill="#FFFFFF" d="M802.026,523.469h-12.136v16.562h-6.772v-16.562h-17.936v-8.382H809v25.882h-6.974V523.469z"/>
	</g>
	<g>
		<path fill="#FFFFFF" d="M747.419,682.385l-6.301-3.638l5.582-9.668l-24.389-14.08l-0.216,11.102l-7.117-1.013l0.598-15.721
			l3.436-5.952l31.879,18.405l4.812-8.332l6.301,3.638L747.419,682.385z"/>
		<path fill="#FFFFFF" d="M770.994,623.715l7.724,4.459l-3.989,6.909l-7.724-4.459l-10.191,17.653l-6.067-3.503l-15.607-28.754
			l5.632-9.756l23.981,13.846l3.319-5.748l6.242,3.604L770.994,623.715z M743.684,617.044l10.894,20.69l6.235-10.801
			L743.684,617.044z"/>
	</g>
	<g>
		<path fill="#FFFFFF" d="M630.684,777.267l-3.638-6.3l9.668-5.582l-14.08-24.389l-5.738,9.507l-5.657-4.437l8.377-13.314
			l5.952-3.437l18.405,31.879l8.332-4.811l3.638,6.3L630.684,777.267z"/>
		<path fill="#FFFFFF" d="M676.619,722.448c1.721,2.98,2.969,5.725,3.746,8.231c0.775,2.507,1.156,4.81,1.143,6.907
			c-0.014,2.1-0.369,4.021-1.065,5.766c-0.696,1.743-1.657,3.355-2.879,4.836c-1.224,1.48-2.658,2.838-4.308,4.073
			c-1.647,1.235-3.42,2.4-5.316,3.495l-4.385,2.531l-3.503-6.067l5.168-2.983c2.265-1.308,4.042-2.598,5.332-3.873
			c1.29-1.273,2.185-2.563,2.683-3.87c0.496-1.307,0.644-2.662,0.438-4.067c-0.204-1.403-0.659-2.896-1.365-4.477l-0.36-0.76
			c-0.747,1.077-1.688,2.15-2.826,3.219c-1.138,1.071-2.374,1.99-3.709,2.762c-1.84,1.062-3.637,1.815-5.393,2.261
			c-1.755,0.446-3.448,0.521-5.078,0.222c-1.63-0.296-3.173-1.012-4.627-2.147c-1.455-1.133-2.786-2.746-3.993-4.837
			c-1.095-1.896-1.749-3.822-1.961-5.776c-0.213-1.955-0.023-3.84,0.569-5.653c0.592-1.812,1.559-3.513,2.9-5.1
			c1.342-1.588,3.019-2.962,5.032-4.125c1.974-1.14,3.96-1.912,5.958-2.317c1.999-0.405,4.001-0.29,6.007,0.345
			c2.006,0.637,3.995,1.869,5.967,3.698C672.767,716.569,674.708,719.138,676.619,722.448z M655.949,719.167
			c-0.929,0.537-1.681,1.178-2.257,1.924c-0.576,0.745-0.968,1.553-1.177,2.421c-0.209,0.869-0.231,1.778-0.068,2.73
			c0.162,0.951,0.522,1.911,1.081,2.879c1.185,2.052,2.606,3.264,4.267,3.634c1.659,0.371,3.446,0.003,5.363-1.104
			c0.522-0.301,1.051-0.67,1.585-1.109c0.534-0.436,1.047-0.912,1.537-1.428c0.489-0.516,0.936-1.037,1.34-1.567
			c0.403-0.53,0.736-1.037,0.997-1.524c-0.994-1.723-1.982-3.178-2.965-4.365c-0.982-1.188-1.99-2.083-3.023-2.688
			c-1.032-0.604-2.1-0.897-3.199-0.881C658.329,718.104,657.169,718.464,655.949,719.167z"/>
	</g>
	<g>
		<path fill="#FFFFFF" d="M482.146,801.071v-7.275h11.164v-28.161l-9.722,5.364l-2.682-6.671l13.913-7.343h6.873v36.811h9.622v7.275
			H482.146z"/>
		<path fill="#FFFFFF" d="M521.243,801.071v-43.817h26.384v6.974h-18.003v10.896h17.165v6.806h-17.165v12.169h18.003v6.974H521.243z
			"/>
	</g>
	<g>
		<path fill="#FFFFFF" d="M340.943,747.029l3.017-5.226l14.15-3.793c2.657-0.711,4.845-1.384,6.564-2.017
			c1.721-0.632,3.133-1.269,4.238-1.908s1.979-1.315,2.623-2.027c0.644-0.713,1.217-1.504,1.72-2.375
			c0.413-0.716,0.69-1.466,0.833-2.248c0.142-0.783,0.127-1.54-0.044-2.271s-0.514-1.433-1.03-2.104
			c-0.517-0.672-1.209-1.259-2.08-1.762c-1.49-0.86-3.062-1.335-4.713-1.425c-1.652-0.089-3.362,0.079-5.13,0.503l-0.962-6.981
			c2.527-0.579,5.088-0.733,7.68-0.463c2.591,0.271,5.088,1.1,7.489,2.485c1.857,1.072,3.405,2.282,4.641,3.627
			c1.235,1.347,2.123,2.794,2.661,4.344c0.537,1.549,0.699,3.19,0.485,4.926c-0.215,1.733-0.847,3.512-1.897,5.33
			c-0.872,1.51-1.889,2.801-3.049,3.873c-1.16,1.071-2.486,2.004-3.975,2.795c-1.49,0.792-3.158,1.48-5.006,2.065
			c-1.848,0.585-3.894,1.146-6.139,1.682l-8.55,2.069l15.998,9.236l-3.772,6.533L340.943,747.029z"/>
		<path fill="#FFFFFF" d="M406.43,769.392c-1.084,1.878-2.408,3.366-3.97,4.464s-3.37,1.758-5.421,1.979
			c-2.051,0.223-4.333-0.017-6.843-0.719c-2.511-0.701-5.248-1.906-8.208-3.616c-0.658-0.38-1.342-0.794-2.051-1.242
			s-1.408-0.903-2.096-1.365c-0.689-0.462-1.352-0.923-1.989-1.381c-0.64-0.46-1.202-0.894-1.687-1.303l3.554-6.155
			c1.084,0.937,2.345,1.916,3.782,2.938c1.435,1.022,2.975,2.009,4.62,2.958c1.606,0.928,3.068,1.592,4.387,1.99
			c1.317,0.4,2.501,0.562,3.553,0.484c1.051-0.077,1.973-0.391,2.767-0.938c0.794-0.548,1.464-1.296,2.012-2.245
			c0.48-0.832,0.732-1.692,0.756-2.582c0.023-0.891-0.206-1.79-0.687-2.7s-1.231-1.834-2.251-2.771s-2.333-1.87-3.94-2.797
			l-4.21-2.431l3.118-5.4l3.861,2.229c1.51,0.872,2.85,1.445,4.021,1.721c1.169,0.275,2.194,0.332,3.075,0.17
			c0.88-0.163,1.645-0.515,2.293-1.057c0.649-0.542,1.191-1.19,1.627-1.945c0.894-1.548,1.069-3.015,0.527-4.399
			c-0.543-1.384-1.87-2.686-3.979-3.903c-1.51-0.872-3.084-1.587-4.722-2.146c-1.638-0.56-3.382-1.049-5.229-1.471l3.437-5.952
			c1.039,0.212,2.01,0.451,2.916,0.716c0.904,0.265,1.793,0.559,2.666,0.881c0.871,0.323,1.731,0.689,2.577,1.102
			c0.846,0.41,1.706,0.868,2.577,1.371c2.091,1.207,3.795,2.488,5.116,3.844c1.32,1.356,2.28,2.756,2.879,4.199
			c0.599,1.442,0.829,2.91,0.689,4.404c-0.14,1.493-0.628,2.966-1.466,4.417c-1.33,2.304-2.934,3.862-4.81,4.676
			s-3.98,1.051-6.313,0.71c1.107,0.898,2.018,1.868,2.731,2.913c0.713,1.044,1.208,2.143,1.484,3.295
			c0.276,1.153,0.324,2.323,0.143,3.509C407.543,767.028,407.111,768.212,406.43,769.392z"/>
	</g>
	<g>
		<path fill="#FFFFFF" d="M246.344,630.013l5.226-3.017l14.151,3.791c2.656,0.712,4.888,1.224,6.693,1.535
			c1.806,0.313,3.348,0.468,4.624,0.466s2.372-0.148,3.285-0.444c0.914-0.295,1.806-0.693,2.677-1.196
			c0.716-0.413,1.331-0.925,1.846-1.53c0.514-0.606,0.879-1.271,1.097-1.989c0.217-0.72,0.271-1.498,0.16-2.337
			c-0.111-0.841-0.418-1.695-0.921-2.566c-0.86-1.49-1.983-2.687-3.369-3.591c-1.386-0.902-2.951-1.613-4.694-2.129l2.658-6.527
			c2.479,0.763,4.772,1.908,6.883,3.439c2.109,1.53,3.856,3.496,5.242,5.896c1.073,1.858,1.808,3.679,2.206,5.463
			c0.397,1.783,0.442,3.48,0.133,5.091s-0.99,3.113-2.042,4.51c-1.053,1.394-2.489,2.617-4.308,3.667
			c-1.51,0.872-3.036,1.481-4.577,1.83c-1.541,0.347-3.155,0.492-4.84,0.433c-1.687-0.06-3.476-0.297-5.368-0.714
			s-3.944-0.954-6.157-1.613l-8.44-2.483l9.236,15.998l-6.533,3.771L246.344,630.013z"/>
		<path fill="#FFFFFF" d="M296.359,670.243c0.025,1.25-0.029,2.488-0.16,3.713c-0.132,1.225-0.422,2.398-0.87,3.521
			c-0.449,1.123-1.081,2.173-1.898,3.148c-0.818,0.976-1.885,1.843-3.201,2.603c-1.723,0.995-3.443,1.523-5.162,1.586
			c-1.719,0.063-3.378-0.263-4.978-0.978c-1.601-0.716-3.1-1.771-4.501-3.17c-1.401-1.397-2.654-3.055-3.76-4.971
			c-1.229-2.13-2.088-4.144-2.578-6.041s-0.64-3.645-0.45-5.237c0.189-1.594,0.71-3.018,1.561-4.27
			c0.851-1.253,2.003-2.298,3.454-3.136c1.297-0.749,2.563-1.229,3.797-1.438c1.233-0.209,2.456-0.226,3.669-0.047
			c1.211,0.177,2.396,0.507,3.551,0.988c1.155,0.481,2.292,1.043,3.413,1.688c0-1.161,0.08-2.297,0.239-3.408
			c0.158-1.111,0.448-2.176,0.867-3.192s0.996-1.963,1.729-2.837c0.734-0.875,1.691-1.653,2.872-2.335
			c1.374-0.794,2.819-1.273,4.337-1.439c1.517-0.167,3.034,0.016,4.554,0.546c1.519,0.528,3,1.441,4.445,2.736
			c1.444,1.296,2.786,3.017,4.027,5.165c1.14,1.975,1.948,3.855,2.427,5.645c0.477,1.788,0.633,3.434,0.469,4.937
			c-0.166,1.502-0.626,2.839-1.382,4.01c-0.755,1.173-1.782,2.133-3.079,2.882c-1.201,0.692-2.379,1.153-3.537,1.383
			s-2.29,0.291-3.398,0.183c-1.108-0.109-2.201-0.369-3.276-0.78C298.465,671.287,297.404,670.802,296.359,670.243z
			 M288.599,665.317c-0.842-0.521-1.688-0.98-2.538-1.379c-0.851-0.4-1.698-0.686-2.545-0.854c-0.847-0.17-1.687-0.207-2.522-0.111
			c-0.835,0.095-1.669,0.384-2.501,0.864c-1.472,0.849-2.265,2.068-2.379,3.657c-0.115,1.589,0.37,3.322,1.454,5.199
			c0.492,0.852,1.042,1.604,1.652,2.259c0.61,0.655,1.264,1.161,1.962,1.52c0.696,0.358,1.426,0.538,2.188,0.537
			c0.76-0.001,1.538-0.229,2.332-0.688c0.813-0.47,1.437-1.076,1.873-1.818c0.436-0.742,0.74-1.589,0.914-2.54
			c0.173-0.951,0.256-1.993,0.248-3.124C288.727,667.707,288.682,666.534,288.599,665.317z M295.87,663.094
			c0.79,0.474,1.578,0.889,2.365,1.247c0.788,0.358,1.571,0.608,2.351,0.752c0.779,0.145,1.557,0.173,2.333,0.086
			c0.776-0.086,1.542-0.349,2.296-0.784c1.258-0.727,1.931-1.772,2.02-3.14c0.088-1.367-0.404-2.979-1.477-4.838
			c-1.051-1.82-2.2-3.027-3.447-3.623c-1.248-0.596-2.549-0.503-3.903,0.279c-0.736,0.425-1.299,0.969-1.689,1.633
			c-0.391,0.665-0.665,1.43-0.823,2.295c-0.159,0.866-0.225,1.813-0.198,2.843C295.724,660.874,295.781,661.957,295.87,663.094z"/>
	</g>
	<g>
		<path fill="#FFFFFF" d="M258.815,548.775h-6.035l-10.359-10.358c-1.944-1.945-3.621-3.504-5.028-4.677
			c-1.408-1.174-2.666-2.079-3.772-2.716c-1.106-0.637-2.129-1.057-3.067-1.258c-0.939-0.201-1.911-0.302-2.917-0.302
			c-0.827,0-1.615,0.135-2.364,0.402c-0.749,0.269-1.396,0.66-1.944,1.174c-0.547,0.515-0.983,1.162-1.308,1.944
			c-0.324,0.783-0.486,1.677-0.486,2.683c0,1.721,0.375,3.318,1.123,4.794c0.749,1.475,1.749,2.872,3,4.19l-5.565,4.324
			c-1.765-1.899-3.179-4.039-4.241-6.42c-1.062-2.38-1.593-4.956-1.593-7.728c0-2.146,0.274-4.09,0.822-5.833
			s1.357-3.235,2.43-4.476s2.414-2.201,4.023-2.884c1.609-0.681,3.464-1.022,5.565-1.022c1.743,0,3.369,0.235,4.878,0.704
			c1.509,0.47,2.979,1.151,4.409,2.045c1.431,0.895,2.861,1.995,4.291,3.303c1.431,1.308,2.939,2.799,4.526,4.476l6.068,6.37
			v-18.473h7.543V548.775z"/>
		<path fill="#FFFFFF" d="M236.353,479.104c3.397,0,6.482,0.419,9.253,1.257c2.771,0.838,5.135,2.146,7.091,3.922
			s3.464,4.051,4.526,6.822c1.062,2.772,1.592,6.091,1.592,9.957v11.13h-43.817v-12.974c0-3.353,0.419-6.286,1.257-8.8
			c0.838-2.515,2.129-4.61,3.872-6.286s3.956-2.934,6.638-3.771C229.447,479.522,232.643,479.104,236.353,479.104z M236.89,487.954
			c-2.369,0-4.481,0.19-6.336,0.57c-1.855,0.38-3.425,1.022-4.71,1.928c-1.285,0.905-2.263,2.118-2.933,3.637
			c-0.671,1.52-1.006,3.409-1.006,5.666v4.19h30.005v-3.621c0-4.045-1.207-7.119-3.621-9.22
			C245.874,489.005,242.075,487.954,236.89,487.954z"/>
	</g>
	<g>
		<path fill="#FFFFFF" d="M277.698,384.699c1.879,1.084,3.366,2.408,4.464,3.97c1.098,1.563,1.757,3.37,1.98,5.42
			c0.222,2.052-0.017,4.333-0.718,6.844c-0.702,2.512-1.907,5.248-3.617,8.209c-0.38,0.658-0.794,1.341-1.243,2.05
			c-0.447,0.709-0.903,1.408-1.365,2.097c-0.462,0.688-0.922,1.352-1.381,1.99c-0.459,0.638-0.894,1.201-1.303,1.687l-6.155-3.554
			c0.937-1.085,1.917-2.345,2.938-3.781c1.022-1.436,2.009-2.976,2.958-4.622c0.927-1.606,1.591-3.068,1.99-4.387
			c0.4-1.317,0.562-2.502,0.485-3.553c-0.077-1.051-0.391-1.974-0.938-2.768c-0.547-0.794-1.296-1.465-2.245-2.013
			c-0.832-0.479-1.693-0.731-2.583-0.755s-1.79,0.205-2.7,0.686c-0.909,0.481-1.833,1.232-2.771,2.252
			c-0.938,1.021-1.87,2.333-2.798,3.939l-2.431,4.21l-5.4-3.118l2.229-3.862c0.872-1.51,1.446-2.849,1.722-4.02
			c0.274-1.17,0.332-2.195,0.169-3.076c-0.163-0.881-0.515-1.646-1.057-2.294c-0.541-0.647-1.19-1.19-1.945-1.626
			c-1.549-0.894-3.015-1.069-4.399-0.527c-1.384,0.543-2.686,1.869-3.904,3.979c-0.872,1.51-1.586,3.084-2.146,4.723
			c-0.559,1.64-1.049,3.382-1.471,5.229l-5.951-3.436c0.213-1.039,0.451-2.01,0.716-2.916c0.264-0.905,0.557-1.794,0.88-2.666
			c0.323-0.872,0.69-1.731,1.102-2.577c0.411-0.847,0.869-1.705,1.371-2.576c1.207-2.091,2.487-3.796,3.844-5.117
			c1.356-1.32,2.755-2.28,4.199-2.879c1.442-0.6,2.911-0.829,4.404-0.689c1.494,0.14,2.966,0.628,4.418,1.467
			c2.304,1.33,3.861,2.933,4.675,4.809c0.813,1.877,1.05,3.981,0.709,6.313c0.899-1.107,1.869-2.018,2.914-2.731
			c1.043-0.713,2.143-1.207,3.296-1.484c1.153-0.276,2.322-0.324,3.508-0.143C275.335,383.586,276.518,384.018,277.698,384.699z"/>
		<path fill="#FFFFFF" d="M293.359,384.327l-5.226-3.018l-3.792-14.151c-0.712-2.656-1.384-4.845-2.018-6.565
			c-0.633-1.72-1.268-3.133-1.908-4.237c-0.64-1.105-1.316-1.979-2.029-2.623c-0.712-0.644-1.503-1.217-2.374-1.72
			c-0.716-0.413-1.466-0.691-2.248-0.833c-0.783-0.142-1.54-0.127-2.271,0.044c-0.732,0.172-1.434,0.515-2.105,1.03
			c-0.671,0.516-1.259,1.208-1.762,2.08c-0.86,1.491-1.335,3.062-1.424,4.713c-0.089,1.652,0.079,3.362,0.503,5.13l-6.982,0.962
			c-0.579-2.528-0.733-5.088-0.463-7.681c0.272-2.591,1.1-5.088,2.486-7.488c1.073-1.858,2.281-3.405,3.627-4.642
			c1.346-1.235,2.793-2.123,4.342-2.661s3.19-0.7,4.926-0.486c1.734,0.215,3.511,0.847,5.33,1.897
			c1.51,0.872,2.801,1.888,3.873,3.049c1.072,1.161,2.003,2.486,2.795,3.975c0.792,1.49,1.481,3.158,2.065,5.006
			c0.584,1.847,1.146,3.894,1.682,6.139l2.07,8.55l9.236-15.997l6.532,3.771L293.359,384.327z"/>
	</g>
	<g>
		<path fill="#FFFFFF" d="M372.737,284.604c1.085,1.879,1.711,3.769,1.88,5.671c0.169,1.902-0.163,3.797-0.996,5.684
			s-2.181,3.744-4.044,5.567c-1.863,1.824-4.275,3.592-7.237,5.302c-0.658,0.38-1.358,0.764-2.101,1.154s-1.486,0.768-2.23,1.133
			c-0.744,0.364-1.475,0.709-2.191,1.033c-0.717,0.323-1.375,0.593-1.972,0.809l-3.554-6.155c1.354-0.472,2.832-1.073,4.435-1.806
			s3.228-1.573,4.873-2.522c1.606-0.928,2.912-1.862,3.917-2.805c1.005-0.941,1.737-1.886,2.195-2.834
			c0.459-0.949,0.649-1.904,0.571-2.866c-0.077-0.962-0.39-1.917-0.938-2.865c-0.48-0.832-1.1-1.481-1.859-1.946
			c-0.759-0.464-1.652-0.716-2.681-0.755c-1.029-0.038-2.205,0.149-3.526,0.565c-1.322,0.415-2.786,1.085-4.393,2.013l-4.21,2.431
			l-3.118-5.4l3.861-2.229c1.51-0.872,2.676-1.744,3.5-2.62c0.823-0.876,1.385-1.735,1.685-2.58c0.3-0.844,0.377-1.682,0.232-2.515
			c-0.146-0.832-0.436-1.626-0.872-2.381c-0.894-1.549-2.076-2.433-3.546-2.656c-1.47-0.222-3.261,0.276-5.37,1.494
			c-1.51,0.872-2.917,1.878-4.22,3.017c-1.304,1.14-2.599,2.404-3.888,3.792l-3.437-5.951c0.704-0.792,1.396-1.515,2.078-2.167
			c0.682-0.652,1.38-1.275,2.096-1.869c0.715-0.594,1.462-1.154,2.242-1.681c0.779-0.528,1.604-1.043,2.476-1.546
			c2.09-1.207,4.053-2.043,5.887-2.508c1.835-0.466,3.526-0.597,5.076-0.396c1.549,0.203,2.936,0.739,4.159,1.605
			c1.223,0.868,2.254,2.028,3.093,3.48c1.33,2.304,1.878,4.47,1.644,6.502c-0.233,2.032-1.081,3.973-2.542,5.822
			c1.332-0.51,2.627-0.813,3.888-0.909c1.261-0.095,2.459,0.026,3.597,0.364c1.136,0.337,2.173,0.88,3.109,1.63
			C371.247,282.458,372.057,283.425,372.737,284.604z"/>
		<path fill="#FFFFFF" d="M396.938,286.078l-8.013,4.626l-2.855-39.811l-18.204,10.51l-3.956-6.853l26.362-15.22l3.57,6.185
			L396.938,286.078z"/>
	</g>
</g>
<rect x="419.378" y="-330.473" fill="#FF0000" width="20" height="96"/>
<path d="M-736.127,591.057c-282.771,0-512,229.229-512,512c0,282.771,229.229,512.001,512,512.001c282.77,0,512-229.23,512-512.001
	C-224.126,820.285-453.357,591.057-736.127,591.057z M-736.127,687.057c33.489,0,66.049,3.959,97.25,11.43l-23.381,97.26
	c138.891,33.25,242.131,158.23,242.131,307.311c0,174.521-141.471,316.001-316,316.001c-174.521,0-316-141.48-316-316.001
	c0-149.08,103.239-274.051,242.13-307.311l-23.38-97.26C-802.177,691.016-769.617,687.057-736.127,687.057z"/>
<g>
	<path fill="#FF0000" d="M1572.966,279.401l-23.369,97.25c94.93,22.739,165.5,108.159,165.5,210.06c0,119.29-96.711,216-216.001,216
		s-216-96.71-216-216c0-101.9,70.57-187.32,165.5-210.06l-23.37-97.25c-138.89,33.26-242.13,158.229-242.13,307.31
		c0,174.52,141.48,316,316,316c174.521,0,316.001-141.48,316.001-316C1815.097,437.631,1711.856,312.661,1572.966,279.401z"/>
	<path d="M1715.097,586.711c0,119.29-96.711,216-216.001,216s-216-96.71-216-216c0-101.9,70.57-187.32,165.5-210.06
		c16.2-3.881,33.11-5.94,50.5-5.94s34.3,2.06,50.501,5.94C1644.526,399.391,1715.097,484.811,1715.097,586.711z"/>
</g>
<g>
</g>
<g>
</g>
<g>
</g>
<g>
</g>
<g>
</g>
<g>
</g>
</svg>
