<?xml version="1.0" encoding="utf-8"?>
<!-- Generator: Adobe Illustrator 16.0.3, SVG Export Plug-In . SVG Version: 6.00 Build 0)  -->
<!DOCTYPE svg PUBLIC "-//W3C//DTD SVG 1.1 Tiny//EN" "http://www.w3.org/Graphics/SVG/1.1/DTD/svg11-tiny.dtd">
<svg version="1.1" baseProfile="tiny" id="Capa_1" xmlns="http://www.w3.org/2000/svg" xmlns:xlink="http://www.w3.org/1999/xlink"
	 x="0px" y="0px" width="1023.995px" height="1023.997px" viewBox="0 0 1023.995 1023.997" xml:space="preserve">
<image width="570" height="570" xlink:href="../../../../wanduhr-sabrina-fossi-freakishclock-blackred.jpg"  transform="matrix(1.1474 0 0 1.1474 -678.002 137.9971)">
</image>
<g>
	<circle fill="#FFFFFF" cx="1453.998" cy="1517.658" r="511.998"/>
	<g>
		<path d="M1384.991,1173.659v-6.781h10.406v-26.25l-9.063,5l-2.5-6.219l12.969-6.844h6.406v34.313h8.969v6.781H1384.991z"/>
		<path d="M1420.435,1173.659v-6.781h10.406v-26.25l-9.063,5l-2.5-6.219l12.969-6.844h6.406v34.313h8.969v6.781H1420.435z"/>
		<path d="M1484.659,1153.065c0,3.354-0.364,6.354-1.094,9s-1.797,4.88-3.203,6.703s-3.12,3.214-5.141,4.172
			s-4.333,1.438-6.938,1.438c-2.25,0-4.323-0.396-6.219-1.188c-1.896-0.792-3.531-2.036-4.906-3.734s-2.448-3.87-3.219-6.516
			s-1.156-5.813-1.156-9.5c0-3.354,0.37-6.354,1.109-9s1.808-4.88,3.203-6.703s3.114-3.214,5.156-4.172s4.354-1.438,6.938-1.438
			c2.25,0,4.323,0.396,6.219,1.188s3.526,2.031,4.891,3.719s2.433,3.854,3.203,6.5S1484.659,1149.357,1484.659,1153.065z
			 M1460.472,1153.19c0,0.417,0,0.808,0,1.172s0.021,0.734,0.063,1.109l15.313-11.063c-0.729-2.063-1.692-3.589-2.891-4.578
			s-2.609-1.484-4.234-1.484c-1.167,0-2.25,0.297-3.25,0.891s-1.87,1.505-2.609,2.734s-1.323,2.771-1.75,4.625
			S1460.472,1150.648,1460.472,1153.19z M1476.972,1153.315c0-0.354-0.011-0.714-0.031-1.078s-0.031-0.714-0.031-1.047l-15.219,11
			c0.667,2.021,1.604,3.521,2.813,4.5s2.614,1.469,4.219,1.469c1.167,0,2.255-0.302,3.266-0.906s1.886-1.516,2.625-2.734
			s1.317-2.761,1.734-4.625S1476.972,1155.836,1476.972,1153.315z"/>
		<path d="M1520.103,1153.065c0,3.354-0.364,6.354-1.094,9s-1.797,4.88-3.203,6.703s-3.12,3.214-5.141,4.172
			s-4.333,1.438-6.938,1.438c-2.25,0-4.323-0.396-6.219-1.188c-1.896-0.792-3.531-2.036-4.906-3.734s-2.448-3.87-3.219-6.516
			s-1.156-5.813-1.156-9.5c0-3.354,0.37-6.354,1.109-9s1.808-4.88,3.203-6.703s3.114-3.214,5.156-4.172s4.354-1.438,6.938-1.438
			c2.25,0,4.323,0.396,6.219,1.188s3.526,2.031,4.891,3.719s2.433,3.854,3.203,6.5S1520.103,1149.357,1520.103,1153.065z
			 M1495.915,1153.19c0,0.417,0,0.808,0,1.172s0.021,0.734,0.063,1.109l15.313-11.063c-0.729-2.063-1.692-3.589-2.891-4.578
			s-2.609-1.484-4.234-1.484c-1.167,0-2.25,0.297-3.25,0.891s-1.87,1.505-2.609,2.734s-1.323,2.771-1.75,4.625
			S1495.915,1150.648,1495.915,1153.19z M1512.415,1153.315c0-0.354-0.011-0.714-0.031-1.078s-0.031-0.714-0.031-1.047l-15.219,11
			c0.667,2.021,1.604,3.521,2.813,4.5s2.614,1.469,4.219,1.469c1.167,0,2.255-0.302,3.266-0.906s1.886-1.516,2.625-2.734
			s1.317-2.761,1.734-4.625S1512.415,1155.836,1512.415,1153.315z"/>
	</g>
	<g>
		<path d="M1222.236,1254.249l-3.391-5.872l9.012-5.203l-13.125-22.733l-5.348,8.861l-5.275-4.135l7.811-12.412l5.547-3.203
			l17.156,29.716l7.768-4.484l3.391,5.872L1222.236,1254.249z"/>
		<path d="M1267.561,1204.303c1.676,2.905,2.861,5.686,3.553,8.341c0.689,2.656,0.883,5.125,0.576,7.406
			c-0.305,2.283-1.094,4.344-2.365,6.184c-1.271,1.841-3.035,3.412-5.289,4.714c-1.949,1.125-3.943,1.819-5.98,2.081
			c-2.037,0.263-4.076,0.002-6.115-0.781s-4.055-2.127-6.045-4.033c-1.99-1.905-3.908-4.455-5.752-7.648
			c-1.678-2.905-2.857-5.688-3.539-8.35c-0.682-2.66-0.875-5.13-0.578-7.406s1.09-4.34,2.381-6.191
			c1.289-1.851,3.051-3.422,5.289-4.713c1.947-1.125,3.941-1.819,5.979-2.082c2.037-0.262,4.07-0.004,6.096,0.775
			s4.033,2.122,6.023,4.027C1263.783,1198.532,1265.705,1201.091,1267.561,1204.303z M1246.676,1216.505
			c0.209,0.361,0.404,0.699,0.586,1.015s0.385,0.626,0.607,0.93l7.73-17.237c-1.662-1.421-3.26-2.261-4.793-2.52
			c-1.531-0.258-3.002,0.02-4.408,0.832c-1.012,0.584-1.801,1.383-2.369,2.396c-0.57,1.014-0.867,2.238-0.893,3.673
			s0.238,3.062,0.797,4.88C1244.49,1212.294,1245.404,1214.304,1246.676,1216.505z M1261.027,1208.362
			c-0.178-0.307-0.367-0.611-0.566-0.918c-0.199-0.305-0.385-0.602-0.551-0.891l-7.68,17.136c1.588,1.417,3.15,2.247,4.686,2.491
			c1.537,0.244,2.998-0.035,4.389-0.838c1.01-0.583,1.801-1.389,2.375-2.418c0.572-1.027,0.875-2.255,0.906-3.68
			c0.031-1.426-0.24-3.049-0.811-4.873C1263.203,1212.55,1262.287,1210.546,1261.027,1208.362z"/>
		<path d="M1283.627,1218.806l-3.391-5.872l9.012-5.203l-13.125-22.733l-5.348,8.861l-5.275-4.136l7.811-12.411l5.547-3.203
			l17.156,29.716l7.768-4.484l3.391,5.872L1283.627,1218.806z"/>
		<path d="M1314.322,1201.084l-3.391-5.872l9.012-5.203l-13.125-22.733l-5.35,8.861l-5.273-4.136l7.809-12.411l5.549-3.203
			l17.156,29.716l7.768-4.484l3.391,5.872L1314.322,1201.084z"/>
	</g>
	<g>
		<path d="M1121.582,1405.42l-5.873-3.391l5.203-9.012l-22.732-13.125l-0.201,10.349l-6.637-0.944l0.559-14.653l3.203-5.548
			l29.715,17.156l4.484-7.768l5.873,3.391L1121.582,1405.42z"/>
		<path d="M1135.859,1339.503c2.904,1.678,5.32,3.493,7.248,5.447c1.926,1.955,3.328,3.996,4.203,6.126
			c0.875,2.129,1.223,4.309,1.043,6.538c-0.182,2.229-0.922,4.472-2.225,6.727c-1.125,1.948-2.504,3.546-4.137,4.792
			c-1.635,1.246-3.529,2.04-5.688,2.382s-4.576,0.186-7.252-0.471c-2.678-0.655-5.613-1.905-8.807-3.749
			c-2.904-1.677-5.316-3.497-7.238-5.46c-1.922-1.964-3.322-4.006-4.203-6.126s-1.227-4.304-1.035-6.552
			c0.191-2.247,0.932-4.489,2.223-6.727c1.125-1.948,2.506-3.545,4.139-4.792c1.633-1.245,3.521-2.038,5.666-2.376
			c2.143-0.338,4.555-0.179,7.23,0.477S1132.648,1337.649,1135.859,1339.503z M1123.873,1360.513
			c0.361,0.208,0.701,0.403,1.016,0.586c0.316,0.182,0.646,0.35,0.992,0.501l-1.924-18.793c-2.15-0.399-3.955-0.327-5.41,0.215
			c-1.457,0.543-2.59,1.518-3.402,2.925c-0.584,1.011-0.869,2.097-0.854,3.26c0.014,1.163,0.367,2.372,1.063,3.627
			s1.738,2.531,3.131,3.828S1121.674,1359.241,1123.873,1360.513z M1132.232,1346.286c-0.307-0.178-0.623-0.348-0.949-0.513
			c-0.326-0.164-0.633-0.329-0.922-0.496l1.916,18.68c2.084,0.434,3.852,0.372,5.303-0.186c1.453-0.557,2.58-1.529,3.383-2.919
			c0.582-1.011,0.865-2.104,0.848-3.281s-0.369-2.391-1.057-3.641c-0.686-1.25-1.73-2.521-3.137-3.814
			S1134.416,1347.546,1132.232,1346.286z"/>
		<path d="M1157.025,1344.03l-5.873-3.391l5.203-9.013l-22.732-13.125l-0.201,10.349l-6.635-0.944l0.557-14.653l3.203-5.548
			l29.715,17.156l4.484-7.767l5.873,3.391L1157.025,1344.03z"/>
		<path d="M1171.303,1278.113c2.906,1.677,5.32,3.493,7.248,5.447c1.926,1.954,3.328,3.996,4.203,6.125
			c0.877,2.13,1.223,4.31,1.043,6.538c-0.182,2.229-0.922,4.472-2.225,6.727c-1.125,1.949-2.504,3.547-4.137,4.792
			c-1.635,1.247-3.529,2.04-5.688,2.382s-4.576,0.186-7.252-0.471c-2.678-0.654-5.611-1.904-8.805-3.748
			c-2.906-1.678-5.318-3.497-7.24-5.461c-1.922-1.963-3.322-4.005-4.203-6.126c-0.881-2.12-1.227-4.304-1.035-6.551
			s0.932-4.489,2.225-6.727c1.125-1.949,2.504-3.546,4.137-4.792s3.521-2.038,5.666-2.376c2.143-0.338,4.555-0.18,7.23,0.476
			C1165.148,1275.005,1168.092,1276.259,1171.303,1278.113z M1159.318,1299.123c0.361,0.208,0.699,0.403,1.014,0.586
			c0.316,0.183,0.646,0.349,0.992,0.5l-1.924-18.792c-2.15-0.399-3.955-0.328-5.41,0.214c-1.455,0.543-2.59,1.518-3.402,2.925
			c-0.584,1.011-0.867,2.098-0.854,3.26c0.014,1.163,0.369,2.373,1.063,3.627c0.695,1.256,1.738,2.531,3.131,3.828
			C1155.32,1296.568,1157.117,1297.853,1159.318,1299.123z M1167.676,1284.896c-0.307-0.177-0.623-0.348-0.949-0.512
			s-0.633-0.33-0.922-0.496l1.916,18.68c2.084,0.434,3.852,0.371,5.305-0.186c1.451-0.557,2.578-1.53,3.381-2.92
			c0.582-1.01,0.865-2.104,0.848-3.281c-0.018-1.177-0.369-2.391-1.055-3.641c-0.686-1.249-1.732-2.521-3.139-3.814
			C1171.654,1287.434,1169.859,1286.156,1167.676,1284.896z"/>
	</g>
	<g>
		<path d="M1109.998,1586.667h-6.781v-10.406h-26.25l5,9.063l-6.219,2.5l-6.844-12.969v-6.406h34.313v-8.969h6.781V1586.667z"/>
		<path d="M1089.404,1522.442c3.354,0,6.354,0.364,9,1.094c2.646,0.729,4.881,1.797,6.703,3.203
			c1.823,1.406,3.214,3.119,4.172,5.141c0.958,2.021,1.438,4.333,1.438,6.938c0,2.25-0.396,4.322-1.188,6.219
			c-0.791,1.896-2.036,3.531-3.734,4.906c-1.697,1.375-3.869,2.447-6.516,3.219c-2.646,0.771-5.813,1.156-9.5,1.156
			c-3.354,0-6.354-0.37-9-1.109c-2.646-0.74-4.88-1.808-6.703-3.203c-1.822-1.396-3.213-3.115-4.172-5.156
			c-0.958-2.042-1.438-4.354-1.438-6.938c0-2.25,0.396-4.323,1.188-6.219c0.792-1.896,2.031-3.526,3.719-4.891
			c1.688-1.365,3.854-2.433,6.5-3.203C1082.52,1522.827,1085.696,1522.442,1089.404,1522.442z M1089.529,1546.63
			c0.417,0,0.808,0,1.172,0c0.365,0,0.734-0.021,1.109-0.063l-11.063-15.313c-2.063,0.729-3.588,1.692-4.578,2.891
			c-0.989,1.197-1.484,2.609-1.484,4.234c0,1.166,0.297,2.25,0.891,3.25s1.506,1.869,2.734,2.609
			c1.229,0.739,2.771,1.322,4.625,1.75C1084.79,1546.416,1086.988,1546.63,1089.529,1546.63z M1089.654,1530.13
			c-0.354,0-0.713,0.01-1.078,0.031c-0.364,0.021-0.713,0.031-1.047,0.031l11,15.219c2.021-0.667,3.521-1.604,4.5-2.813
			c0.979-1.209,1.469-2.615,1.469-4.219c0-1.167-0.302-2.256-0.906-3.266c-0.604-1.011-1.516-1.886-2.734-2.625
			c-1.219-0.74-2.76-1.318-4.625-1.734C1094.368,1530.338,1092.176,1530.13,1089.654,1530.13z"/>
		<path d="M1089.404,1486.998c3.354,0,6.354,0.364,9,1.094c2.646,0.729,4.881,1.797,6.703,3.203c1.823,1.406,3.214,3.12,4.172,5.141
			s1.438,4.333,1.438,6.938c0,2.25-0.396,4.323-1.188,6.219s-2.036,3.531-3.734,4.906c-1.697,1.375-3.869,2.448-6.516,3.219
			c-2.646,0.771-5.813,1.156-9.5,1.156c-3.354,0-6.354-0.37-9-1.109c-2.646-0.739-4.88-1.808-6.703-3.203
			c-1.822-1.396-3.213-3.114-4.172-5.156c-0.958-2.042-1.438-4.354-1.438-6.938c0-2.25,0.396-4.323,1.188-6.219
			c0.792-1.896,2.031-3.526,3.719-4.891s3.854-2.433,6.5-3.203C1082.52,1487.384,1085.696,1486.998,1089.404,1486.998z
			 M1089.529,1511.186c0.417,0,0.808,0,1.172,0c0.365,0,0.734-0.021,1.109-0.063l-11.063-15.313
			c-2.063,0.729-3.588,1.692-4.578,2.891c-0.989,1.198-1.484,2.609-1.484,4.234c0,1.167,0.297,2.25,0.891,3.25
			s1.506,1.87,2.734,2.609c1.229,0.739,2.771,1.323,4.625,1.75C1084.79,1510.972,1086.988,1511.186,1089.529,1511.186z
			 M1089.654,1494.686c-0.354,0-0.713,0.011-1.078,0.031c-0.364,0.021-0.713,0.031-1.047,0.031l11,15.219
			c2.021-0.667,3.521-1.604,4.5-2.813c0.979-1.208,1.469-2.614,1.469-4.219c0-1.167-0.302-2.255-0.906-3.266
			c-0.604-1.011-1.516-1.886-2.734-2.625s-2.76-1.317-4.625-1.734C1094.368,1494.894,1092.176,1494.686,1089.654,1494.686z"/>
		<path d="M1109.998,1480.336h-6.781v-10.406h-26.25l5,9.063l-6.219,2.5l-6.844-12.969v-6.406h34.313v-8.969h6.781V1480.336z"/>
	</g>
	<g>
		<path d="M1095.48,1651.593l5.873-3.391l5.203,9.012l22.732-13.125l-8.861-5.348l4.136-5.275l12.411,7.811l3.203,5.547
			l-29.715,17.156l4.484,7.768l-5.873,3.391L1095.48,1651.593z"/>
		<path d="M1145.428,1696.917c-2.906,1.676-5.686,2.861-8.342,3.553s-5.125,0.883-7.406,0.576c-2.282-0.305-4.344-1.094-6.184-2.365
			s-3.411-3.033-4.713-5.289c-1.125-1.949-1.819-3.941-2.082-5.98c-0.262-2.037-0.002-4.076,0.781-6.115s2.127-4.055,4.033-6.045
			s4.456-3.908,7.649-5.752c2.905-1.676,5.688-2.855,8.349-3.539c2.661-0.682,5.13-0.875,7.406-0.578
			c2.277,0.299,4.341,1.092,6.191,2.381s3.422,3.051,4.714,5.289c1.125,1.947,1.818,3.941,2.081,5.979
			c0.262,2.037,0.004,4.07-0.775,6.096s-2.122,4.033-4.027,6.023C1151.197,1693.14,1148.639,1695.062,1145.428,1696.917z
			 M1141.367,1690.384c0.307-0.178,0.612-0.365,0.918-0.566c0.305-0.199,0.602-0.383,0.891-0.551l-17.135-7.68
			c-1.418,1.588-2.248,3.15-2.492,4.686c-0.244,1.537,0.035,2.998,0.838,4.389c0.583,1.01,1.389,1.801,2.418,2.375
			c1.028,0.572,2.255,0.875,3.681,0.906c1.425,0.031,3.049-0.24,4.872-0.811C1137.181,1692.56,1139.184,1691.644,1141.367,1690.384z
			 M1133.225,1676.032c-0.36,0.209-0.699,0.404-1.014,0.586c-0.316,0.182-0.627,0.385-0.93,0.609l17.236,7.729
			c1.422-1.662,2.261-3.26,2.52-4.793c0.258-1.531-0.02-3.002-0.832-4.408c-0.583-1.012-1.382-1.801-2.396-2.369
			c-1.014-0.57-2.238-0.867-3.672-0.893c-1.435-0.025-3.063,0.24-4.881,0.797
			C1137.437,1673.847,1135.426,1674.761,1133.225,1676.032z"/>
		<path d="M1163.149,1727.612c-2.905,1.676-5.686,2.861-8.342,3.553s-5.124,0.883-7.406,0.576c-2.282-0.305-4.343-1.094-6.184-2.365
			c-1.84-1.271-3.411-3.033-4.713-5.289c-1.125-1.949-1.819-3.941-2.081-5.98c-0.263-2.037-0.003-4.076,0.78-6.115
			s2.128-4.055,4.034-6.045c1.905-1.99,4.455-3.908,7.648-5.752c2.905-1.676,5.688-2.857,8.35-3.539
			c2.66-0.682,5.129-0.875,7.406-0.578c2.276,0.299,4.34,1.092,6.191,2.381c1.85,1.289,3.422,3.051,4.713,5.289
			c1.125,1.947,1.818,3.941,2.081,5.979c0.262,2.037,0.004,4.07-0.775,6.096s-2.122,4.033-4.027,6.023
			C1168.919,1723.835,1166.36,1725.757,1163.149,1727.612z M1159.089,1721.079c0.307-0.178,0.612-0.365,0.918-0.566
			c0.306-0.199,0.603-0.383,0.892-0.551l-17.136-7.68c-1.417,1.588-2.247,3.15-2.491,4.686c-0.244,1.537,0.035,2.998,0.837,4.389
			c0.583,1.01,1.39,1.801,2.418,2.375c1.028,0.572,2.255,0.875,3.681,0.906c1.425,0.031,3.049-0.24,4.873-0.811
			C1154.902,1723.255,1156.905,1722.339,1159.089,1721.079z M1150.947,1706.728c-0.361,0.209-0.699,0.404-1.015,0.586
			c-0.316,0.182-0.626,0.385-0.93,0.607l17.236,7.73c1.422-1.662,2.261-3.26,2.52-4.793c0.258-1.531-0.019-3.002-0.831-4.408
			c-0.584-1.012-1.383-1.801-2.396-2.369c-1.015-0.57-2.239-0.867-3.673-0.893c-1.435-0.025-3.062,0.24-4.881,0.797
			S1153.148,1705.456,1150.947,1706.728z"/>
		<path d="M1180.871,1758.306c-2.905,1.678-5.686,2.861-8.342,3.553s-5.124,0.885-7.406,0.578s-4.343-1.096-6.184-2.365
			c-1.84-1.271-3.411-3.035-4.713-5.289c-1.125-1.949-1.819-3.943-2.081-5.98c-0.263-2.037-0.003-4.076,0.78-6.115
			s2.128-4.055,4.034-6.045c1.905-1.992,4.455-3.908,7.648-5.752c2.905-1.678,5.688-2.857,8.35-3.539
			c2.66-0.684,5.13-0.875,7.406-0.578s4.34,1.09,6.191,2.379c1.851,1.289,3.421,3.053,4.713,5.289
			c1.125,1.949,1.819,3.943,2.081,5.98s0.004,4.068-0.775,6.094s-2.121,4.035-4.027,6.025S1184.082,1756.452,1180.871,1758.306z
			 M1176.811,1751.774c0.307-0.178,0.612-0.367,0.918-0.566c0.305-0.201,0.603-0.383,0.892-0.551l-17.136-7.68
			c-1.418,1.588-2.248,3.15-2.491,4.686c-0.244,1.535,0.035,2.998,0.837,4.389c0.584,1.01,1.39,1.801,2.418,2.375
			c1.028,0.572,2.256,0.875,3.681,0.906c1.425,0.029,3.049-0.24,4.873-0.811C1172.624,1753.95,1174.627,1753.034,1176.811,1751.774z
			 M1168.669,1737.423c-0.361,0.207-0.699,0.402-1.015,0.586c-0.316,0.182-0.626,0.385-0.93,0.607l17.236,7.73
			c1.422-1.664,2.262-3.26,2.52-4.793c0.258-1.531-0.019-3.002-0.831-4.408c-0.584-1.012-1.383-1.801-2.396-2.369
			c-1.015-0.57-2.239-0.867-3.673-0.893c-1.435-0.027-3.062,0.238-4.881,0.797C1172.88,1735.237,1170.87,1736.151,1168.669,1737.423
			z"/>
	</g>
	<g>
		<path d="M1245.704,1809.466c-1.677,2.904-3.493,5.32-5.447,7.247c-1.955,1.927-3.996,3.328-6.126,4.203
			c-2.129,0.876-4.309,1.224-6.537,1.043c-2.229-0.181-4.473-0.922-6.727-2.224c-1.949-1.125-3.547-2.505-4.793-4.138
			c-1.246-1.634-2.039-3.529-2.381-5.688s-0.186-4.575,0.471-7.252c0.654-2.677,1.904-5.612,3.748-8.806
			c1.677-2.904,3.497-5.317,5.461-7.239c1.963-1.922,4.005-3.322,6.125-4.203s4.304-1.227,6.552-1.035
			c2.247,0.191,4.489,0.932,6.727,2.224c1.948,1.125,3.546,2.505,4.792,4.138c1.246,1.634,2.037,3.521,2.376,5.666
			c0.338,2.144,0.179,4.555-0.476,7.23C1248.813,1803.31,1247.559,1806.254,1245.704,1809.466z M1238.922,1805.838
			c0.177-0.307,0.347-0.623,0.512-0.949c0.164-0.326,0.329-0.633,0.496-0.922l-18.68,1.917c-0.434,2.083-0.371,3.851,0.186,5.303
			c0.557,1.453,1.529,2.579,2.92,3.382c1.01,0.583,2.104,0.866,3.281,0.848c1.177-0.018,2.391-0.369,3.641-1.056
			c1.249-0.686,2.521-1.731,3.814-3.138C1236.384,1809.816,1237.661,1808.021,1238.922,1805.838z M1224.694,1797.479
			c-0.208,0.361-0.403,0.7-0.586,1.016s-0.349,0.646-0.501,0.992l18.793-1.925c0.399-2.15,0.328-3.954-0.215-5.41
			s-1.518-2.59-2.924-3.402c-1.012-0.584-2.098-0.868-3.26-0.854c-1.164,0.014-2.373,0.368-3.627,1.063
			c-1.256,0.694-2.532,1.737-3.828,3.13C1227.249,1793.482,1225.965,1795.279,1224.694,1797.479z"/>
		<path d="M1241.177,1830.631l3.391-5.872l9.013,5.203l13.125-22.733l-10.35-0.201l0.945-6.636l14.652,0.558l5.549,3.203
			l-17.156,29.716l7.767,4.484l-3.391,5.872L1241.177,1830.631z"/>
		<path d="M1271.872,1848.354l3.391-5.873l9.013,5.203l13.125-22.733l-10.35-0.201l0.945-6.636l14.652,0.559l5.549,3.203
			l-17.156,29.715l7.767,4.484l-3.391,5.873L1271.872,1848.354z"/>
		<path d="M1302.566,1866.074l3.391-5.872l9.013,5.203l13.125-22.733l-10.349-0.201l0.944-6.635l14.653,0.557l5.548,3.203
			l-17.156,29.716l7.767,4.484l-3.391,5.872L1302.566,1866.074z"/>
	</g>
	<g>
		<path d="M1419.512,1874.517c0,3.354-0.365,6.354-1.094,9c-0.73,2.646-1.797,4.881-3.203,6.703
			c-1.406,1.823-3.121,3.214-5.141,4.172c-2.021,0.958-4.334,1.438-6.938,1.438c-2.25,0-4.324-0.396-6.219-1.188
			c-1.896-0.791-3.531-2.036-4.906-3.734c-1.375-1.697-2.449-3.869-3.219-6.516c-0.771-2.646-1.156-5.813-1.156-9.5
			c0-3.354,0.369-6.354,1.109-9c0.738-2.646,1.807-4.88,3.203-6.703c1.395-1.822,3.113-3.213,5.156-4.172
			c2.041-0.958,4.354-1.438,6.938-1.438c2.25,0,4.322,0.396,6.219,1.188c1.895,0.792,3.525,2.031,4.891,3.719
			c1.363,1.688,2.432,3.854,3.203,6.5C1419.125,1867.632,1419.512,1870.809,1419.512,1874.517z M1395.324,1874.642
			c0,0.417,0,0.808,0,1.172c0,0.365,0.02,0.734,0.063,1.109l15.313-11.063c-0.73-2.063-1.693-3.588-2.891-4.578
			c-1.199-0.989-2.609-1.484-4.234-1.484c-1.168,0-2.25,0.297-3.25,0.891s-1.871,1.506-2.609,2.734
			c-0.74,1.229-1.324,2.771-1.75,4.625C1395.537,1869.902,1395.324,1872.101,1395.324,1874.642z M1411.824,1874.767
			c0-0.354-0.012-0.713-0.031-1.078c-0.021-0.364-0.031-0.713-0.031-1.047l-15.219,11c0.666,2.021,1.604,3.521,2.813,4.5
			c1.207,0.979,2.613,1.469,4.219,1.469c1.166,0,2.254-0.302,3.266-0.906c1.01-0.604,1.885-1.516,2.625-2.734
			c0.738-1.219,1.316-2.76,1.734-4.625C1411.615,1879.48,1411.824,1877.288,1411.824,1874.767z"/>
		<path d="M1426.174,1895.11v-6.781h10.406v-26.25l-9.063,5l-2.5-6.219l12.969-6.844h6.406v34.313h8.969v6.781H1426.174z"/>
		<path d="M1461.617,1895.11v-6.781h10.406v-26.25l-9.063,5l-2.5-6.219l12.969-6.844h6.406v34.313h8.969v6.781H1461.617z"/>
		<path d="M1525.842,1874.517c0,3.354-0.365,6.354-1.094,9c-0.729,2.646-1.797,4.881-3.203,6.703
			c-1.406,1.823-3.12,3.214-5.141,4.172c-2.021,0.958-4.334,1.438-6.938,1.438c-2.25,0-4.323-0.396-6.219-1.188
			c-1.896-0.791-3.531-2.036-4.906-3.734c-1.375-1.697-2.448-3.869-3.219-6.516c-0.771-2.646-1.156-5.813-1.156-9.5
			c0-3.354,0.369-6.354,1.109-9c0.739-2.646,1.807-4.88,3.203-6.703c1.396-1.822,3.114-3.213,5.156-4.172
			c2.041-0.958,4.354-1.438,6.938-1.438c2.25,0,4.322,0.396,6.219,1.188c1.896,0.792,3.525,2.031,4.891,3.719
			c1.364,1.688,2.432,3.854,3.203,6.5C1525.456,1867.632,1525.842,1870.809,1525.842,1874.517z M1501.654,1874.642
			c0,0.417,0,0.808,0,1.172c0,0.365,0.021,0.734,0.063,1.109l15.313-11.063c-0.729-2.063-1.693-3.588-2.891-4.578
			c-1.198-0.989-2.609-1.484-4.234-1.484c-1.167,0-2.25,0.297-3.25,0.891s-1.87,1.506-2.609,2.734
			c-0.74,1.229-1.323,2.771-1.75,4.625C1501.867,1869.902,1501.654,1872.101,1501.654,1874.642z M1518.154,1874.767
			c0-0.354-0.011-0.713-0.031-1.078c-0.021-0.364-0.031-0.713-0.031-1.047l-15.219,11c0.666,2.021,1.604,3.521,2.813,4.5
			c1.208,0.979,2.614,1.469,4.219,1.469c1.166,0,2.255-0.302,3.266-0.906c1.01-0.604,1.885-1.516,2.625-2.734
			c0.739-1.219,1.317-2.76,1.734-4.625C1517.945,1879.48,1518.154,1877.288,1518.154,1874.767z"/>
	</g>
	<g>
		<path d="M1602.563,1843.95c1.678,2.904,2.861,5.685,3.553,8.34c0.691,2.656,0.884,5.125,0.578,7.407
			c-0.307,2.282-1.096,4.343-2.367,6.184c-1.271,1.84-3.033,3.411-5.289,4.714c-1.948,1.125-3.941,1.818-5.979,2.08
			c-2.038,0.263-4.076,0.003-6.117-0.78c-2.039-0.783-4.055-2.128-6.045-4.034c-1.99-1.905-3.907-4.455-5.751-7.648
			c-1.677-2.904-2.857-5.688-3.54-8.35c-0.682-2.66-0.874-5.129-0.576-7.406c0.297-2.275,1.09-4.34,2.379-6.191
			c1.289-1.85,3.052-3.421,5.289-4.713c1.949-1.125,3.941-1.818,5.979-2.081c2.038-0.262,4.069-0.004,6.095,0.775
			s4.033,2.122,6.023,4.027C1598.787,1838.18,1600.71,1840.738,1602.563,1843.95z M1581.679,1856.151
			c0.209,0.361,0.404,0.699,0.586,1.016c0.183,0.315,0.385,0.625,0.609,0.93l7.729-17.237c-1.663-1.421-3.261-2.261-4.792-2.52
			c-1.533-0.257-3.002,0.019-4.41,0.831c-1.01,0.584-1.8,1.383-2.369,2.396c-0.568,1.015-0.866,2.239-0.893,3.674
			c-0.025,1.434,0.24,3.061,0.797,4.88C1579.494,1851.94,1580.408,1853.95,1581.679,1856.151z M1596.03,1848.01
			c-0.177-0.307-0.365-0.612-0.565-0.918c-0.2-0.305-0.384-0.603-0.551-0.892l-7.68,17.137c1.588,1.417,3.149,2.247,4.686,2.49
			c1.536,0.244,2.999-0.035,4.388-0.838c1.011-0.583,1.803-1.389,2.375-2.417c0.573-1.028,0.875-2.255,0.906-3.681
			c0.031-1.425-0.239-3.049-0.811-4.873C1598.208,1852.196,1597.291,1850.193,1596.03,1848.01z"/>
		<path d="M1618.63,1858.453l-3.391-5.872l9.012-5.203l-13.125-22.734l-5.348,8.862l-5.275-4.136l7.811-12.411l5.547-3.203
			l17.156,29.716l7.768-4.484l3.391,5.872L1618.63,1858.453z"/>
		<path d="M1663.954,1808.506c1.677,2.905,2.861,5.686,3.553,8.341c0.69,2.656,0.884,5.125,0.577,7.407
			c-0.306,2.282-1.095,4.343-2.366,6.184c-1.271,1.84-3.034,3.411-5.289,4.713c-1.949,1.125-3.942,1.819-5.979,2.081
			c-2.038,0.263-4.076,0.003-6.116-0.78c-2.039-0.783-4.055-2.128-6.045-4.034c-1.99-1.905-3.908-4.455-5.752-7.648
			c-1.677-2.905-2.856-5.688-3.539-8.35c-0.682-2.66-0.875-5.129-0.577-7.406c0.297-2.276,1.09-4.34,2.38-6.191
			c1.289-1.85,3.051-3.422,5.289-4.713c1.948-1.125,3.941-1.818,5.979-2.081c2.038-0.262,4.07-0.004,6.096,0.775
			s4.033,2.122,6.023,4.027C1660.177,1802.736,1662.1,1805.295,1663.954,1808.506z M1643.069,1820.708
			c0.209,0.361,0.404,0.699,0.586,1.015c0.183,0.316,0.385,0.626,0.608,0.93l7.729-17.236c-1.662-1.422-3.26-2.261-4.792-2.52
			c-1.532-0.258-3.002,0.019-4.409,0.831c-1.011,0.584-1.801,1.383-2.369,2.396c-0.569,1.015-0.867,2.239-0.893,3.673
			c-0.025,1.435,0.239,3.062,0.797,4.881C1640.884,1816.497,1641.799,1818.507,1643.069,1820.708z M1657.421,1812.566
			c-0.177-0.307-0.366-0.612-0.566-0.918c-0.199-0.306-0.384-0.603-0.551-0.892l-7.68,17.136c1.588,1.417,3.15,2.247,4.686,2.491
			c1.537,0.244,2.999-0.035,4.389-0.838c1.01-0.583,1.802-1.389,2.375-2.417s0.875-2.255,0.906-3.681
			c0.031-1.425-0.239-3.049-0.811-4.873C1659.597,1816.753,1658.682,1814.75,1657.421,1812.566z"/>
		<path d="M1680.021,1823.01l-3.391-5.873l9.012-5.203l-13.125-22.733l-5.349,8.862l-5.274-4.136l7.81-12.411l5.548-3.203
			l17.156,29.715l7.768-4.484l3.391,5.873L1680.021,1823.01z"/>
	</g>
	<g>
		<path d="M1745.807,1725.954c2.904,1.677,5.32,3.492,7.246,5.447c1.928,1.954,3.328,3.996,4.203,6.125
			c0.877,2.129,1.225,4.309,1.043,6.538c-0.18,2.229-0.922,4.472-2.223,6.727c-1.125,1.948-2.506,3.546-4.139,4.792
			s-3.529,2.04-5.688,2.382s-4.574,0.186-7.252-0.47c-2.676-0.656-5.611-1.906-8.805-3.75c-2.904-1.677-5.318-3.496-7.24-5.46
			c-1.922-1.963-3.322-4.005-4.203-6.126c-0.881-2.119-1.227-4.304-1.035-6.551s0.932-4.49,2.225-6.727
			c1.125-1.949,2.504-3.546,4.137-4.793c1.635-1.245,3.521-2.037,5.666-2.375s4.555-0.18,7.23,0.476
			C1739.65,1722.845,1742.594,1724.1,1745.807,1725.954z M1733.82,1746.964c0.361,0.208,0.699,0.403,1.016,0.586
			c0.314,0.182,0.645,0.349,0.99,0.5l-1.924-18.793c-2.15-0.398-3.953-0.327-5.41,0.215c-1.455,0.543-2.59,1.518-3.402,2.925
			c-0.584,1.011-0.867,2.097-0.854,3.261c0.014,1.162,0.369,2.371,1.064,3.627c0.693,1.255,1.736,2.531,3.129,3.827
			C1729.822,1744.409,1731.619,1745.692,1733.82,1746.964z M1742.178,1732.736c-0.307-0.177-0.623-0.348-0.949-0.513
			c-0.326-0.163-0.633-0.329-0.922-0.496l1.918,18.68c2.082,0.434,3.85,0.372,5.303-0.186c1.453-0.557,2.578-1.529,3.381-2.919
			c0.584-1.011,0.867-2.104,0.848-3.281c-0.018-1.177-0.369-2.39-1.055-3.64s-1.732-2.521-3.139-3.815
			C1746.156,1735.274,1744.361,1733.997,1742.178,1732.736z"/>
		<path d="M1766.971,1730.481l-5.871-3.391l5.203-9.013l-22.734-13.125l-0.201,10.349l-6.635-0.944l0.557-14.653l3.203-5.548
			l29.717,17.156l4.484-7.767l5.871,3.391L1766.971,1730.481z"/>
		<path d="M1781.25,1664.563c2.904,1.678,5.32,3.493,7.246,5.447c1.928,1.955,3.328,3.996,4.203,6.125
			c0.877,2.13,1.225,4.31,1.043,6.539c-0.18,2.229-0.922,4.471-2.223,6.727c-1.125,1.948-2.506,3.546-4.139,4.791
			c-1.633,1.247-3.529,2.041-5.688,2.383s-4.574,0.185-7.252-0.471c-2.676-0.655-5.611-1.905-8.805-3.749
			c-2.904-1.677-5.318-3.497-7.24-5.46s-3.322-4.006-4.203-6.126s-1.227-4.304-1.035-6.552c0.191-2.246,0.934-4.489,2.225-6.727
			c1.125-1.949,2.504-3.546,4.137-4.792c1.635-1.245,3.523-2.038,5.666-2.376c2.145-0.338,4.555-0.18,7.23,0.477
			C1775.094,1661.455,1778.037,1662.71,1781.25,1664.563z M1769.264,1685.573c0.361,0.209,0.699,0.404,1.016,0.586
			c0.314,0.183,0.645,0.35,0.99,0.5l-1.924-18.792c-2.15-0.399-3.953-0.328-5.41,0.214c-1.455,0.543-2.59,1.518-3.402,2.926
			c-0.584,1.01-0.867,2.097-0.854,3.26c0.014,1.162,0.369,2.372,1.064,3.627c0.693,1.256,1.736,2.531,3.129,3.828
			S1767.063,1684.303,1769.264,1685.573z M1777.621,1671.347c-0.307-0.178-0.623-0.348-0.949-0.513
			c-0.324-0.163-0.633-0.329-0.922-0.496l1.918,18.68c2.082,0.434,3.852,0.371,5.303-0.186c1.453-0.557,2.578-1.53,3.381-2.919
			c0.584-1.011,0.867-2.104,0.848-3.281c-0.018-1.177-0.369-2.391-1.055-3.641s-1.732-2.521-3.139-3.814
			S1779.805,1672.606,1777.621,1671.347z"/>
		<path d="M1798.971,1633.868c2.904,1.678,5.32,3.494,7.248,5.447c1.926,1.955,3.328,3.997,4.203,6.126
			c0.875,2.13,1.223,4.31,1.043,6.538c-0.182,2.229-0.922,4.472-2.225,6.727c-1.125,1.949-2.504,3.546-4.137,4.792
			c-1.635,1.246-3.529,2.04-5.688,2.382s-4.576,0.186-7.252-0.471c-2.678-0.654-5.613-1.904-8.807-3.748
			c-2.904-1.678-5.316-3.497-7.238-5.461c-1.922-1.963-3.322-4.005-4.205-6.125c-0.879-2.121-1.225-4.305-1.033-6.553
			c0.191-2.246,0.932-4.488,2.223-6.727c1.125-1.948,2.506-3.545,4.139-4.791s3.521-2.038,5.666-2.377
			c2.143-0.338,4.555-0.179,7.23,0.477S1795.76,1632.015,1798.971,1633.868z M1786.984,1654.878
			c0.361,0.209,0.701,0.404,1.016,0.586c0.316,0.183,0.646,0.35,0.992,0.501l-1.924-18.792c-2.15-0.4-3.955-0.328-5.41,0.214
			c-1.457,0.543-2.59,1.518-3.402,2.925c-0.584,1.011-0.869,2.098-0.854,3.26c0.014,1.163,0.367,2.372,1.063,3.627
			c0.695,1.256,1.738,2.531,3.131,3.828S1784.785,1653.607,1786.984,1654.878z M1795.344,1640.651
			c-0.307-0.177-0.623-0.348-0.949-0.512s-0.633-0.33-0.922-0.496l1.916,18.68c2.084,0.433,3.852,0.371,5.303-0.186
			c1.453-0.557,2.58-1.53,3.383-2.92c0.582-1.01,0.865-2.104,0.848-3.281c-0.018-1.177-0.369-2.391-1.057-3.641
			c-0.686-1.25-1.73-2.521-3.137-3.814C1799.322,1643.188,1797.527,1641.912,1795.344,1640.651z"/>
	</g>
	<g>
		<path d="M1818.592,1477.433c-3.354,0-6.354-0.364-9-1.094c-2.646-0.729-4.88-1.797-6.703-3.203
			c-1.822-1.406-3.213-3.119-4.172-5.141c-0.957-2.021-1.438-4.333-1.438-6.938c0-2.25,0.396-4.322,1.188-6.219
			c0.792-1.896,2.037-3.531,3.734-4.906c1.698-1.375,3.87-2.447,6.516-3.219c2.646-0.771,5.813-1.156,9.5-1.156
			c3.354,0,6.354,0.37,9,1.109c2.646,0.74,4.881,1.808,6.703,3.203c1.823,1.396,3.214,3.115,4.172,5.156
			c0.959,2.042,1.438,4.354,1.438,6.938c0,2.25-0.396,4.323-1.188,6.219c-0.791,1.896-2.031,3.526-3.719,4.891
			c-1.688,1.365-3.854,2.433-6.5,3.203C1825.478,1477.048,1822.301,1477.433,1818.592,1477.433z M1818.342,1469.745
			c0.354,0,0.714-0.01,1.078-0.031c0.365-0.021,0.714-0.031,1.047-0.031l-11-15.219c-2.021,0.667-3.521,1.604-4.5,2.813
			c-0.979,1.209-1.469,2.615-1.469,4.219c0,1.167,0.303,2.256,0.906,3.266c0.604,1.011,1.516,1.886,2.734,2.625
			c1.219,0.74,2.761,1.318,4.625,1.734C1813.629,1469.537,1815.821,1469.745,1818.342,1469.745z M1818.467,1453.245
			c-0.416,0-0.807,0-1.172,0c-0.364,0-0.734,0.021-1.109,0.063l11.063,15.313c2.063-0.729,3.589-1.692,4.578-2.891
			c0.99-1.197,1.484-2.609,1.484-4.234c0-1.166-0.297-2.25-0.891-3.25s-1.505-1.869-2.734-2.609
			c-1.229-0.739-2.771-1.322-4.625-1.75C1823.207,1453.459,1821.009,1453.245,1818.467,1453.245z"/>
		<path d="M1818.592,1512.876c-3.354,0-6.354-0.364-9-1.094c-2.646-0.729-4.88-1.797-6.703-3.203
			c-1.822-1.406-3.213-3.119-4.172-5.141c-0.957-2.021-1.438-4.333-1.438-6.938c0-2.25,0.396-4.322,1.188-6.219
			c0.792-1.896,2.037-3.531,3.734-4.906c1.698-1.375,3.87-2.447,6.516-3.219c2.646-0.771,5.813-1.156,9.5-1.156
			c3.354,0,6.354,0.37,9,1.109c2.646,0.74,4.881,1.808,6.703,3.203c1.823,1.396,3.214,3.115,4.172,5.156
			c0.959,2.042,1.438,4.354,1.438,6.938c0,2.25-0.396,4.323-1.188,6.219c-0.791,1.896-2.031,3.526-3.719,4.891
			c-1.688,1.365-3.854,2.433-6.5,3.203C1825.478,1512.491,1822.301,1512.876,1818.592,1512.876z M1818.342,1505.188
			c0.354,0,0.714-0.01,1.078-0.031c0.365-0.021,0.714-0.031,1.047-0.031l-11-15.219c-2.021,0.667-3.521,1.604-4.5,2.813
			c-0.979,1.209-1.469,2.615-1.469,4.219c0,1.167,0.303,2.256,0.906,3.266c0.604,1.011,1.516,1.886,2.734,2.625
			c1.219,0.74,2.761,1.318,4.625,1.734C1813.629,1504.98,1815.821,1505.188,1818.342,1505.188z M1818.467,1488.688
			c-0.416,0-0.807,0-1.172,0c-0.364,0-0.734,0.021-1.109,0.063l11.063,15.313c2.063-0.729,3.589-1.692,4.578-2.891
			c0.99-1.197,1.484-2.609,1.484-4.234c0-1.166-0.297-2.25-0.891-3.25s-1.505-1.869-2.734-2.609
			c-1.229-0.739-2.771-1.322-4.625-1.75C1823.207,1488.902,1821.009,1488.688,1818.467,1488.688z"/>
		<path d="M1797.998,1519.539h6.781v10.406h26.25l-5-9.063l6.219-2.5l6.844,12.969v6.406h-34.313v8.969h-6.781V1519.539z"/>
		<path d="M1797.998,1554.982h6.781v10.406h26.25l-5-9.063l6.219-2.5l6.844,12.969v6.406h-34.313v8.969h-6.781V1554.982z"/>
	</g>
	<g>
		<path d="M1749.633,1300.526c-2.905,1.677-5.686,2.861-8.342,3.553c-2.656,0.69-5.125,0.884-7.406,0.577
			c-2.282-0.306-4.344-1.095-6.184-2.366s-3.411-3.034-4.713-5.289c-1.125-1.949-1.819-3.942-2.082-5.979
			c-0.262-2.038-0.002-4.076,0.781-6.116c0.783-2.039,2.127-4.055,4.033-6.045s4.456-3.908,7.649-5.752
			c2.905-1.677,5.688-2.856,8.349-3.539c2.661-0.682,5.13-0.875,7.406-0.577c2.277,0.297,4.341,1.09,6.191,2.38
			c1.851,1.289,3.422,3.051,4.714,5.289c1.125,1.948,1.818,3.941,2.081,5.979c0.262,2.038,0.004,4.07-0.775,6.096
			s-2.122,4.033-4.027,6.023C1755.402,1296.749,1752.844,1298.672,1749.633,1300.526z M1745.572,1293.993
			c0.307-0.177,0.612-0.366,0.918-0.566c0.305-0.199,0.602-0.384,0.891-0.551l-17.135-7.68c-1.418,1.588-2.248,3.15-2.491,4.686
			c-0.245,1.537,0.035,2.999,0.837,4.389c0.584,1.01,1.389,1.802,2.418,2.375c1.028,0.573,2.255,0.875,3.681,0.906
			c1.425,0.031,3.049-0.239,4.872-0.811S1743.389,1295.254,1745.572,1293.993z M1737.43,1279.642
			c-0.36,0.209-0.699,0.404-1.014,0.586c-0.316,0.183-0.627,0.385-0.93,0.608l17.236,7.729c1.422-1.662,2.261-3.26,2.52-4.792
			c0.258-1.532-0.02-3.002-0.832-4.409c-0.583-1.011-1.382-1.801-2.396-2.369c-1.014-0.569-2.238-0.867-3.672-0.893
			c-1.435-0.025-3.062,0.239-4.881,0.797C1741.642,1277.456,1739.631,1278.371,1737.43,1279.642z"/>
		<path d="M1767.354,1331.221c-2.904,1.677-5.685,2.861-8.34,3.553c-2.656,0.691-5.125,0.884-7.407,0.577
			c-2.282-0.306-4.343-1.095-6.184-2.365c-1.84-1.271-3.411-3.034-4.714-5.289c-1.125-1.949-1.818-3.942-2.08-5.98
			c-0.263-2.037-0.003-4.076,0.78-6.115c0.783-2.04,2.128-4.056,4.034-6.045c1.905-1.991,4.455-3.908,7.648-5.752
			c2.904-1.677,5.688-2.857,8.35-3.539c2.66-0.683,5.129-0.875,7.406-0.578c2.275,0.298,4.34,1.091,6.191,2.38
			c1.85,1.289,3.421,3.052,4.713,5.289c1.125,1.948,1.818,3.941,2.081,5.979c0.262,2.037,0.004,4.069-0.775,6.095
			s-2.122,4.034-4.027,6.024C1773.124,1327.444,1770.565,1329.366,1767.354,1331.221z M1763.294,1324.688
			c0.307-0.178,0.612-0.366,0.918-0.566c0.305-0.2,0.603-0.384,0.892-0.551l-17.137-7.68c-1.417,1.588-2.247,3.149-2.49,4.686
			c-0.244,1.536,0.035,2.998,0.838,4.389c0.583,1.01,1.389,1.801,2.417,2.375c1.028,0.572,2.255,0.875,3.681,0.906
			c1.425,0.03,3.049-0.24,4.873-0.811C1759.107,1326.864,1761.11,1325.948,1763.294,1324.688z M1755.152,1310.337
			c-0.361,0.208-0.699,0.403-1.016,0.586c-0.315,0.182-0.625,0.385-0.93,0.607l17.237,7.73c1.421-1.663,2.261-3.26,2.52-4.793
			c0.257-1.531-0.019-3.002-0.831-4.408c-0.584-1.012-1.383-1.801-2.396-2.369c-1.015-0.57-2.239-0.867-3.674-0.893
			c-1.434-0.026-3.061,0.239-4.88,0.797C1759.363,1308.151,1757.354,1309.065,1755.152,1310.337z"/>
		<path d="M1752.851,1347.288l5.873-3.391l5.203,9.012l22.733-13.125l-8.862-5.349l4.136-5.274l12.411,7.81l3.203,5.548
			l-29.715,17.156l4.484,7.768l-5.873,3.391L1752.851,1347.288z"/>
		<path d="M1802.798,1392.61c-2.905,1.678-5.686,2.861-8.341,3.553c-2.656,0.691-5.125,0.885-7.407,0.578s-4.343-1.096-6.184-2.366
			c-1.84-1.271-3.411-3.034-4.713-5.289c-1.125-1.948-1.819-3.942-2.081-5.979c-0.263-2.037-0.003-4.076,0.78-6.116
			c0.783-2.039,2.128-4.055,4.034-6.045c1.905-1.991,4.455-3.907,7.648-5.751c2.905-1.678,5.688-2.857,8.35-3.54
			c2.66-0.683,5.129-0.874,7.406-0.577c2.276,0.297,4.34,1.09,6.191,2.379c1.85,1.289,3.422,3.053,4.713,5.289
			c1.125,1.949,1.818,3.942,2.081,5.98c0.262,2.037,0.004,4.068-0.775,6.094s-2.122,4.034-4.027,6.024
			C1808.567,1388.834,1806.009,1390.757,1802.798,1392.61z M1798.737,1386.078c0.307-0.177,0.612-0.366,0.918-0.565
			c0.306-0.201,0.603-0.385,0.892-0.551l-17.136-7.68c-1.417,1.587-2.247,3.149-2.491,4.686c-0.244,1.535,0.035,2.998,0.838,4.388
			c0.583,1.011,1.389,1.802,2.417,2.375s2.255,0.875,3.681,0.906c1.425,0.03,3.049-0.239,4.873-0.811
			C1794.551,1388.255,1796.554,1387.339,1798.737,1386.078z M1790.596,1371.727c-0.361,0.208-0.699,0.403-1.015,0.586
			c-0.316,0.183-0.626,0.385-0.93,0.608l17.236,7.73c1.422-1.664,2.261-3.261,2.52-4.793c0.258-1.532-0.019-3.002-0.831-4.409
			c-0.584-1.011-1.383-1.8-2.396-2.369c-1.015-0.569-2.239-0.867-3.673-0.893c-1.435-0.026-3.062,0.239-4.881,0.797
			S1792.797,1370.456,1790.596,1371.727z"/>
	</g>
	<g>
		<path d="M1601.458,1181.799c-1.677,2.904-3.493,5.32-5.447,7.247s-3.996,3.328-6.125,4.203c-2.13,0.876-4.31,1.224-6.538,1.043
			c-2.229-0.181-4.472-0.922-6.727-2.224c-1.949-1.125-3.547-2.505-4.792-4.138c-1.247-1.634-2.04-3.529-2.382-5.688
			s-0.186-4.575,0.471-7.252c0.654-2.677,1.904-5.612,3.748-8.806c1.678-2.904,3.497-5.317,5.461-7.239
			c1.963-1.922,4.005-3.322,6.126-4.203c2.12-0.881,4.304-1.227,6.551-1.035s4.489,0.932,6.727,2.224
			c1.949,1.125,3.546,2.505,4.792,4.138c1.246,1.634,2.038,3.522,2.376,5.666s0.18,4.555-0.476,7.23
			C1604.566,1175.643,1603.313,1178.587,1601.458,1181.799z M1594.676,1178.171c0.177-0.307,0.348-0.623,0.512-0.949
			s0.33-0.633,0.496-0.922l-18.68,1.917c-0.434,2.083-0.371,3.851,0.186,5.303c0.557,1.453,1.53,2.579,2.92,3.382
			c1.01,0.583,2.104,0.866,3.281,0.848c1.177-0.018,2.391-0.369,3.641-1.056c1.249-0.686,2.521-1.731,3.814-3.138
			C1592.139,1182.149,1593.415,1180.354,1594.676,1178.171z M1580.449,1169.813c-0.209,0.36-0.404,0.699-0.586,1.015
			c-0.183,0.315-0.35,0.646-0.501,0.992l18.792-1.925c0.399-2.15,0.328-3.953-0.214-5.41c-0.543-1.455-1.518-2.59-2.925-3.402
			c-1.011-0.584-2.098-0.868-3.26-0.854c-1.163,0.014-2.373,0.368-3.627,1.063c-1.256,0.694-2.531,1.737-3.828,3.13
			C1583.003,1165.815,1581.72,1167.612,1580.449,1169.813z"/>
		<path d="M1632.153,1199.521c-1.678,2.904-3.493,5.32-5.447,7.247c-1.955,1.927-3.997,3.328-6.126,4.203
			c-2.129,0.876-4.309,1.224-6.537,1.043c-2.229-0.181-4.472-0.922-6.728-2.224c-1.948-1.125-3.546-2.505-4.792-4.138
			c-1.246-1.634-2.04-3.529-2.382-5.688c-0.341-2.158-0.185-4.575,0.471-7.252s1.905-5.612,3.749-8.806
			c1.677-2.904,3.496-5.318,5.461-7.239c1.963-1.922,4.005-3.323,6.125-4.203c2.12-0.881,4.304-1.227,6.552-1.035
			c2.247,0.19,4.489,0.933,6.727,2.224c1.948,1.125,3.546,2.504,4.792,4.138c1.245,1.634,2.038,3.522,2.376,5.666
			s0.179,4.554-0.477,7.23S1634.007,1196.309,1632.153,1199.521z M1625.37,1195.893c0.177-0.307,0.348-0.623,0.513-0.949
			c0.164-0.325,0.329-0.633,0.496-0.922l-18.68,1.917c-0.434,2.084-0.371,3.852,0.186,5.303c0.557,1.453,1.529,2.579,2.919,3.382
			c1.011,0.583,2.104,0.866,3.281,0.848c1.177-0.018,2.391-0.37,3.641-1.056s2.521-1.731,3.814-3.138
			C1622.833,1199.871,1624.109,1198.076,1625.37,1195.893z M1611.144,1187.535c-0.208,0.36-0.403,0.699-0.586,1.015
			s-0.35,0.646-0.501,0.992l18.793-1.925c0.399-2.15,0.328-3.954-0.215-5.41c-0.543-1.455-1.518-2.59-2.925-3.402
			c-1.011-0.584-2.097-0.868-3.26-0.854c-1.163,0.014-2.372,0.368-3.627,1.063c-1.255,0.694-2.531,1.737-3.828,3.13
			S1612.414,1185.334,1611.144,1187.535z"/>
		<path d="M1662.849,1217.242c-1.678,2.905-3.493,5.32-5.447,7.247c-1.955,1.927-3.997,3.328-6.126,4.203
			c-2.129,0.877-4.309,1.224-6.538,1.043c-2.229-0.181-4.472-0.922-6.727-2.224c-1.948-1.125-3.546-2.505-4.792-4.138
			c-1.246-1.634-2.04-3.529-2.382-5.688c-0.341-2.158-0.185-4.575,0.471-7.252s1.905-5.611,3.749-8.805
			c1.677-2.905,3.496-5.318,5.46-7.24s4.006-3.322,6.126-4.203s4.304-1.227,6.552-1.035c2.247,0.191,4.489,0.933,6.727,2.225
			c1.948,1.125,3.546,2.504,4.792,4.137c1.245,1.635,2.038,3.522,2.376,5.666c0.338,2.145,0.179,4.555-0.477,7.23
			C1665.957,1211.087,1664.702,1214.03,1662.849,1217.242z M1656.065,1213.614c0.177-0.307,0.348-0.623,0.513-0.949
			c0.164-0.325,0.329-0.633,0.496-0.922l-18.68,1.917c-0.434,2.084-0.371,3.852,0.186,5.304s1.529,2.578,2.919,3.381
			c1.011,0.583,2.104,0.866,3.281,0.848c1.177-0.018,2.391-0.369,3.641-1.055s2.521-1.732,3.814-3.139
			C1653.528,1217.593,1654.805,1215.798,1656.065,1213.614z M1641.839,1205.257c-0.208,0.361-0.403,0.699-0.586,1.015
			s-0.35,0.646-0.501,0.992l18.793-1.925c0.399-2.15,0.328-3.953-0.215-5.41c-0.543-1.455-1.518-2.59-2.925-3.402
			c-1.011-0.584-2.097-0.867-3.26-0.854s-2.372,0.369-3.627,1.063s-2.531,1.737-3.828,3.13S1643.109,1203.056,1641.839,1205.257z"/>
		<path d="M1658.321,1238.407l3.391-5.872l9.012,5.203l13.125-22.733l-10.349-0.201l0.944-6.635l14.653,0.557l5.548,3.203
			l-17.156,29.716l7.768,4.484l-3.391,5.872L1658.321,1238.407z"/>
	</g>
	<circle cx="1453.998" cy="1517.659" r="317"/>
	<g>
		<path fill="#FFFFFF" d="M1448.867,1242.382c0,3.599-0.392,6.816-1.174,9.654c-0.782,2.84-1.928,5.236-3.436,7.191
			c-1.51,1.957-3.348,3.448-5.516,4.477c-2.168,1.027-4.648,1.541-7.442,1.541c-2.413,0-4.638-0.424-6.671-1.273
			c-2.035-0.85-3.789-2.184-5.264-4.006c-1.476-1.822-2.627-4.152-3.453-6.99c-0.828-2.838-1.24-6.236-1.24-10.191
			c0-3.599,0.396-6.816,1.189-9.656c0.793-2.838,1.939-5.234,3.437-7.19s3.341-3.447,5.532-4.476
			c2.189-1.027,4.67-1.543,7.441-1.543c2.414,0,4.639,0.426,6.672,1.274c2.033,0.851,3.783,2.179,5.247,3.989
			s2.608,4.136,3.437,6.974C1448.453,1234.995,1448.867,1238.403,1448.867,1242.382z M1422.918,1242.516c0,0.447,0,0.866,0,1.257
			c0,0.392,0.022,0.788,0.068,1.19l16.427-11.868c-0.782-2.213-1.816-3.85-3.101-4.911c-1.286-1.062-2.8-1.593-4.543-1.593
			c-1.252,0-2.414,0.318-3.486,0.955c-1.073,0.638-2.007,1.615-2.8,2.934c-0.794,1.319-1.42,2.973-1.878,4.963
			C1423.147,1237.431,1422.918,1239.789,1422.918,1242.516z M1440.619,1242.649c0-0.379-0.011-0.766-0.033-1.156
			c-0.021-0.391-0.033-0.766-0.033-1.123l-16.326,11.801c0.715,2.168,1.721,3.777,3.017,4.828s2.805,1.575,4.526,1.575
			c1.251,0,2.419-0.323,3.503-0.972s2.022-1.627,2.816-2.934c0.793-1.309,1.413-2.962,1.86-4.963
			C1440.396,1247.706,1440.619,1245.354,1440.619,1242.649z"/>
		<path fill="#FFFFFF" d="M1486.891,1242.382c0,3.599-0.391,6.816-1.173,9.654c-0.783,2.84-1.928,5.236-3.437,7.191
			c-1.509,1.957-3.348,3.448-5.515,4.477c-2.168,1.027-4.649,1.541-7.442,1.541c-2.414,0-4.639-0.424-6.672-1.273
			c-2.034-0.85-3.788-2.184-5.264-4.006c-1.475-1.822-2.627-4.152-3.453-6.99c-0.827-2.838-1.24-6.236-1.24-10.191
			c0-3.599,0.396-6.816,1.189-9.656c0.794-2.838,1.939-5.234,3.437-7.19c1.498-1.956,3.342-3.447,5.532-4.476
			c2.19-1.027,4.671-1.543,7.442-1.543c2.414,0,4.638,0.426,6.672,1.274c2.033,0.851,3.782,2.179,5.246,3.989
			s2.609,4.136,3.437,6.974C1486.478,1234.995,1486.891,1238.403,1486.891,1242.382z M1460.942,1242.516c0,0.447,0,0.866,0,1.257
			c0,0.392,0.022,0.788,0.067,1.19l16.427-11.868c-0.782-2.213-1.815-3.85-3.101-4.911s-2.8-1.593-4.543-1.593
			c-1.252,0-2.414,0.318-3.486,0.955c-1.073,0.638-2.007,1.615-2.8,2.934c-0.793,1.319-1.419,2.973-1.877,4.963
			C1461.172,1237.431,1460.942,1239.789,1460.942,1242.516z M1478.644,1242.649c0-0.379-0.012-0.766-0.033-1.156
			c-0.022-0.391-0.033-0.766-0.033-1.123l-16.327,11.801c0.715,2.168,1.721,3.777,3.018,4.828c1.296,1.051,2.805,1.575,4.525,1.575
			c1.252,0,2.419-0.323,3.504-0.972c1.083-0.648,2.022-1.627,2.815-2.934c0.793-1.309,1.414-2.962,1.861-4.963
			C1478.42,1247.706,1478.644,1245.354,1478.644,1242.649z"/>
	</g>
	<g>
		<path fill="#FFFFFF" d="M1587.193,1276.696c-1.8,3.117-3.748,5.708-5.845,7.775c-2.096,2.066-4.286,3.57-6.569,4.51
			c-2.285,0.939-4.624,1.312-7.016,1.118c-2.391-0.194-4.797-0.989-7.217-2.386c-2.09-1.207-3.804-2.688-5.14-4.439
			c-1.337-1.752-2.189-3.786-2.555-6.101c-0.368-2.315-0.2-4.909,0.504-7.78c0.703-2.871,2.044-6.021,4.021-9.447
			c1.799-3.116,3.752-5.704,5.857-7.766c2.106-2.063,4.297-3.565,6.572-4.51c2.274-0.945,4.616-1.315,7.028-1.111
			c2.41,0.206,4.816,1.001,7.217,2.387c2.09,1.207,3.804,2.687,5.141,4.438c1.337,1.753,2.187,3.779,2.549,6.079
			c0.363,2.3,0.192,4.886-0.511,7.757C1590.528,1270.093,1589.183,1273.251,1587.193,1276.696z M1579.918,1272.805
			c0.189-0.328,0.371-0.669,0.548-1.019c0.176-0.35,0.354-0.68,0.533-0.989l-20.04,2.057c-0.464,2.235-0.397,4.132,0.199,5.689
			s1.641,2.767,3.132,3.628c1.083,0.625,2.257,0.929,3.52,0.909c1.264-0.019,2.565-0.396,3.906-1.132
			c1.34-0.736,2.704-1.858,4.092-3.367C1577.194,1277.073,1578.565,1275.147,1579.918,1272.805z M1564.654,1263.839
			c-0.224,0.387-0.433,0.75-0.628,1.088c-0.196,0.339-0.376,0.693-0.538,1.064l20.161-2.064c0.429-2.308,0.352-4.242-0.23-5.804
			s-1.627-2.778-3.137-3.65c-1.084-0.626-2.251-0.931-3.499-0.916c-1.247,0.016-2.545,0.396-3.891,1.141
			c-1.347,0.745-2.716,1.864-4.106,3.358C1567.395,1259.55,1566.018,1261.478,1564.654,1263.839z"/>
		<path fill="#FFFFFF" d="M1614.139,1301.583c-1.173,2.032-2.643,3.591-4.404,4.677c-1.763,1.086-3.711,1.735-5.847,1.947
			s-4.392,0.007-6.767-0.617c-2.376-0.623-4.765-1.628-7.165-3.013c-0.6-0.347-1.226-0.734-1.882-1.164
			c-0.656-0.432-1.314-0.875-1.978-1.336c-0.664-0.461-1.3-0.924-1.907-1.392c-0.607-0.467-1.164-0.91-1.67-1.331l3.57-6.185
			c0.947,0.908,2.09,1.858,3.428,2.85c1.336,0.991,2.75,1.917,4.24,2.777c2.903,1.677,5.437,2.397,7.599,2.161
			s3.813-1.341,4.953-3.314c1.185-2.052,1.357-3.984,0.521-5.797c-0.838-1.813-2.834-3.63-5.989-5.451l-7.433-4.291l11.65-20.179
			l21.892,12.639l-3.855,6.678l-15.271-8.817l-4.459,7.724l2.729,1.575c1.935,1.117,3.683,2.359,5.243,3.725
			c1.56,1.365,2.764,2.867,3.611,4.505c0.849,1.638,1.249,3.425,1.204,5.359C1616.105,1297.247,1615.436,1299.337,1614.139,1301.583
			z"/>
	</g>
	<g>
		<path fill="#FFFFFF" d="M1689.83,1375.576c-3.117,1.799-6.1,3.069-8.949,3.811s-5.498,0.948-7.945,0.62
			c-2.448-0.328-4.66-1.174-6.634-2.539c-1.974-1.363-3.659-3.254-5.057-5.674c-1.207-2.091-1.951-4.229-2.232-6.415
			c-0.281-2.186-0.003-4.372,0.838-6.561c0.84-2.188,2.282-4.351,4.327-6.485c2.044-2.135,4.779-4.193,8.205-6.172
			c3.117-1.799,6.103-3.063,8.957-3.796c2.854-0.732,5.504-0.938,7.946-0.618c2.442,0.317,4.656,1.168,6.642,2.552
			c1.985,1.382,3.672,3.274,5.057,5.675c1.207,2.09,1.951,4.228,2.232,6.414c0.281,2.186,0.005,4.365-0.831,6.539
			c-0.836,2.173-2.276,4.327-4.321,6.463C1696.02,1371.524,1693.275,1373.587,1689.83,1375.576z M1685.475,1368.567
			c0.328-0.189,0.656-0.393,0.984-0.607c0.327-0.215,0.646-0.411,0.955-0.59l-18.383-8.239c-1.52,1.703-2.41,3.379-2.672,5.026
			c-0.263,1.648,0.037,3.217,0.898,4.709c0.625,1.082,1.49,1.932,2.594,2.547c1.103,0.614,2.419,0.938,3.948,0.973
			c1.528,0.032,3.271-0.258,5.228-0.871C1680.982,1370.902,1683.132,1369.92,1685.475,1368.567z M1676.739,1353.171
			c-0.387,0.225-0.75,0.434-1.089,0.629c-0.338,0.195-0.671,0.412-0.997,0.652l18.492,8.293c1.524-1.785,2.425-3.498,2.702-5.143
			c0.276-1.643-0.021-3.22-0.892-4.729c-0.626-1.085-1.483-1.932-2.571-2.543c-1.088-0.609-2.401-0.93-3.939-0.957
			c-1.54-0.027-3.285,0.257-5.236,0.855C1681.257,1350.826,1679.101,1351.808,1676.739,1353.171z"/>
		<path fill="#FFFFFF" d="M1685.971,1413.077l6.284-6.414l-7.645-13.239l-8.73,2.177l-4.091-7.086l44.435-10.672l5.767,9.987
			l-31.46,33.146L1685.971,1413.077z M1711.971,1386.569l-20.535,5.197l5.732,9.93L1711.971,1386.569z"/>
	</g>
	<g>
		<path fill="#FFFFFF" d="M1729.275,1512.527c-3.599,0-6.816-0.392-9.655-1.173c-2.838-0.783-5.235-1.928-7.19-3.438
			c-1.956-1.508-3.448-3.347-4.476-5.514c-1.028-2.169-1.543-4.65-1.543-7.443c0-2.414,0.425-4.639,1.274-6.672
			c0.849-2.033,2.185-3.788,4.006-5.264c1.821-1.475,4.151-2.626,6.99-3.453c2.838-0.826,6.235-1.24,10.191-1.24
			c3.599,0,6.817,0.396,9.655,1.19c2.839,0.794,5.235,1.938,7.191,3.437c1.955,1.497,3.447,3.341,4.476,5.531
			s1.542,4.672,1.542,7.443c0,2.414-0.425,4.637-1.273,6.672c-0.85,2.033-2.18,3.781-3.989,5.246
			c-1.811,1.463-4.136,2.609-6.974,3.436C1736.662,1512.113,1733.254,1512.527,1729.275,1512.527z M1729.008,1504.28
			c0.38,0,0.765-0.012,1.156-0.033c0.391-0.023,0.766-0.034,1.123-0.034l-11.801-16.327c-2.168,0.715-3.777,1.721-4.827,3.018
			c-1.051,1.296-1.576,2.805-1.576,4.525c0,1.252,0.324,2.42,0.973,3.504c0.647,1.084,1.626,2.022,2.933,2.816
			c1.308,0.793,2.962,1.413,4.962,1.86C1723.95,1504.056,1726.303,1504.28,1729.008,1504.28z M1729.142,1486.579
			c-0.447,0-0.866,0-1.257,0c-0.392,0-0.788,0.021-1.19,0.066l11.868,16.428c2.212-0.783,3.85-1.816,4.911-3.102
			s1.593-2.799,1.593-4.543c0-1.252-0.318-2.413-0.956-3.486c-0.637-1.072-1.614-2.006-2.934-2.799
			c-1.318-0.794-2.973-1.42-4.961-1.877C1734.226,1486.808,1731.868,1486.579,1729.142,1486.579z"/>
		<path fill="#FFFFFF" d="M1744.026,1529.129h-12.136v16.562h-6.772v-16.562h-17.936v-8.382H1751v25.882h-6.974V1529.129z"/>
	</g>
	<g>
		<path fill="#FFFFFF" d="M1689.419,1688.045l-6.301-3.638l5.582-9.668l-24.389-14.08l-0.216,11.102l-7.117-1.013l0.598-15.721
			l3.436-5.952l31.879,18.405l4.812-8.332l6.301,3.638L1689.419,1688.045z"/>
		<path fill="#FFFFFF" d="M1712.994,1629.375l7.724,4.459l-3.989,6.909l-7.724-4.459l-10.191,17.653l-6.067-3.503l-15.607-28.754
			l5.632-9.756l23.981,13.846l3.319-5.748l6.242,3.604L1712.994,1629.375z M1685.684,1622.704l10.894,20.69l6.235-10.801
			L1685.684,1622.704z"/>
	</g>
	<g>
		<path fill="#FFFFFF" d="M1572.684,1782.927l-3.638-6.3l9.668-5.582l-14.08-24.389l-5.738,9.507l-5.657-4.437l8.377-13.314
			l5.952-3.437l18.405,31.879l8.332-4.811l3.638,6.3L1572.684,1782.927z"/>
		<path fill="#FFFFFF" d="M1618.619,1728.108c1.721,2.98,2.969,5.725,3.746,8.231c0.775,2.507,1.156,4.81,1.143,6.907
			c-0.014,2.1-0.369,4.021-1.065,5.766c-0.696,1.743-1.657,3.355-2.879,4.836c-1.224,1.48-2.658,2.838-4.308,4.073
			c-1.647,1.235-3.42,2.4-5.316,3.495l-4.385,2.531l-3.503-6.067l5.168-2.983c2.265-1.308,4.042-2.598,5.332-3.873
			c1.29-1.273,2.185-2.563,2.683-3.87c0.496-1.307,0.644-2.662,0.438-4.067c-0.204-1.403-0.659-2.896-1.365-4.477l-0.36-0.76
			c-0.747,1.077-1.688,2.15-2.826,3.219c-1.138,1.071-2.374,1.99-3.709,2.762c-1.84,1.062-3.637,1.815-5.393,2.261
			c-1.755,0.446-3.448,0.521-5.078,0.222c-1.63-0.296-3.173-1.012-4.627-2.147c-1.455-1.133-2.786-2.746-3.993-4.837
			c-1.095-1.896-1.749-3.822-1.961-5.776c-0.213-1.955-0.023-3.84,0.569-5.653c0.592-1.812,1.559-3.513,2.9-5.1
			c1.342-1.588,3.019-2.962,5.032-4.125c1.974-1.14,3.96-1.912,5.958-2.317c1.999-0.405,4.001-0.29,6.007,0.345
			c2.006,0.637,3.995,1.869,5.967,3.698C1614.767,1722.229,1616.708,1724.798,1618.619,1728.108z M1597.949,1724.827
			c-0.929,0.537-1.681,1.178-2.257,1.924c-0.576,0.745-0.968,1.553-1.177,2.421c-0.209,0.869-0.231,1.778-0.068,2.73
			c0.162,0.951,0.522,1.911,1.081,2.879c1.185,2.052,2.606,3.264,4.267,3.634c1.659,0.371,3.446,0.003,5.363-1.104
			c0.522-0.301,1.051-0.67,1.585-1.109c0.534-0.436,1.047-0.912,1.537-1.428c0.489-0.516,0.936-1.037,1.34-1.567
			c0.403-0.53,0.736-1.037,0.997-1.524c-0.994-1.723-1.982-3.178-2.965-4.365c-0.982-1.188-1.99-2.083-3.023-2.688
			c-1.032-0.604-2.1-0.897-3.199-0.881C1600.329,1723.764,1599.169,1724.124,1597.949,1724.827z"/>
	</g>
	<g>
		<path fill="#FFFFFF" d="M1424.146,1806.731v-7.275h11.164v-28.161l-9.722,5.364l-2.683-6.671l13.913-7.343h6.873v36.811h9.621
			v7.275H1424.146z"/>
		<path fill="#FFFFFF" d="M1463.243,1806.731v-43.817h26.384v6.974h-18.003v10.896h17.165v6.806h-17.165v12.169h18.003v6.974
			H1463.243z"/>
	</g>
	<g>
		<path fill="#FFFFFF" d="M1282.943,1752.689l3.017-5.226l14.15-3.793c2.657-0.711,4.845-1.384,6.564-2.017
			c1.721-0.632,3.134-1.269,4.238-1.908s1.979-1.315,2.622-2.027c0.645-0.713,1.218-1.504,1.721-2.375
			c0.413-0.716,0.689-1.466,0.833-2.248c0.142-0.783,0.127-1.54-0.044-2.271c-0.172-0.731-0.515-1.433-1.03-2.104
			c-0.517-0.672-1.209-1.259-2.08-1.762c-1.49-0.86-3.062-1.335-4.713-1.425c-1.651-0.089-3.362,0.079-5.13,0.503l-0.962-6.981
			c2.527-0.579,5.088-0.733,7.681-0.463c2.591,0.271,5.088,1.1,7.488,2.485c1.857,1.072,3.404,2.282,4.641,3.627
			c1.235,1.347,2.123,2.794,2.661,4.344c0.536,1.549,0.699,3.19,0.485,4.926c-0.215,1.733-0.847,3.512-1.896,5.33
			c-0.872,1.51-1.889,2.801-3.05,3.873c-1.16,1.071-2.486,2.004-3.975,2.795c-1.489,0.792-3.158,1.48-5.006,2.065
			c-1.849,0.585-3.894,1.146-6.14,1.682l-8.55,2.069l15.998,9.236l-3.772,6.533L1282.943,1752.689z"/>
		<path fill="#FFFFFF" d="M1348.43,1775.052c-1.084,1.878-2.407,3.366-3.97,4.464s-3.37,1.758-5.421,1.979
			c-2.051,0.223-4.333-0.017-6.844-0.719c-2.512-0.701-5.248-1.906-8.209-3.616c-0.658-0.38-1.342-0.794-2.051-1.242
			s-1.408-0.903-2.096-1.365c-0.689-0.462-1.352-0.923-1.989-1.381c-0.64-0.46-1.202-0.894-1.687-1.303l3.553-6.155
			c1.085,0.937,2.346,1.916,3.782,2.938c1.435,1.022,2.975,2.009,4.62,2.958c1.606,0.928,3.068,1.592,4.387,1.99
			c1.318,0.4,2.502,0.562,3.553,0.484s1.973-0.391,2.768-0.938c0.794-0.548,1.465-1.296,2.012-2.245
			c0.48-0.832,0.732-1.692,0.757-2.582c0.023-0.891-0.206-1.79-0.687-2.7c-0.481-0.91-1.232-1.834-2.252-2.771
			s-2.334-1.87-3.939-2.797l-4.211-2.431l3.118-5.4l3.861,2.229c1.51,0.872,2.85,1.445,4.021,1.721
			c1.17,0.275,2.194,0.332,3.076,0.17c0.88-0.163,1.645-0.515,2.293-1.057s1.191-1.19,1.627-1.945
			c0.895-1.548,1.068-3.015,0.527-4.399c-0.543-1.384-1.87-2.686-3.979-3.903c-1.51-0.872-3.084-1.587-4.722-2.146
			c-1.639-0.56-3.383-1.049-5.229-1.471l3.437-5.952c1.039,0.212,2.01,0.451,2.916,0.716c0.904,0.265,1.793,0.559,2.666,0.881
			c0.871,0.323,1.73,0.689,2.576,1.102c0.846,0.41,1.706,0.868,2.577,1.371c2.091,1.207,3.795,2.488,5.116,3.844
			c1.32,1.356,2.28,2.756,2.879,4.199c0.6,1.442,0.829,2.91,0.689,4.404c-0.14,1.493-0.628,2.966-1.466,4.417
			c-1.33,2.304-2.935,3.862-4.81,4.676c-1.877,0.813-3.98,1.051-6.313,0.71c1.106,0.898,2.018,1.868,2.73,2.913
			c0.713,1.044,1.208,2.143,1.484,3.295c0.276,1.153,0.324,2.323,0.143,3.509S1349.111,1773.872,1348.43,1775.052z"/>
	</g>
	<g>
		<path fill="#FFFFFF" d="M1188.344,1635.673l5.227-3.017l14.15,3.791c2.656,0.712,4.888,1.224,6.693,1.535
			c1.807,0.313,3.348,0.468,4.624,0.466s2.372-0.148,3.285-0.444c0.914-0.295,1.806-0.693,2.677-1.196
			c0.717-0.413,1.331-0.925,1.846-1.53c0.515-0.606,0.88-1.271,1.098-1.989c0.217-0.72,0.271-1.498,0.16-2.337
			c-0.111-0.841-0.418-1.695-0.921-2.566c-0.86-1.49-1.983-2.687-3.369-3.591c-1.386-0.902-2.95-1.613-4.694-2.129l2.658-6.527
			c2.479,0.763,4.772,1.908,6.883,3.439c2.109,1.53,3.856,3.496,5.242,5.896c1.073,1.858,1.809,3.679,2.205,5.463
			c0.397,1.783,0.442,3.48,0.133,5.091c-0.309,1.61-0.989,3.113-2.042,4.51c-1.053,1.394-2.489,2.617-4.308,3.667
			c-1.51,0.872-3.036,1.481-4.577,1.83c-1.541,0.347-3.155,0.492-4.84,0.433c-1.687-0.06-3.476-0.297-5.368-0.714
			s-3.944-0.954-6.157-1.613l-8.44-2.483l9.236,15.998l-6.532,3.771L1188.344,1635.673z"/>
		<path fill="#FFFFFF" d="M1238.359,1675.903c0.025,1.25-0.029,2.488-0.16,3.713c-0.132,1.225-0.422,2.398-0.87,3.521
			s-1.081,2.173-1.898,3.148s-1.885,1.843-3.2,2.603c-1.724,0.995-3.443,1.523-5.162,1.586c-1.719,0.063-3.379-0.263-4.979-0.978
			c-1.6-0.716-3.1-1.771-4.5-3.17c-1.401-1.397-2.654-3.055-3.761-4.971c-1.229-2.13-2.089-4.144-2.578-6.041
			s-0.64-3.645-0.45-5.237c0.189-1.594,0.711-3.018,1.562-4.27c0.851-1.253,2.003-2.298,3.454-3.136
			c1.297-0.749,2.563-1.229,3.797-1.438c1.233-0.209,2.456-0.226,3.67-0.047c1.211,0.177,2.395,0.507,3.551,0.988
			c1.155,0.481,2.293,1.043,3.413,1.688c0-1.161,0.08-2.297,0.239-3.408c0.158-1.111,0.447-2.176,0.867-3.192
			c0.419-1.017,0.995-1.963,1.729-2.837c0.734-0.875,1.691-1.653,2.872-2.335c1.374-0.794,2.819-1.273,4.337-1.439
			c1.517-0.167,3.034,0.016,4.554,0.546c1.519,0.528,3.001,1.441,4.445,2.736c1.444,1.296,2.786,3.017,4.027,5.165
			c1.14,1.975,1.948,3.855,2.427,5.645c0.477,1.788,0.633,3.434,0.469,4.937c-0.166,1.502-0.626,2.839-1.382,4.01
			c-0.755,1.173-1.782,2.133-3.079,2.882c-1.2,0.692-2.379,1.153-3.537,1.383c-1.157,0.229-2.289,0.291-3.398,0.183
			c-1.107-0.109-2.2-0.369-3.275-0.78C1240.465,1676.947,1239.404,1676.462,1238.359,1675.903z M1230.599,1670.978
			c-0.842-0.521-1.688-0.98-2.538-1.379c-0.851-0.4-1.698-0.686-2.545-0.854c-0.847-0.17-1.687-0.207-2.522-0.111
			c-0.835,0.095-1.669,0.384-2.501,0.864c-1.472,0.849-2.265,2.068-2.379,3.657c-0.115,1.589,0.369,3.322,1.453,5.199
			c0.492,0.852,1.043,1.604,1.652,2.259c0.61,0.655,1.264,1.161,1.962,1.52c0.696,0.358,1.427,0.538,2.188,0.537
			s1.538-0.229,2.332-0.688c0.813-0.47,1.437-1.076,1.873-1.818c0.436-0.742,0.74-1.589,0.914-2.54
			c0.173-0.951,0.256-1.993,0.248-3.124C1230.727,1673.367,1230.682,1672.194,1230.599,1670.978z M1237.87,1668.754
			c0.79,0.474,1.578,0.889,2.365,1.247c0.788,0.358,1.571,0.608,2.351,0.752c0.779,0.145,1.558,0.173,2.334,0.086
			c0.775-0.086,1.541-0.349,2.296-0.784c1.258-0.727,1.931-1.772,2.02-3.14c0.088-1.367-0.404-2.979-1.478-4.838
			c-1.051-1.82-2.199-3.027-3.446-3.623c-1.248-0.596-2.549-0.503-3.903,0.279c-0.736,0.425-1.299,0.969-1.689,1.633
			c-0.391,0.665-0.665,1.43-0.823,2.295c-0.159,0.866-0.225,1.813-0.198,2.843
			C1237.725,1666.534,1237.781,1667.617,1237.87,1668.754z"/>
	</g>
	<g>
		<path fill="#FFFFFF" d="M1200.814,1554.436h-6.034l-10.359-10.358c-1.944-1.945-3.62-3.504-5.028-4.677
			c-1.408-1.174-2.666-2.079-3.771-2.716c-1.106-0.637-2.129-1.057-3.068-1.258c-0.938-0.201-1.91-0.302-2.916-0.302
			c-0.826,0-1.615,0.135-2.363,0.402c-0.749,0.269-1.396,0.66-1.945,1.174c-0.547,0.515-0.982,1.162-1.307,1.944
			c-0.324,0.783-0.486,1.677-0.486,2.683c0,1.721,0.375,3.318,1.123,4.794c0.749,1.475,1.749,2.872,3,4.19l-5.564,4.324
			c-1.766-1.899-3.18-4.039-4.241-6.42c-1.062-2.38-1.593-4.956-1.593-7.728c0-2.146,0.273-4.09,0.822-5.833
			c0.547-1.743,1.357-3.235,2.43-4.476s2.414-2.201,4.023-2.884c1.609-0.681,3.465-1.022,5.564-1.022
			c1.744,0,3.369,0.235,4.879,0.704c1.508,0.47,2.979,1.151,4.408,2.045c1.431,0.895,2.861,1.995,4.291,3.303
			c1.431,1.308,2.939,2.799,4.525,4.476l6.068,6.37v-18.473h7.543V1554.436z"/>
		<path fill="#FFFFFF" d="M1178.354,1484.764c3.396,0,6.481,0.419,9.252,1.257c2.771,0.838,5.136,2.146,7.092,3.923
			c1.955,1.776,3.464,4.052,4.525,6.822c1.062,2.772,1.592,6.091,1.592,9.957v11.13h-43.816v-12.974c0-3.353,0.418-6.286,1.257-8.8
			c0.838-2.516,2.129-4.61,3.872-6.287c1.743-1.676,3.956-2.934,6.638-3.771C1171.447,1485.183,1174.643,1484.764,1178.354,1484.764
			z M1178.89,1493.614c-2.369,0-4.481,0.19-6.337,0.57c-1.854,0.38-3.424,1.022-4.71,1.928c-1.284,0.904-2.263,2.117-2.933,3.637
			c-0.672,1.521-1.006,3.409-1.006,5.666v4.191h30.004v-3.621c0-4.045-1.207-7.119-3.62-9.22
			C1187.874,1494.665,1184.074,1493.614,1178.89,1493.614z"/>
	</g>
	<g>
		<path fill="#FFFFFF" d="M1219.697,1390.359c1.879,1.084,3.367,2.407,4.465,3.97c1.098,1.563,1.757,3.371,1.979,5.421
			c0.222,2.052-0.017,4.333-0.718,6.844c-0.702,2.512-1.908,5.248-3.617,8.21c-0.381,0.658-0.795,1.341-1.243,2.05
			c-0.447,0.71-0.903,1.408-1.364,2.097c-0.463,0.688-0.923,1.352-1.381,1.99c-0.46,0.638-0.895,1.2-1.304,1.686l-6.155-3.553
			c0.937-1.086,1.916-2.346,2.938-3.781c1.022-1.437,2.009-2.977,2.958-4.622c0.928-1.606,1.592-3.068,1.99-4.387
			c0.4-1.317,0.562-2.502,0.484-3.553c-0.076-1.051-0.391-1.974-0.938-2.768c-0.548-0.794-1.297-1.465-2.245-2.013
			c-0.832-0.479-1.693-0.731-2.583-0.755s-1.789,0.205-2.7,0.687c-0.909,0.48-1.833,1.231-2.771,2.252s-1.87,2.333-2.798,3.939
			l-2.431,4.21l-5.4-3.118l2.229-3.861c0.872-1.51,1.446-2.849,1.722-4.02c0.274-1.17,0.332-2.195,0.17-3.076
			c-0.164-0.881-0.516-1.646-1.058-2.294c-0.541-0.647-1.19-1.19-1.944-1.626c-1.549-0.895-3.016-1.069-4.399-0.527
			c-1.384,0.543-2.687,1.869-3.904,3.979c-0.872,1.51-1.587,3.084-2.146,4.723c-0.559,1.64-1.049,3.382-1.471,5.229l-5.951-3.436
			c0.213-1.039,0.451-2.01,0.716-2.916c0.264-0.905,0.557-1.794,0.88-2.666c0.323-0.871,0.69-1.731,1.102-2.577
			c0.411-0.847,0.869-1.705,1.371-2.576c1.207-2.091,2.488-3.796,3.844-5.116c1.356-1.32,2.756-2.281,4.199-2.88
			c1.442-0.6,2.911-0.829,4.404-0.689c1.494,0.14,2.966,0.628,4.418,1.467c2.304,1.33,3.861,2.933,4.676,4.809
			c0.813,1.877,1.05,3.981,0.709,6.313c0.899-1.107,1.869-2.018,2.914-2.731c1.043-0.713,2.143-1.207,3.295-1.483
			c1.153-0.277,2.322-0.324,3.509-0.143C1217.335,1389.246,1218.518,1389.678,1219.697,1390.359z"/>
		<path fill="#FFFFFF" d="M1235.359,1389.987l-5.226-3.018l-3.792-14.15c-0.712-2.656-1.385-4.846-2.018-6.565
			s-1.268-3.133-1.908-4.237c-0.64-1.105-1.315-1.979-2.028-2.623c-0.712-0.643-1.503-1.217-2.374-1.719
			c-0.716-0.414-1.466-0.691-2.248-0.834c-0.783-0.142-1.54-0.127-2.271,0.044c-0.731,0.172-1.434,0.515-2.104,1.03
			c-0.672,0.516-1.26,1.209-1.763,2.08c-0.86,1.49-1.335,3.062-1.425,4.713c-0.088,1.652,0.079,3.361,0.504,5.13l-6.982,0.962
			c-0.579-2.527-0.733-5.088-0.463-7.68c0.271-2.592,1.1-5.088,2.486-7.488c1.072-1.858,2.281-3.405,3.627-4.642
			c1.346-1.235,2.793-2.123,4.342-2.661c1.549-0.537,3.191-0.699,4.927-0.485c1.733,0.215,3.511,0.847,5.33,1.897
			c1.51,0.871,2.801,1.888,3.873,3.049c1.071,1.161,2.003,2.486,2.795,3.975c0.792,1.49,1.481,3.158,2.065,5.006
			s1.146,3.895,1.682,6.139l2.07,8.551l9.236-15.997l6.532,3.771L1235.359,1389.987z"/>
	</g>
	<g>
		<path fill="#FFFFFF" d="M1314.737,1290.265c1.085,1.879,1.711,3.769,1.88,5.671c0.17,1.902-0.163,3.797-0.996,5.685
			c-0.832,1.887-2.18,3.743-4.043,5.566c-1.863,1.824-4.275,3.592-7.237,5.302c-0.658,0.38-1.358,0.764-2.101,1.154
			c-0.743,0.391-1.486,0.769-2.23,1.133s-1.475,0.709-2.191,1.033c-0.717,0.323-1.374,0.593-1.971,0.809l-3.555-6.155
			c1.354-0.472,2.832-1.073,4.436-1.806s3.228-1.573,4.873-2.522c1.606-0.928,2.912-1.862,3.917-2.805
			c1.005-0.941,1.737-1.886,2.195-2.834c0.459-0.949,0.649-1.904,0.571-2.866c-0.077-0.962-0.391-1.917-0.938-2.864
			c-0.48-0.832-1.101-1.481-1.859-1.947c-0.759-0.464-1.652-0.716-2.682-0.755c-1.028-0.038-2.204,0.149-3.525,0.565
			c-1.322,0.414-2.786,1.086-4.393,2.013l-4.21,2.431l-3.118-5.4l3.861-2.229c1.51-0.872,2.677-1.744,3.501-2.62
			c0.823-0.876,1.385-1.735,1.685-2.58c0.3-0.844,0.377-1.682,0.232-2.515c-0.146-0.831-0.436-1.626-0.872-2.381
			c-0.894-1.549-2.076-2.433-3.546-2.655c-1.471-0.223-3.261,0.275-5.37,1.493c-1.51,0.872-2.917,1.878-4.22,3.017
			c-1.304,1.141-2.6,2.404-3.888,3.793l-3.437-5.951c0.703-0.793,1.396-1.516,2.078-2.167c0.682-0.652,1.38-1.275,2.096-1.868
			c0.715-0.594,1.463-1.154,2.242-1.682c0.779-0.528,1.604-1.043,2.476-1.547c2.091-1.206,4.053-2.043,5.887-2.508
			c1.835-0.466,3.526-0.598,5.076-0.396c1.55,0.203,2.936,0.739,4.159,1.605c1.223,0.868,2.254,2.028,3.093,3.479
			c1.33,2.305,1.878,4.471,1.644,6.503c-0.232,2.032-1.08,3.973-2.541,5.821c1.332-0.51,2.627-0.813,3.889-0.908
			c1.261-0.096,2.459,0.025,3.596,0.363c1.137,0.337,2.174,0.881,3.109,1.631
			C1313.247,1288.118,1314.057,1289.085,1314.737,1290.265z"/>
		<path fill="#FFFFFF" d="M1338.938,1291.738l-8.013,4.626l-2.855-39.811l-18.204,10.51l-3.956-6.853l26.362-15.22l3.57,6.184
			L1338.938,1291.738z"/>
	</g>
</g>
<rect x="419.378" y="-330.473" fill="#FF0000" width="20" height="96"/>
<path d="M-736.127,591.057c-282.771,0-512,229.229-512,512c0,282.771,229.229,512.001,512,512.001c282.77,0,512-229.23,512-512.001
	C-224.126,820.285-453.357,591.057-736.127,591.057z M-736.127,687.057c33.489,0,66.049,3.959,97.25,11.43l-23.381,97.26
	c138.891,33.25,242.131,158.23,242.131,307.311c0,174.521-141.471,316.001-316,316.001c-174.521,0-316-141.48-316-316.001
	c0-149.08,103.239-274.051,242.13-307.311l-23.38-97.26C-802.177,691.016-769.617,687.057-736.127,687.057z"/>
<g>
	<path fill="#FF0000" d="M1572.966,279.401l-23.369,97.25c94.93,22.739,165.5,108.159,165.5,210.06c0,119.29-96.711,216-216.001,216
		s-216-96.71-216-216c0-101.9,70.57-187.32,165.5-210.06l-23.37-97.25c-138.89,33.26-242.13,158.229-242.13,307.31
		c0,174.52,141.48,316,316,316c174.521,0,316.001-141.48,316.001-316C1815.097,437.631,1711.856,312.661,1572.966,279.401z"/>
	<path d="M1715.097,586.711c0,119.29-96.711,216-216.001,216s-216-96.71-216-216c0-101.9,70.57-187.32,165.5-210.06
		c16.2-3.881,33.11-5.94,50.5-5.94s34.3,2.06,50.501,5.94C1644.526,399.391,1715.097,484.811,1715.097,586.711z"/>
</g>
<circle fill="#FF0000" cx="511.998" cy="511.999" r="64"/>
<polygon fill="#FFFFFF" points="489.999,479.999 553.999,511.999 489.999,543.999 "/>
<g>
</g>
<g>
</g>
<g>
</g>
<g>
</g>
<g>
</g>
<g>
</g>
</svg>
